<svg xmlns="http://www.w3.org/2000/svg" width="53.203" height="53.202" viewBox="0 0 53.203 53.202"><defs><style>.a{fill:#1bb4bb;}.b{fill:#23a7ad;}.c{fill:#fc6171;}.d{fill:#005473;}.e{fill:#fff;}</style></defs><g transform="translate(0 0)"><path class="a" d="M562.643,359.723a26.6,26.6,0,1,1-26.6-26.6A26.6,26.6,0,0,1,562.643,359.723Z" transform="translate(-509.44 -333.122)"/><path class="b" d="M561.246,358.388a26.489,26.489,0,0,0-.978-7.055l-11.485-6.675v15.468H521.249l5.613,3.263,1.349,7.648,7.825,2.4H521.165l18.882,10.976A26.572,26.572,0,0,0,561.246,358.388Z" transform="translate(-508.043 -331.746)"/><g transform="translate(12.877 12.706)"><rect class="c" width="27.823" height="15.636" transform="translate(0.001)"/><path class="d" d="M528.814,368.131a1.7,1.7,0,0,1,.077-1.451,3.49,3.49,0,0,0,.98-1.593.225.225,0,0,0,.171.109c.2,0,.354-.383.354-.85s-.154-.848-.354-.848l-.011,0c-.091-1.741-.832-3.09-2.87-3.09-2.092,0-2.785,1.349-2.872,3.09l-.013,0c-.195,0-.352.38-.352.848s.157.85.352.85a.234.234,0,0,0,.177-.113,3.484,3.484,0,0,0,.977,1.6,1.657,1.657,0,0,1,.077,1.451s-4.526,1.642-4.526,3.535h12.361C533.342,369.773,528.814,368.131,528.814,368.131Z" transform="translate(-520.981 -342.723)"/><path class="d" d="M535.768,368.131a1.686,1.686,0,0,1,.076-1.451,3.486,3.486,0,0,0,.978-1.593.227.227,0,0,0,.174.109c.2,0,.351-.383.351-.85s-.153-.848-.351-.848l-.011,0c-.093-1.741-.834-3.09-2.872-3.09-2.092,0-2.785,1.349-2.867,3.09l-.016,0c-.195,0-.354.38-.354.848s.159.85.354.85a.23.23,0,0,0,.177-.113,3.487,3.487,0,0,0,.978,1.6,1.667,1.667,0,0,1,.073,1.451s-4.522,1.642-4.522,3.535h12.356C540.291,369.773,535.768,368.131,535.768,368.131Z" transform="translate(-520.2 -342.723)"/><path class="d" d="M542.721,368.131a1.687,1.687,0,0,1,.073-1.451,3.5,3.5,0,0,0,.978-1.593.232.232,0,0,0,.174.109c.2,0,.357-.383.357-.85s-.159-.848-.357-.848l-.011,0c-.091-1.741-.832-3.09-2.869-3.09-2.093,0-2.787,1.349-2.87,3.09l-.015,0c-.2,0-.355.38-.355.848s.159.85.355.85a.23.23,0,0,0,.176-.113,3.468,3.468,0,0,0,.978,1.6,1.668,1.668,0,0,1,.076,1.451s-4.522,1.642-4.522,3.535h12.356C547.244,369.773,542.721,368.131,542.721,368.131Z" transform="translate(-519.42 -342.723)"/></g></g><g transform="translate(19.065 15.074)"><path class="e" d="M73.012,186.635a.125.125,0,0,0,0-.051.064.064,0,0,0-.026-.048.469.469,0,0,0-.05-.009l-.046-.005a.082.082,0,0,1-.022-.008.035.035,0,0,1-.024-.02.211.211,0,0,1-.05-.029.251.251,0,0,1-.052-.038l-.039,0c-.018,0-.041-.01-.064-.015l-.062-.013a.132.132,0,0,1-.034-.014.313.313,0,0,1-.129-.068.88.88,0,0,0-.116-.085h-.012c-.019,0-.03.015-.037.045a.31.31,0,0,1-.019.054c-.033-.006-.055-.018-.06-.041a.081.081,0,0,0-.043-.053l-.009.013a.136.136,0,0,1-.013.012.085.085,0,0,0-.011.051.089.089,0,0,0,.011.052.071.071,0,0,1-.031-.008c-.012-.006-.024-.012-.027-.019a.071.071,0,0,1,0-.057c.012-.018,0-.033-.024-.04l-.01.005h-.009l-.018.008v.153a.145.145,0,0,0-.066.047.117.117,0,0,1-.07.04l-.141,0a.05.05,0,0,1-.009.027.1.1,0,0,1-.015.02h-.04c-.025,0-.058,0-.089,0a.258.258,0,0,1-.074-.016.231.231,0,0,1-.022-.034.3.3,0,0,0-.024-.041.358.358,0,0,1-.054-.186c0-.068-.005-.132-.005-.194a1.274,1.274,0,0,1,.016-.162c.01-.061.023-.126.04-.193s.036-.13.054-.195a1.235,1.235,0,0,1,.069-.156.153.153,0,0,1,.085-.074.161.161,0,0,0,.084-.076c.008,0,.019-.022.03-.058a.4.4,0,0,1,.028-.059s.012-.012.02-.031a.012.012,0,0,0,.012.006c.009,0,.015,0,.015-.006a.176.176,0,0,0,.025-.028c.013-.012.017-.02.017-.025s.012-.016.005-.023a.058.058,0,0,1-.005-.023.086.086,0,0,0,.02-.02.05.05,0,0,1,.027-.018.3.3,0,0,0,.009.03c0,.007.011.007.03.007s.024-.01.038-.029a.365.365,0,0,0,.034-.065.342.342,0,0,0,.03-.065.168.168,0,0,0,.013-.042c.014,0,.033,0,.059-.008a.262.262,0,0,0,.07-.015.115.115,0,0,0,.058-.029.075.075,0,0,0,.032-.054l.121-.005a.06.06,0,0,1,.009-.023.086.086,0,0,1,.019-.03h.046a.137.137,0,0,0,.051,0c.053-.045.093-.08.126-.1s.058-.047.085-.07a.235.235,0,0,1,.043-.034l0-.029a.027.027,0,0,1,0-.028c0-.005.011-.011.029-.024l.041-.025.013-.022a.087.087,0,0,1,.009-.027.121.121,0,0,1,.027-.028.1.1,0,0,0,.022-.024.357.357,0,0,0,.041-.084l.032-.07.005-.034a.361.361,0,0,0,.006-.064c0-.02,0-.044.008-.065a.187.187,0,0,0,.006-.037.046.046,0,0,1,.011-.025l.014-.023c.006-.013.012-.028.023-.05a.2.2,0,0,0,.011-.034s-.009,0-.011,0a.054.054,0,0,0-.023-.009.99.99,0,0,0-.1-.027c-.048-.008-.082-.014-.1-.017v-.064l-.05.015a.138.138,0,0,1-.048.013.249.249,0,0,1-.036-.042l-.032-.038-.1-.032-.1-.026-.067,0a.946.946,0,0,0-.265.051.379.379,0,0,0-.213.157v.03a.1.1,0,0,0,.023.074c.033.014.067.03.1.048a.889.889,0,0,1,.146.1,1.4,1.4,0,0,1,.125.128.07.07,0,0,0,0,.019l0,.02a.233.233,0,0,1-.028.075c-.019.038-.032.057-.041.057s-.03-.009-.037-.033-.015-.047-.019-.066a.262.262,0,0,1-.141.039c0-.027.011-.04.032-.042s.037-.01.037-.033v-.029a.706.706,0,0,1-.095.044.361.361,0,0,1-.1.011.489.489,0,0,1-.058,0c0-.037-.011-.052-.032-.054a.125.125,0,0,1-.065-.024.183.183,0,0,1-.08-.1.277.277,0,0,0-.065-.112.18.18,0,0,0-.057-.026c-.027-.01-.057-.019-.083-.026a.233.233,0,0,1-.079-.023c-.023-.005-.032-.013-.032-.021v-.449a.044.044,0,0,1-.026-.029.107.107,0,0,1-.011-.034.113.113,0,0,0,.1-.042l.06-.089.05,0,.079-.008.075-.012.052-.013s.015-.005.03-.021a.2.2,0,0,1,.037-.022.27.27,0,0,1,.086-.028.12.12,0,0,0,.068-.051c.071,0,.141,0,.21,0a.118.118,0,0,1,.008-.056c.008-.006,0-.02-.024-.046h.028a1.393,1.393,0,0,1,.2.075.294.294,0,0,1,.14.157h.017c.019,0,.029-.014.033-.044a.051.051,0,0,1,.047-.047l.017.008.015.006.047,0A.234.234,0,0,1,72.8,183a.368.368,0,0,0,.042,0c.018,0,.038,0,.057,0a.12.12,0,0,1,.059.008.05.05,0,0,1,.029.038.348.348,0,0,1,.017.067.727.727,0,0,1,.009.073.585.585,0,0,1,.134.069.225.225,0,0,1,.093.114.293.293,0,0,1-.005.046.34.34,0,0,0,0,.046.122.122,0,0,0,.056-.017.111.111,0,0,1,.05-.015l.011,0,.011,0c.013,0,.028.008.044.011l.028.005c.006,0,.006.017,0,.041a.1.1,0,0,0,0,.039.367.367,0,0,0,.038.046.155.155,0,0,1,.038.052.229.229,0,0,1,.017.1,1.03,1.03,0,0,1,0,.11.973.973,0,0,1-.011.136,1.088,1.088,0,0,0-.011.145v.121a.344.344,0,0,0,.022.117.4.4,0,0,1-.059.045c-.033.025-.05.039-.057.042s-.024,0-.055-.024a.138.138,0,0,0-.055-.03c0,.005,0,.013,0,.029a.32.32,0,0,1,.012.048l.013.051,0,.028a.081.081,0,0,0,.011.029.034.034,0,0,1,.011.02v.045a.2.2,0,0,1-.013.076.065.065,0,0,1-.053.033c-.032,0-.05-.01-.054-.033s-.022-.037-.039-.034h0a.168.168,0,0,1-.023.089.534.534,0,0,1-.051.074c-.015.025-.032.047-.048.074a.191.191,0,0,0-.033.092.1.1,0,0,0-.011-.039.133.133,0,0,0-.015-.036l-.012,0a.069.069,0,0,0-.045.016.168.168,0,0,1-.065.015v.129s-.005.01-.016.018a.1.1,0,0,1-.029.009.132.132,0,0,1-.05.005c-.028,0-.044,0-.052,0a.45.45,0,0,0-.041.037.034.034,0,0,1-.022-.012.023.023,0,0,1-.011-.022.093.093,0,0,0,.017-.025.113.113,0,0,1,.015-.022v-.025a.034.034,0,0,1-.032-.025l-.012-.005-.013.006a.085.085,0,0,1-.023.026.121.121,0,0,0-.022.028v.024a.094.094,0,0,0,.011.026.108.108,0,0,1,.011.028.859.859,0,0,1-.1.072c-.027.022-.05.042-.071.056a.2.2,0,0,1-.037.024c.009.005.016.014.028.023-.019.037-.037.074-.057.112a.3.3,0,0,0-.057.067.6.6,0,0,0-.051.072c.006.013.026.016.058,0a.154.154,0,0,1,.06-.022h.018a.038.038,0,0,0,.016-.026c0-.014.006-.023.012-.027s0,0,.017,0l.018.009c.006-.016.011-.029.015-.043h.018a.051.051,0,0,1,.028,0s0,0,0,0v-.005a.077.077,0,0,0,.076.042.193.193,0,0,1,.082.009.089.089,0,0,0,.017.019c.009.006.015.015.024.023a.138.138,0,0,0,.111.034l.116-.01a.068.068,0,0,0,.008.028v.023l0,.009a.14.14,0,0,1-.059.032.169.169,0,0,0-.055.029v.266c0,.02.009.029.022.029s.014-.02.016-.056.013-.074.017-.116a.46.46,0,0,1,.033-.114c.014-.031.031-.047.06-.046.02.031.045.06.068.092a.209.209,0,0,0,.005.046.028.028,0,0,0,.033.025.071.071,0,0,0,.046-.015.073.073,0,0,1,.038-.014.063.063,0,0,1,.056.016.218.218,0,0,1,.026.045c.04,0,.079-.005.121-.009a.06.06,0,0,1-.042-.014.118.118,0,0,1-.034-.025l0-.011,0-.013a.033.033,0,0,0,.011-.018l.011-.013a.7.7,0,0,0,.081.025.646.646,0,0,1,.069.014.139.139,0,0,0,.076,0l.074-.009a.112.112,0,0,0,.027.009.157.157,0,0,1,.027.01.113.113,0,0,0,.009.042.082.082,0,0,0,.016.033c.006.009.017.006.033-.008a.142.142,0,0,1,.026-.019c0-.006,0-.011.008-.006s0,.005,0,.006a.153.153,0,0,0-.011-.031c-.01-.013-.013-.018-.013-.024l-.005-.012v-.01l.029,0,.042.012.032,0,.005.01a.127.127,0,0,1-.038.1.326.326,0,0,0-.066.073v.03a.1.1,0,0,1-.033.06.089.089,0,0,1-.047.019h-.088c.017.026.033.047.047.072.006,0,0,.005,0,.013a.024.024,0,0,1-.018.01c-.027,0-.043,0-.052-.018a.2.2,0,0,1-.016-.045.19.19,0,0,0-.006-.05c0-.014-.017-.02-.036-.018s-.015.014-.011.039a.2.2,0,0,1,0,.08.064.064,0,0,1-.046.05c-.025.012-.068,0-.134-.031v-.154l-.011-.006-.012-.011c0,.01-.009.019-.013.029a.062.062,0,0,0-.009.024.415.415,0,0,0,0,.1.968.968,0,0,1,.009.109l.011.01a.122.122,0,0,0,.014-.029.059.059,0,0,0,.009-.03.194.194,0,0,1,.05.053.086.086,0,0,1,.027.057.045.045,0,0,1-.014.038c-.008,0-.013.017-.013.042s0,.019.005.012a.282.282,0,0,0,.008-.038.158.158,0,0,1,.018-.051.041.041,0,0,1,.032-.026.621.621,0,0,0,.069-.044.242.242,0,0,1,.046-.033c.031-.017.046-.023.046-.015-.015.1-.032.2-.046.3a.368.368,0,0,0-.192.064.317.317,0,0,1-.173.061H73.1A.262.262,0,0,1,73.012,186.635ZM71.583,185.5h.01c0-.009,0-.025.006-.048a.069.069,0,0,1,.036-.05.015.015,0,0,1-.01-.011c-.005,0-.008-.009-.015-.011l-.017-.006-.01.006Zm.108-.2c-.014,0-.02.009-.02.028s.006.023.02.023.018-.006.018-.023S71.7,185.305,71.69,185.305Zm.069.1c-.016,0-.023.009-.023.025s.006.028.023.028.024-.011.024-.028S71.774,185.4,71.759,185.4Zm.029-.12h.02a.2.2,0,0,0-.02-.024Zm.02-.125.074.019a.217.217,0,0,0,.074.01c0-.026-.008-.042-.02-.046a.193.193,0,0,0-.059-.008h-.033C71.824,185.134,71.812,185.14,71.809,185.158Zm.027,1.009c-.015,0-.02.011-.02.029s.005.024.02.024.015-.01.015-.025S71.846,186.167,71.836,186.167Zm.042-2.529a.016.016,0,0,0-.017.017c0,.015.006.022.017.022s.022-.006.022-.022S71.894,183.638,71.878,183.638Zm.144,1.968a.219.219,0,0,0,.019.089.063.063,0,0,0,.065.039h.013l.009-.006a.063.063,0,0,0,.015-.017.29.29,0,0,0,.038-.054l0-.016,0-.009a.56.56,0,0,0-.076-.018A.34.34,0,0,0,72.022,185.606Zm.068-.628s0,.01.011.018l.005,0v.045a.624.624,0,0,0,0,.075c0,.025,0,.051,0,.07v.042c.01,0,.015,0,.015-.012s.015-.015.019-.034a.191.191,0,0,1,.012-.041.067.067,0,0,1,.022-.011c.006-.005.016-.006.023-.012v-.045a.4.4,0,0,1,.012-.055.214.214,0,0,0,.016-.05.03.03,0,0,0-.02-.029.12.12,0,0,0-.042-.012.173.173,0,0,1-.044-.01.049.049,0,0,1-.018-.042.073.073,0,0,0-.02.034.176.176,0,0,0-.006.042A.122.122,0,0,0,72.09,184.978Zm.038,1.2c.01-.006,0-.01-.009-.01s-.019.005-.013.012.01.016.015.016S72.128,186.2,72.128,186.182Zm.053-1.406c-.015,0-.022.009-.022.025v.022l.022-.024v-.023Zm-.006-1.791c0,.024.01.039.026.043a.152.152,0,0,0,.056.005v-.085a.2.2,0,0,0-.045.01l-.03.013Zm.006,3.174a.328.328,0,0,0,.023.038.06.06,0,0,0,.028.033.093.093,0,0,0,.017-.025l.008-.026v-.025a.081.081,0,0,0-.008-.026c-.006-.012-.013-.016-.017-.016h-.005a.017.017,0,0,1-.015-.008l-.008.008c-.016,0-.023.009-.023.024l-.006.011Zm.023-.513a.128.128,0,0,0,.024-.047.172.172,0,0,0,0-.047v-.029a.038.038,0,0,0-.028-.037c-.006.012-.016.025-.023.038C72.187,185.564,72.2,185.6,72.2,185.647Zm.028-.429c-.016,0-.023.01-.023.028s.006.026.023.025.019-.012.019-.027S72.245,185.218,72.231,185.218Zm0,.223a.051.051,0,0,0,.029-.053h-.029Zm.3.18a.042.042,0,0,0-.045.028.163.163,0,0,0-.009.055.053.053,0,0,0,.046-.026A.277.277,0,0,0,72.527,185.621Zm.037.693c0,.033.015.051.048.051h.1c0-.031-.016-.047-.052-.05S72.589,186.312,72.564,186.313Zm.059-.744c-.006.036-.013.062-.017.084s-.008.044-.01.068a.446.446,0,0,1-.013.052v.043c.005,0,.013.01.023.026a.274.274,0,0,0,.037.041c.015.011.025.01.033,0a.3.3,0,0,0,.012-.114.028.028,0,0,1,.01-.017l.011-.013,0-.031a.449.449,0,0,0-.008-.056c0-.017-.005-.033-.009-.051v-.031C72.665,185.569,72.645,185.569,72.623,185.569Zm.069-.862a.047.047,0,0,0,.028.044v-.045Zm.052,1.381.027-.032a.244.244,0,0,0-.027-.019Zm.193-.059c0,.018,0,.029.015.031l.034,0a.089.089,0,0,1,.044.024.2.2,0,0,1,.032.074c0-.008.005-.019.01-.04s.015-.032.024-.034.005,0,.011,0a.044.044,0,0,0,.017.008v.051c0,.013.016.017.046.016a.746.746,0,0,0-.009-.115c0-.048-.017-.076-.051-.086l-.02.006a.091.091,0,0,1-.028.006v-.089c-.04.045-.08.093-.124.141Zm.1-1.319c.006.02.016.043.025.066l.016.013.017-.013a.052.052,0,0,1,.006-.019.1.1,0,0,0,.009-.029c.009-.03.013-.064.018-.092s-.012-.011-.038.009a.1.1,0,0,1-.06.039A.11.11,0,0,1,73.038,184.71Zm.1,1.169c-.008,0-.011.006-.011.02s0,.016.011.015C73.156,185.888,73.156,185.878,73.14,185.878Zm.03.032a.027.027,0,0,0-.024.026.019.019,0,0,0,.024.02.021.021,0,0,0,.017-.024C73.188,185.918,73.181,185.911,73.17,185.911Zm.023.02c-.012,0-.016.012-.016.029s0,.023.016.023.01-.01.01-.024S73.2,185.93,73.193,185.931Zm.015.075a.146.146,0,0,0,.03-.027l-.03,0Zm.07-1.794c-.006,0-.016.011-.025.03a.23.23,0,0,0-.024.056.368.368,0,0,0-.013.055c0,.017,0,.025.012.025s.013-.009.025-.028a.5.5,0,0,0,.023-.056c0-.017.009-.039.012-.055S73.286,184.212,73.278,184.212Zm.106,1.876a.15.15,0,0,0,.027-.026l-.027,0Z" transform="translate(-71.377 -180.783)"/><path class="e" d="M75.049,185.569a.1.1,0,0,1,.018-.06.059.059,0,0,0,.017-.046.152.152,0,0,0-.013-.064.157.157,0,0,1-.01-.058v-.047a.056.056,0,0,1,.01-.025.086.086,0,0,0,.013-.028c0-.005-.013-.017-.023-.028s-.022-.016-.028-.016c0-.016,0-.042,0-.081s0-.059,0-.072v-.129a.465.465,0,0,1,.023-.136.206.206,0,0,1,.036-.072.135.135,0,0,0,.023-.079c0-.023-.016-.03-.045-.027a.084.084,0,0,0-.022.015.03.03,0,0,1-.02.008l-.01,0a.172.172,0,0,0-.082.038.039.039,0,0,0-.011.036.127.127,0,0,1,.011.03c0,.01-.011.017-.031.019-.005,0-.015-.01-.028-.032a.175.175,0,0,0-.034-.036h0l-.013,0a.388.388,0,0,1-.016.06l-.017.054c0-.006-.008-.009-.016-.012a.025.025,0,0,0-.025,0s-.013.009-.026.028l-.025.024-.012.008h-.013l-.01,0c-.008,0-.024-.005-.05-.025a.137.137,0,0,1-.037-.031l-.011-.008c-.018,0-.03.019-.032.046a.042.042,0,0,1-.043.045h-.016l-.006,0s-.01-.008-.018-.015-.017-.015-.019-.015-.017.008-.028.019-.024.02-.031.02l-.005.005a.162.162,0,0,1-.067-.023l-.081-.032c-.005,0-.013-.012-.025-.02.019,0,.025-.013.025-.038s-.019-.037-.054-.062l-.009,0a.049.049,0,0,0-.032.038.1.1,0,0,0-.01.042s0,.008.009.012l0,.009v.013l0,.012c-.008,0-.012.01-.009.012h-.014a.136.136,0,0,1-.047,0L74,184.821a.049.049,0,0,1,.051-.031.035.035,0,0,0,.037-.038.138.138,0,0,0-.029-.095.121.121,0,0,1-.029-.078.251.251,0,0,1,0-.042c0-.022.013-.032.031-.031v.074s.01-.009.012-.019a.064.064,0,0,0,.012-.015v-.016a.2.2,0,0,0-.005-.039.119.119,0,0,0-.008-.037.34.34,0,0,0-.066.042.134.134,0,0,0-.042.061.144.144,0,0,1-.033-.068.2.2,0,0,1-.008-.07.039.039,0,0,1,.015-.025.05.05,0,0,1,.026-.015.188.188,0,0,1,.033.032.028.028,0,0,0,.017-.025v-.03a.059.059,0,0,1,.005-.027.073.073,0,0,1,.041-.017h.011l.013.015a.036.036,0,0,0,.025.009s.009,0,.013,0a.073.073,0,0,0,.038-.02h.009a.144.144,0,0,1,.062.014.376.376,0,0,0,.069.026.3.3,0,0,1,.067.013c.008.006.012.01.009.015a.037.037,0,0,1-.009.02c0,.005.006.008.024.012a.072.072,0,0,1,.073-.079.11.11,0,0,1,.04,0,.065.065,0,0,0,.036.005h.011l.012-.012.011-.009v-.016c0-.006-.008-.02-.011-.04s-.006-.029-.012-.032v-.018c.005,0,.009,0,.012-.01s.01-.008.011-.01a.128.128,0,0,1,.015.05c0,.023.01.031.03.028a.073.073,0,0,0,.054-.029.092.092,0,0,1,.065-.036.063.063,0,0,1,.048.012c.005.013.017.015.038.013a.31.31,0,0,0,0-.033c0-.012,0-.019.023-.02l.012,0,.02.018c.008.009.013.012.018.012l0,0H74.9a.183.183,0,0,0,.036-.052.244.244,0,0,0,.006-.053.1.1,0,0,0-.006-.033c0-.01-.016-.016-.036-.023.006-.011.011-.017.023-.017a.083.083,0,0,1,.029,0l.033-.008A.022.022,0,0,0,75,184a.138.138,0,0,0-.011-.04c-.008-.017-.018-.036-.027-.055a.186.186,0,0,0-.031-.051c-.013-.014-.024-.02-.03-.02v-.176c.024,0,.033.018.03.05s0,.043.022.046.042-.014.042-.033a.186.186,0,0,0-.005-.059.139.139,0,0,0-.037-.061h.023a.087.087,0,0,1,.044,0,.077.077,0,0,0,.038,0c.028,0,.051-.029.06-.076a.178.178,0,0,1,.054-.1v-.125a.036.036,0,0,0,.038.011c.005,0,.009,0,.016-.013s.016-.012.019-.008a.176.176,0,0,1,.043.025.063.063,0,0,1,.024.051.147.147,0,0,0-.057.016.078.078,0,0,0-.01.05v.033a.618.618,0,0,0,.05-.04s.008,0,.014,0l0,.013s.006.013,0,.026,0,.029,0,.037.015,0,.026-.01a.108.108,0,0,1,.031-.01c.032,0,.05.033.06.1a1.368,1.368,0,0,1,.02.2,1.811,1.811,0,0,0,.019.194c.009.058.028.084.058.08s.032-.011.036-.022l.125-.02,0-.005A.023.023,0,0,0,75.7,184c0-.005.009-.01.015-.015h.011l.014,0c.008.005.019.018.037.03a.24.24,0,0,1,.029.033.061.061,0,0,1,.017-.084.183.183,0,0,1,.085-.045.112.112,0,0,1,.027,0c.01,0,.013,0,.013.006s.013.005.017.022a.285.285,0,0,1,.008.038c.023-.009.033-.019.034-.037a.053.053,0,0,1,.03-.036.078.078,0,0,0,.083.036.163.163,0,0,0,.088-.04.158.158,0,0,1,.089-.045h.044a.212.212,0,0,1,.01.028.017.017,0,0,0,.025,0,.028.028,0,0,0,.012-.008v-.062a.05.05,0,0,0,.043.008.3.3,0,0,0,.089-.008.4.4,0,0,0,.088-.02l-.013.02a.064.064,0,0,1-.011.018l.005.01a.044.044,0,0,0,.038-.032c0-.017.025-.029.053-.036a.078.078,0,0,1-.006.042.07.07,0,0,0-.009.041.21.21,0,0,1,.052,0,.1.1,0,0,0,.052,0c.018,0,.029-.009.031-.017a.053.053,0,0,1,.03-.015l.014,0,0,.016v.012l0,0a.124.124,0,0,0,.026.014c.013.005.015.01.015.014a.161.161,0,0,1-.015.038.113.113,0,0,0-.014.028.186.186,0,0,1-.012.032l.1-.017a.114.114,0,0,1-.009.043.085.085,0,0,0-.014.04v.006a.079.079,0,0,0,.042.006.041.041,0,0,1,.032.014.061.061,0,0,0-.019.013.15.15,0,0,0-.02.016v.018a.2.2,0,0,0,.01.051c.006.03.009.047.016.055v.011c0,.006-.016.015-.043.023s-.054.015-.093.024a.87.87,0,0,1-.1.025.723.723,0,0,0-.073.02h-.011a.1.1,0,0,1-.029-.017c-.013-.01-.019-.012-.028-.011a.12.12,0,0,0-.024.011.088.088,0,0,1-.027.015l-.022.016a.047.047,0,0,1-.02.011l-.01,0a.159.159,0,0,1-.095-.006.117.117,0,0,0-.07-.012v.024a.083.083,0,0,0-.08.092l-.011,0a.192.192,0,0,0-.026-.019c-.013-.01-.019-.014-.027-.013a.024.024,0,0,0-.018.019.1.1,0,0,1-.014.026c-.029.008-.045,0-.054-.01a.228.228,0,0,1-.024-.053c-.006-.023-.014-.04-.019-.058a.034.034,0,0,0-.041-.022h-.006a.039.039,0,0,1-.015.011.011.011,0,0,0-.008.011.115.115,0,0,0,.008.026c.005.015.012.019.015.019h-.012l-.011,0a.074.074,0,0,1-.034-.007.05.05,0,0,0-.032-.011c-.011.03-.025.061-.036.092-.006-.018-.015-.028-.024-.03a.07.07,0,0,0-.037,0,.187.187,0,0,0-.085.036.092.092,0,0,0-.037.073l-.01-.009v-.013a.115.115,0,0,1,.046-.093.264.264,0,0,0,.071-.1s0-.011-.017-.019H75.8a.415.415,0,0,1-.027.037l-.024.027a.348.348,0,0,1-.034.008.039.039,0,0,0-.024.036c0,.015,0,.031,0,.048a.129.129,0,0,1,0,.046c-.005.016-.015.023-.039.026s-.023,0-.023-.018-.009-.022-.024-.02a.061.061,0,0,0-.047.044.832.832,0,0,0-.025.09c-.006.036-.011.071-.016.1a.1.1,0,0,1-.022.069.022.022,0,0,1-.016.013l-.011.008v-.084h-.016a.052.052,0,0,1-.018,0h-.011a.1.1,0,0,0-.068.048.23.23,0,0,0-.012.078l.054-.008c.016,0,.018.016.01.048a.188.188,0,0,0,.047-.033.324.324,0,0,0,.041-.038.318.318,0,0,1,.046.151c0,.056.008.114.008.167v.09a.213.213,0,0,0-.04.08.534.534,0,0,0-.03.088.6.6,0,0,1-.022.075c-.008.023-.013.036-.016.036a.153.153,0,0,1-.052.01.535.535,0,0,0-.057,0c-.019.005-.031.025-.036.053a.088.088,0,0,1-.027.064.794.794,0,0,1-.069-.055.092.092,0,0,0-.069-.027c0,.043,0,.07,0,.086s-.022.029-.069.041a.262.262,0,0,1-.013-.073Zm-.89-1.189c0-.01,0-.012-.01-.012s-.015.005-.015.012A.018.018,0,0,0,74.159,184.38Zm-.025.143.025,0v-.032l-.025,0Zm.079.135c.024-.005.036-.024.036-.062a.191.191,0,0,1-.036,0Zm.235-.262a.061.061,0,0,1,.015.017l.006,0h.005l-.012-.034Zm.233.345a.085.085,0,0,0-.029.061l.006.01a.089.089,0,0,0,.023-.058Zm.381-.9c0,.017.005.027.018.025a.175.175,0,0,0,.037-.005.364.364,0,0,1,.037,0c.011,0,.017-.012.017-.032s-.01-.02-.025-.027a.081.081,0,0,0-.034-.011l-.011,0c-.014.014-.026.028-.039.042Zm.023,1.5a.1.1,0,0,0,.023.052c.01.016.029.022.057.017,0-.023,0-.054,0-.089a.091.091,0,0,0-.044-.081.242.242,0,0,0-.008.051A.061.061,0,0,1,75.084,185.348Zm.016-.2.016,0-.016-.015Zm.07-1.63s-.006,0-.006.018,0,.02.006.015.009,0,.009-.013A.029.029,0,0,0,75.17,183.517Zm.05-.168c.009,0,.012,0,.012-.01s0-.008-.012-.006Zm.058.363h.015V183.7l-.015,0Zm.032-.141c0,.018.006.03.018.031l.039-.04C75.349,183.567,75.33,183.568,75.31,183.571Zm.075.1c-.008,0-.012,0-.012.008s0,.01.012.01a.012.012,0,0,0,.011-.013S75.393,183.668,75.386,183.668Zm.017,1.009a.088.088,0,0,0,.019-.028c0-.013,0-.022,0-.029H75.4Zm.034-.646c-.01,0-.014.008-.014.018s0,.016.014.015.011-.008.011-.018S75.446,184.029,75.438,184.031Zm.071,1.16s0-.005-.008-.005l-.01.009c0,.008,0,.009.01.009S75.511,185.2,75.509,185.191Zm.469-.941c-.009,0-.013,0-.013.012a.012.012,0,0,0,.013.012C75.985,184.263,75.985,184.256,75.977,184.249Zm.118-.178c-.008,0-.012.01-.012.022s0,.018.012.017.011-.006.011-.02S76.1,184.072,76.1,184.072Zm.09.3c-.005,0-.01.009-.01.023s0,.018.01.018.013-.01.013-.024S76.194,184.375,76.186,184.375Zm.033-.386v.037c0,.016,0,.026.02.023a.078.078,0,0,0,.054-.042.178.178,0,0,0,.019-.066c0-.019-.013-.026-.04-.02a.038.038,0,0,0-.025.006c-.008,0-.015.009-.028.017Zm.194.294a.033.033,0,0,0-.011.028c0,.013,0,.017.011.016a.02.02,0,0,0,.019-.022C76.433,184.292,76.425,184.284,76.413,184.284Zm.341-.212a.11.11,0,0,1,.019-.019h-.019Z" transform="translate(-71.181 -180.747)"/><path class="e" d="M79.61,185.446a.345.345,0,0,1,.009-.071.359.359,0,0,0,.009-.084c-.022,0-.036.02-.036.052a.107.107,0,0,1-.038.074.111.111,0,0,1-.022-.033.031.031,0,0,0-.033-.023c-.016,0-.026.014-.032.036a.051.051,0,0,1-.026.043v-.19s0,0-.012-.005a.045.045,0,0,1-.022,0,.025.025,0,0,1-.017.008l-.025.005a.252.252,0,0,1-.01.056c-.008.031-.022.048-.041.051l-.017,0a.5.5,0,0,1-.09.005c-.045.005-.074.009-.092.012a.025.025,0,0,1-.017-.024v-.032a.59.59,0,0,1,0-.064.468.468,0,0,0,.009-.068l-.038.01-.052.02a.128.128,0,0,0-.043.037.034.034,0,0,0,0,.043v-.051a.2.2,0,0,1,0-.057c0-.009.019-.014.046-.02l.011-.031c.008-.017.008-.024,0-.026a.13.13,0,0,1-.031,0h-.03l-.013-.008-.01-.013a.025.025,0,0,0,.023-.027l-.008,0a.133.133,0,0,0-.093.057.244.244,0,0,0-.027.123.528.528,0,0,0,0-.061.333.333,0,0,0-.014-.067l-.008-.008-.011-.009-.014.012-.014.015-.013.009h-.019v-.118l-.006,0-.019,0a.413.413,0,0,0-.074.046.066.066,0,0,0-.029.071.052.052,0,0,0-.024.006.066.066,0,0,0-.029.01c-.041.006-.065,0-.079-.019a.158.158,0,0,1-.018-.09l.046-.008v-.045a.176.176,0,0,1-.085-.006c-.025-.01-.039-.037-.039-.079V184.9a.063.063,0,0,1,.011-.027l.011-.022a.044.044,0,0,0-.019-.02c-.011-.005-.017-.009-.02-.008a.1.1,0,0,0,.04-.076c0-.033-.019-.052-.056-.057a.533.533,0,0,0-.1,0l-.05.01a.038.038,0,0,1,.032.039.443.443,0,0,1,0,.061.2.2,0,0,1-.032.062c-.023.031-.051.067-.081.1s-.06.07-.088.1a.156.156,0,0,1-.065.052l-.011,0a.116.116,0,0,1-.014-.044.037.037,0,0,0-.026-.029.085.085,0,0,0-.037.06c-.008.026-.012.055-.019.081a.193.193,0,0,1-.037.066.093.093,0,0,1-.094.023v.032a.1.1,0,0,0,.067.1c-.009.07-.016.143-.022.213l-.017.022a.1.1,0,0,0-.028.029h0c-.022,0-.031-.007-.026-.036s-.006-.033-.029-.029a.016.016,0,0,1-.01.008.024.024,0,0,0-.013.006.233.233,0,0,1-.045.047.484.484,0,0,1-.045.04.258.258,0,0,1-.072.03.192.192,0,0,1-.074.017.016.016,0,0,0-.005.014v.012a.061.061,0,0,0,.014.043.066.066,0,0,1,.013.041.134.134,0,0,1-.017.071.126.126,0,0,1-.055.042.031.031,0,0,1-.033-.012.066.066,0,0,0-.041-.006.053.053,0,0,0-.042.024.082.082,0,0,1-.055.023.235.235,0,0,1-.047.008c-.014,0-.024-.013-.024-.04a.257.257,0,0,1,.051-.129,1.264,1.264,0,0,0,.075-.116.335.335,0,0,0,.015-.046.178.178,0,0,0,.01-.044.313.313,0,0,1,.01-.036.042.042,0,0,1,.014-.016c.008,0,.012-.009.022-.013a.361.361,0,0,0,.032-.048c.028-.053.051-.1.073-.154a.859.859,0,0,1,.075-.146,1.457,1.457,0,0,1,.1-.144c.038-.053.072-.106.106-.163a1.346,1.346,0,0,0,.088-.163.382.382,0,0,0,.038-.163.035.035,0,0,0-.022-.031.322.322,0,0,0-.043-.022.205.205,0,0,1-.045-.033.075.075,0,0,1-.023-.057v-.005a.169.169,0,0,1,.011-.053c0-.026.01-.037.013-.037s.029-.005.045-.009a.307.307,0,0,0,.015.075.027.027,0,0,0,.019.018.055.055,0,0,0,.027-.01c.008-.006.023-.006.043,0l.026.03a.116.116,0,0,0,.029.029l.012,0a.037.037,0,0,0,.026-.023.077.077,0,0,0,.008-.034c0-.02,0-.033-.006-.041a.122.122,0,0,0-.009-.026.041.041,0,0,1-.01-.028.41.41,0,0,1,0-.061.058.058,0,0,1-.056-.037.094.094,0,0,0-.045-.052v.028a.143.143,0,0,0,.025.086.18.18,0,0,1,.02.081.04.04,0,0,1-.045-.01.124.124,0,0,1-.018-.036.228.228,0,0,0-.02-.039.039.039,0,0,0-.041-.011.091.091,0,0,0-.037.016.094.094,0,0,1-.032.019c-.015,0-.024-.008-.029-.032a.077.077,0,0,0-.026-.043l-.012,0h-.013l-.026.015a.153.153,0,0,1-.03.013l-.012,0-.011,0a.248.248,0,0,0-.017-.042.177.177,0,0,0-.028-.051.149.149,0,0,0-.038-.032.065.065,0,0,0-.059.009.264.264,0,0,0-.038-.085.209.209,0,0,0-.041-.048.508.508,0,0,0-.051-.037.207.207,0,0,1-.065-.046.083.083,0,0,1-.019-.074.22.22,0,0,0,0-.082.135.135,0,0,0-.046-.078c-.028-.023-.04-.041-.04-.06s.006-.03.02-.032.026-.017.026-.05,0-.052-.011-.053l-.053.005v.1a.06.06,0,0,0-.058.047.273.273,0,0,0-.01.069l-.029,0v-.17c-.037-.005-.056-.022-.056-.048a.049.049,0,0,1,.046-.053v-.123c.01,0,.016,0,.016,0l.01.01.013,0,.022,0a.019.019,0,0,0,.013-.006v-.183a.506.506,0,0,0,.051-.01c0,.008,0,.025.006.054a.059.059,0,0,0,.04.047l.04-.053a.06.06,0,0,1,.024.038c.005.019.012.037.014.046l.082-.06a.066.066,0,0,0,.015.054c.015.019.033.04.052.059s.04.036.057.051a.228.228,0,0,1,.044.033.2.2,0,0,0,.043,0,.163.163,0,0,1,.043,0c.012.005.017.011.017.015v.018a.018.018,0,0,0,.008.014.106.106,0,0,0,.031,0c.005-.008.011-.011.013-.015l.012-.013h.01a.028.028,0,0,1,.031.014.1.1,0,0,1,.026.041c.009.014.016.03.025.045a.041.041,0,0,0,.032.027l.005,0a.082.082,0,0,0,.053-.036.1.1,0,0,1,.062-.036c.031,0,.05,0,.059.011a.157.157,0,0,1,.023.051.106.106,0,0,0,.023.05c.011.013.028.016.06.011l.02-.014.022-.013a.064.064,0,0,1,.043.07l0,0,0,.008v0l-.012-.013c-.013-.01-.019-.013-.025-.012h-.013a.056.056,0,0,0,.024.045.163.163,0,0,0,.065.018.254.254,0,0,0,.07,0,.326.326,0,0,0,.064-.009l.067-.013c.016-.006.033-.028.054-.066s.045-.082.078-.134a1.205,1.205,0,0,1,.093-.153.647.647,0,0,1,.125-.124.1.1,0,0,0,.029-.044.127.127,0,0,0,.011-.047.137.137,0,0,1,.034.036c.016.018.025.03.03.037-.037.019-.069.039-.1.059,0,.026.01.054.013.078l.156-.028v-.115a.568.568,0,0,0,.057-.011c.03,0,.045-.019.045-.042v-.01c0-.006,0-.009-.008-.012l-.015-.008,0-.012,0-.01c.038-.008.074-.013.109-.022.013,0,.019-.016.02-.041s0-.04,0-.042.027-.005.041-.008c.008.027.016.061.025.1a.053.053,0,0,0,.071.045c.023,0,.039-.011.042-.018a.061.061,0,0,1,.038-.018l.005,0a.568.568,0,0,1,.014.058.353.353,0,0,1,.011.056v.017a.19.19,0,0,1-.014.085.12.12,0,0,1-.032.048.189.189,0,0,1-.045.041.316.316,0,0,0-.06.064.188.188,0,0,0-.016.093.107.107,0,0,1-.038.088.091.091,0,0,1-.017-.043.053.053,0,0,0-.024-.039.159.159,0,0,1-.023.08.127.127,0,0,1-.037.039.222.222,0,0,0-.039.039.1.1,0,0,0-.026.059.277.277,0,0,1-.01.05c0,.022-.01.046-.017.071a.355.355,0,0,1-.031.068.056.056,0,0,1-.04.034l0,0a.124.124,0,0,1-.015-.019.074.074,0,0,1-.01-.024.2.2,0,0,0-.064.126.115.115,0,0,0,.032.085.405.405,0,0,0,.064.055.529.529,0,0,1,.068.051.106.106,0,0,1,.027.071v0a.055.055,0,0,1-.01.029l-.013.023v.017a.132.132,0,0,0,.013.02.05.05,0,0,1,.01.019l0,0,.018,0a.064.064,0,0,0,.01-.023.118.118,0,0,0,.006-.026l.012,0h.011a.175.175,0,0,1,.136.094.459.459,0,0,0,.191.194c.032.023.07.043.1.065a.772.772,0,0,1,.1.067.335.335,0,0,1,.069.062s.005.018.008.045.009.037.016.037a.041.041,0,0,0,.03.006.034.034,0,0,0,.026-.016.577.577,0,0,1,.173.177.528.528,0,0,1,.05.247c-.023,0-.039-.013-.06-.05a.083.083,0,0,0-.094-.042.2.2,0,0,0-.072.031.086.086,0,0,0-.03.075.033.033,0,0,1,.016,0c.006-.012.011-.025.017-.038l.016-.009.006.005c-.01.034-.009.058.006.067a.14.14,0,0,0,.052.014l.061,0c.018,0,.03.009.03.024h-.008a.213.213,0,0,1-.027.037.13.13,0,0,1-.036.023l-.016-.009-.024-.006c-.018,0-.037.006-.057.011a.491.491,0,0,1-.05,0,.071.071,0,0,1-.042-.018A.107.107,0,0,1,79.61,185.446Zm-2.355.386a.019.019,0,0,0-.016.018c0,.013.006.019.016.015a.019.019,0,0,0,.019-.019A.014.014,0,0,0,77.256,185.832Zm.059-.1c-.009,0-.013.007-.013.022s0,.022.013.019.015-.012.015-.025S77.326,185.733,77.315,185.736Zm.043-.128a.018.018,0,0,0-.015.019c0,.011,0,.016.015.015s.019-.009.019-.022S77.372,185.607,77.358,185.608Zm.042-.087c0,.006,0,.006,0,.006s0,.02.018.019v-.057c-.014,0-.018.012-.018.026Zm.044-2.027.039-.006a.048.048,0,0,0-.015-.014l-.013,0-.011.006Zm0,2.155c.013,0,.027-.005.039-.006a.06.06,0,0,0-.01-.031.036.036,0,0,1-.005-.022l0-.005c-.006,0-.009,0-.009,0a.011.011,0,0,0-.011.013Zm.057-.136a.384.384,0,0,0,.005.068.073.073,0,0,0,.04.048v-.185l-.023-.018a.039.039,0,0,0-.024.046C77.5,185.5,77.5,185.511,77.5,185.513ZM77.524,184a.01.01,0,0,0,.01.009l.013.01v-.023l-.012-.012c0-.005-.009-.009-.011-.009l0,.014Zm.136,1.482c0,.018.006.031.023.031v-.037Zm.42-1.335a.036.036,0,0,0,.04.014v-.044C78.107,184.116,78.095,184.128,78.08,184.145Zm.106.436a.079.079,0,0,0,.012.044.033.033,0,0,0,.037.013c.006,0,.013-.009.028-.022a.582.582,0,0,0,.05-.052c.016-.02.032-.041.047-.062a.113.113,0,0,0,.018-.05c0-.014,0-.022-.016-.022a.1.1,0,0,0-.033,0c-.012,0-.026.017-.042.053a.152.152,0,0,1-.1.075Zm.023-.374a.02.02,0,0,0-.018.023c0,.012.006.02.018.017s.011-.01.011-.025S78.214,184.2,78.208,184.208Zm.169-.165c0,.016.005.023.018.022a.251.251,0,0,0,.042,0,.313.313,0,0,0,.041-.005V184A.471.471,0,0,0,78.377,184.043Zm.033.473c0,.008,0,.018,0,.039s.011.027.024.024l.019,0,.02-.025v-.008c0-.018-.009-.028-.025-.028A.263.263,0,0,0,78.41,184.516Zm.146.533a.025.025,0,0,0-.013.025c0,.013.005.02.013.017a.023.023,0,0,0,.018-.025C78.575,185.054,78.57,185.049,78.557,185.049Zm.1-.85.025,0v-.02a.063.063,0,0,0-.025,0Zm.066-.348v-.009l-.025,0A.064.064,0,0,0,78.726,183.851Zm-.025.49.025,0v-.025a.118.118,0,0,1-.025.006Zm.038-.831q-.013.006-.013.039v.037l.013,0Zm-.013.993a.056.056,0,0,0,.013.04V184.5Zm.013-.255c0,.033.023.045.059.04,0-.006,0-.023,0-.045s-.013-.039-.028-.039l-.018.023C78.742,184.238,78.739,184.242,78.739,184.248Zm.073.282c-.012,0-.014,0-.014.02s0,.02.014.015.011-.009.011-.019S78.819,184.529,78.812,184.53Zm.018-1,.017,0-.017-.013Zm.017.908c0-.01,0-.013-.006-.013s-.011.01-.011.015,0,.009.011.009S78.848,184.446,78.848,184.439Zm.047.178a.037.037,0,0,0,.022-.039v-.1c0-.032-.015-.043-.04-.038l0,.005C78.879,184.506,78.887,184.561,78.9,184.617Zm0-.256.019,0v-.022Zm.019-.544c-.01,0-.013.011-.013.026s0,.02.013.018.015-.01.015-.024S78.924,183.816,78.914,183.817Zm.038-.536.052-.009c0-.03-.016-.043-.045-.038h-.006Zm0,1.467a.367.367,0,0,0,.045-.009v-.023c-.015,0-.031.006-.045.008Zm.045-.111.016,0v-.022Zm.118.139-.04.005a.054.054,0,0,0-.04.031l.08-.016Zm-.062.253a.172.172,0,0,0,.031-.005c0-.011-.012-.017-.031-.028Zm.045-.138.017,0a.105.105,0,0,0-.017-.019Zm.08.2v-.041a.228.228,0,0,1-.022.026A.06.06,0,0,1,79.178,185.094Zm.015.206c.005-.009,0-.013,0-.009s-.015,0-.011.01,0,.011.011.01Zm.046-.22c-.008,0-.012.014-.012.027s0,.02.012.016.014-.008.014-.02S79.249,185.079,79.24,185.08Zm.04-1.884c-.009,0-.014.008-.014.022s.005.019.014.017.012-.008.012-.023S79.289,183.2,79.28,183.2Zm0,2.053a.068.068,0,0,1,.011-.03.157.157,0,0,0,.008-.026v-.01a.019.019,0,0,0,0-.014.137.137,0,0,1-.024,0Zm.128-.111c.005,0,.014,0,.022-.005v-.022a.043.043,0,0,1-.022,0Zm.04-.2c0,.029.014.041.044.034v-.044A.243.243,0,0,0,79.448,184.94Z" transform="translate(-70.948 -180.77)"/><path class="e" d="M80.14,185.221l0-.01,0-.01v-.012a.105.105,0,0,0-.008-.037c-.005-.015-.011-.028-.022-.031a.078.078,0,0,0-.018-.039.164.164,0,0,1-.018-.029v-.017c0-.012-.009-.025-.016-.042a.1.1,0,0,0-.013-.033s-.01-.016-.033-.037-.033-.033-.034-.04a.038.038,0,0,1-.006-.024v-.071a.046.046,0,0,1,.006-.026.21.21,0,0,1,.015-.037.457.457,0,0,1,.028-.045.054.054,0,0,0,.018-.015l.006-.006a.127.127,0,0,1,.058-.032.608.608,0,0,1,.06-.019.25.25,0,0,1,.037-.016.235.235,0,0,0,.037-.02.549.549,0,0,0,.068-.012.1.1,0,0,0,.041-.018.157.157,0,0,1,.033-.018.183.183,0,0,0,.023-.028.162.162,0,0,0,.024-.028.357.357,0,0,1,.059-.022.6.6,0,0,0,.06-.026l.034-.019.033-.016c.028-.005.058-.01.086-.016a.292.292,0,0,0,.055-.013.213.213,0,0,1,.024.037c.013.016.022.029.03.03l.023,0a.1.1,0,0,0,.028-.006s0-.011.017-.024a.076.076,0,0,0,.022-.038l.013-.028a.361.361,0,0,1,.01-.04c.015-.01.03-.022.047-.031s.018-.016.034-.032a.133.133,0,0,1,.039-.026l.044.014a.105.105,0,0,0,.016.012l.012.006c.005,0,.013-.006.024-.013l.024-.017.038-.02a.171.171,0,0,1,.037-.016c0-.009.018-.02.044-.039s.044-.026.054-.03l.042,0a.126.126,0,0,0,.046-.012.081.081,0,0,0,.012-.014.051.051,0,0,0,.012-.018l.011,0h.011l.024.013a.143.143,0,0,0,.023.006l.051-.008s.006.008.019.011a.091.091,0,0,0,.031,0l.121-.022.108-.018a.217.217,0,0,0,.06-.029.464.464,0,0,0,.066-.043s.008-.01.01-.018.008-.017.013-.026a.052.052,0,0,1,.022.009.037.037,0,0,0,.023.008l.017,0h.006a.084.084,0,0,1,.025-.029c.015-.012.02-.02.02-.025l.006-.008,0-.005c0,.006,0,.025.005.048a.109.109,0,0,0,.014.05.044.044,0,0,0,.015.03.078.078,0,0,0,.018.014c.1-.014.2-.031.294-.045.009-.016.019-.046.039-.083a.458.458,0,0,1,.034-.072.061.061,0,0,1,.018-.029l.012,0,.015,0a.238.238,0,0,0,.079.009h.067a.092.092,0,0,0,.031.01h.034c.044,0,.083-.011.126-.018a.038.038,0,0,0,.006.023l.009.015c0,.009.006.028.013.061a.288.288,0,0,1,.012.061l.036.027c.025.017.031.027.031.03a.244.244,0,0,1,.036.034.159.159,0,0,1,.022.029c-.009.018-.018.034-.027.053s.009.014.027.017l.042.005v.155c.016.005.023.014.023.026a.057.057,0,0,1,.014.018.067.067,0,0,0,.014.02l.01,0,.012-.005c0-.009.011-.026.025-.052l.02-.05a.1.1,0,0,1,.027-.034c.013-.015.02-.022.027-.022l.017,0c.006,0,.018,0,.028,0a.219.219,0,0,1-.012.051.245.245,0,0,0-.016.051.4.4,0,0,0-.025.052c-.012.023-.019.042-.023.046a.115.115,0,0,1-.013.04l-.011.036c0,.009-.014.016-.031.02a.1.1,0,0,1-.036.013c-.009,0-.016-.012-.026-.023a.072.072,0,0,0-.025-.022.176.176,0,0,0-.044,0,.3.3,0,0,0-.041,0,.092.092,0,0,0-.014-.032l0-.01-.013-.01-.012,0-.018,0s-.011.005-.022.013a.065.065,0,0,1-.025.016l-.009,0H82.91a.128.128,0,0,1-.043-.005.141.141,0,0,0-.034-.008c-.016,0-.024,0-.024-.016a.081.081,0,0,0,.027-.014.191.191,0,0,0,.023-.018.093.093,0,0,1,.017-.029.073.073,0,0,0,.008-.024c0-.006,0-.009-.008-.013l-.017-.009a.11.11,0,0,0-.026.005c-.008,0-.016,0-.024,0a.326.326,0,0,0-.031.045c-.017.029-.03.05-.038.061l-.012.024a.194.194,0,0,0-.01.025.05.05,0,0,0-.015.017.022.022,0,0,0-.009.016.117.117,0,0,0-.024-.03c-.011-.011-.019-.016-.029-.014h-.005l-.017,0a.2.2,0,0,1-.011.038.119.119,0,0,0-.01.034.582.582,0,0,0-.038.045.474.474,0,0,0-.033.045.1.1,0,0,0-.025-.027.206.206,0,0,1-.026-.017l-.01,0a.026.026,0,0,1-.013,0l-.011,0a.044.044,0,0,0-.018.006l-.015.005-.023.026c-.012.015-.024.025-.03.033a.1.1,0,0,1-.012.025l-.005.011,0,.006h-.01l-.013,0-.034.023a.122.122,0,0,1-.033.016.053.053,0,0,1-.027-.011c-.013-.005-.018-.01-.025-.008l-.046.008a.126.126,0,0,1-.051.009l-.01-.016a.089.089,0,0,1-.013-.023c0-.019-.008-.027-.023-.024l-.006,0-.017,0-.023.014a.177.177,0,0,0-.022.023.139.139,0,0,0-.038.013.234.234,0,0,1-.036.017.364.364,0,0,0-.059.016c-.028.011-.061.02-.095.033a.983.983,0,0,0-.1.033.255.255,0,0,1-.054.017.372.372,0,0,0-.058.032.24.24,0,0,1-.06.034.091.091,0,0,1-.051.011.279.279,0,0,1-.047.006c-.014.019-.033.04-.048.059l-.029.006a.245.245,0,0,0-.041.006.063.063,0,0,0-.025.023.138.138,0,0,0-.019.024l-.056.015a.235.235,0,0,1-.053.01c-.022,0-.042.009-.061.011a.143.143,0,0,1-.042,0,.227.227,0,0,1-.051,0c-.026,0-.042,0-.052,0l-.005,0-.017,0a.349.349,0,0,1-.034.033.127.127,0,0,1-.032.026l-.018,0,0,0-.026-.005a.125.125,0,0,1-.028-.009.09.09,0,0,1-.03-.006.111.111,0,0,0-.038-.005l-.012,0h-.01l-.01.014-.014.015a.058.058,0,0,0-.014.026c0,.013-.008.025-.014.028l-.005.011,0,.009-.013.012c-.022.006-.04.01-.058.016s-.034.013-.047.019a.24.24,0,0,0-.036.01h-.011l-.013,0a.109.109,0,0,1-.024-.01h-.023a.057.057,0,0,0-.026.023.113.113,0,0,0-.023.033c-.079.016-.156.029-.236.042,0-.008.013-.026.025-.054s.017-.048.02-.058v-.01l0-.009Zm.09-1.434c.005-.006.005-.02.009-.044a.593.593,0,0,0,.008-.068c0-.024.005-.048.006-.071s0-.042,0-.053a.074.074,0,0,0-.009-.026c-.008-.01-.011-.025-.019-.038a.239.239,0,0,1-.014-.042.106.106,0,0,1-.01-.029.14.14,0,0,1,.01-.037.1.1,0,0,1,.017-.042l.025-.014a.254.254,0,0,0,.023-.017.094.094,0,0,0,.031-.026.147.147,0,0,1,.043-.027l.009-.006h.012c.015.011.03.023.046.032a.1.1,0,0,0,.056.016.235.235,0,0,1,.064.014l.011,0a.03.03,0,0,0,.013-.009.465.465,0,0,1,.022-.045l.023-.038c.009-.005.022,0,.043,0a.215.215,0,0,0,.043.005l0-.016a1.454,1.454,0,0,0-.009-.067c.009-.019.016-.033.026-.033l.019-.009h.023c.008,0,.012.005.024.016s.022.022.03.019.006.005.01.005l.018,0,.023-.005a.027.027,0,0,0,.017-.009c.008,0,.015-.008.025-.013l.019-.012a.087.087,0,0,0,.014-.033l.015-.029c.013,0,.018-.009.018-.024l.01,0,.018-.006.013.026a.07.07,0,0,0,.014.024c0,.006.005.014.018.026a.107.107,0,0,1,.024-.033.289.289,0,0,0,.02-.032s.01-.01.016-.023a.3.3,0,0,1,.012-.03c0,.006.005.013.01.026s.01.017.014.016l.005,0,.012,0c.005,0,.006,0,.006-.008a.021.021,0,0,0,.023-.023v-.024c0-.01-.01-.017-.023-.011a.159.159,0,0,1,.045-.039c.022-.016.038-.026.044-.032l.017,0h.012s.01.012.013.024a.027.027,0,0,0,.012.022l.013.006a.019.019,0,0,0,.016.009l0,0,.012,0c.013-.005.044-.017.087-.038a.426.426,0,0,0,.076-.038.063.063,0,0,1,.025-.013.092.092,0,0,0,.026-.017l.023,0c.011,0,.02,0,.028,0a.625.625,0,0,1,.048-.057c.022-.027.037-.047.043-.056a.081.081,0,0,0,.019.009c.011,0,.018.008.026,0a.045.045,0,0,0,.023-.013.046.046,0,0,1,.03-.016l0,0,.017,0,.024.008a.121.121,0,0,0,.024.008h.017l.005,0a.089.089,0,0,0,.033-.017c.018-.012.039-.025.058-.039a.584.584,0,0,0,.06-.04.258.258,0,0,0,.036-.025.452.452,0,0,1,.061-.023.79.79,0,0,0,.08-.029c.011,0,.022-.005.03-.005l.016,0s.01.008.03.013l.022.009a.527.527,0,0,0,.084-.009.414.414,0,0,0,.08-.019.013.013,0,0,0,.011.009l.013.013a.025.025,0,0,1,.015,0h.012a.081.081,0,0,0,.014-.029.132.132,0,0,0,0-.026.033.033,0,0,0,.018-.014l.009-.008s.01,0,.013-.009l.013.005.01,0,.011.01a.088.088,0,0,0,.013.025l.01.022h.012l.012,0,.013-.017.016-.019.089-.015a.091.091,0,0,1-.011.03.116.116,0,0,0-.011.034v.019l.018.022.028.022h.027c.015,0,.023.006.023.015a.116.116,0,0,0,.009.032l.016.04.01.008s.009,0,.017,0a.053.053,0,0,0,.006.024.04.04,0,0,1,.009.019.486.486,0,0,0,.046-.03.055.055,0,0,0,.009.027.1.1,0,0,0,.022.02.05.05,0,0,0,.019.012.257.257,0,0,0,.026.012c-.008,0-.016.018-.026.044l-.019.046v.012l.005.011h.01a.237.237,0,0,0,.03-.01.148.148,0,0,0,.027-.023c.015.03.029.061.042.09a.2.2,0,0,1,.025-.016.053.053,0,0,1,.026-.013.064.064,0,0,0,.022-.005v.054a.33.33,0,0,0-.047.013.118.118,0,0,0-.05.018l-.074.083,0,.028a.079.079,0,0,1-.013.026l-.052,0c-.025,0-.04.005-.04.009a.1.1,0,0,0-.043.016.123.123,0,0,0-.034.02s-.008.006-.016.022a.06.06,0,0,0-.008.026c-.009.009-.016.018-.025.028h-.011l-.011,0a.082.082,0,0,0-.023-.009c-.012,0-.019,0-.022-.007a.442.442,0,0,0-.073,0,.349.349,0,0,1-.072,0,.188.188,0,0,1-.034-.026c-.017-.013-.03-.026-.038-.03a.176.176,0,0,0-.013.017.02.02,0,0,0-.011.016l-.023,0a.146.146,0,0,1-.023,0l-.034-.012a.145.145,0,0,0-.04-.005c-.022.029-.044.054-.066.081l-.006,0-.013,0-.011,0a.042.042,0,0,1-.023,0,.162.162,0,0,1-.024-.006l-.022,0-.032,0a.039.039,0,0,1-.014.019l-.017.009a.146.146,0,0,1-.023,0,.027.027,0,0,1-.018,0,.035.035,0,0,0-.015,0s-.012,0-.022-.016-.016-.017-.025-.015h-.015a.04.04,0,0,0-.023,0l-.029.011a.14.14,0,0,0-.038.025.187.187,0,0,1-.037.029l-.032,0-.055.009c-.017,0-.034.005-.051.01l-.029.005a.523.523,0,0,0-.052.014c-.03.01-.058.016-.089.025a.673.673,0,0,0-.089.022c-.026.01-.046.013-.052.016-.025,0-.048.009-.075.013a.229.229,0,0,1-.046.02c-.019.009-.034.013-.044.018a.129.129,0,0,0-.023.015c-.012.008-.02.016-.022.016a.114.114,0,0,1-.037.01.125.125,0,0,0-.038,0,.362.362,0,0,0-.034.02c-.019.008-.032.013-.041.015a.234.234,0,0,1-.067.014l-.069.01a.275.275,0,0,0-.039.036c-.02.018-.03.03-.034.03a.18.18,0,0,0-.039.009c-.022.005-.043.012-.068.016a.537.537,0,0,1-.074.022.337.337,0,0,1-.054.013l-.148.025s-.009.006-.023.022l-.02.017-.05.012-.059.016c-.018,0-.037.005-.054.008a.1.1,0,0,1-.026,0C80.246,183.805,80.239,183.8,80.23,183.787Zm.212-.385a.126.126,0,0,1,.028,0v-.03l-.028.006Zm.1,0,.024,0v-.018l-.024,0Zm.263-.188s-.008,0-.01.012a.393.393,0,0,0,0,.041.265.265,0,0,0,0,.034c0,.012.005.012.01.008a.078.078,0,0,0,.01-.045A.1.1,0,0,0,80.8,183.212Zm.233,1.19a.142.142,0,0,0,.024-.027.076.076,0,0,1-.024.005Zm.263.027.008.005a.043.043,0,0,0,.022.008l0,0,.012-.006.009-.008.012-.014.009-.014-.009-.009v0c0-.005,0-.009-.012-.012l-.009-.008h-.016c-.01.009-.016.018-.025.027A.1.1,0,0,0,81.3,184.429Zm.029-.176c-.013,0-.022,0-.022.016s.009.013.022.008.009,0,.009-.011A.015.015,0,0,0,81.325,184.253Zm.134.054c-.011,0-.018.008-.018.023s.008.02.018.017a.023.023,0,0,0,.024-.023C81.483,184.308,81.474,184.3,81.459,184.307Zm.1-.206a.022.022,0,0,0-.022.025c0,.015.008.022.022.019s.017-.011.017-.027S81.57,184.1,81.556,184.1Zm.921-.324c-.009.009-.025.028-.048.057s-.038.046-.047.047-.005,0-.018.013a.011.011,0,0,1-.011.008v-.016l.005-.015a.213.213,0,0,1,.04-.045l.034-.043.023,0Zm-.045.125v.022l-.022-.019A.08.08,0,0,1,82.432,183.9Zm.023-1.164c-.008,0-.011,0-.011.015s0,.014.011.009.013-.005.013-.012S82.463,182.738,82.454,182.738Zm.092,1.333c-.005,0-.011.011-.011.03s.005.024.011.022a.026.026,0,0,0,.023-.029C82.568,184.079,82.561,184.07,82.546,184.071Zm.12-1.529c0-.011,0-.013-.01-.012s-.014.005-.014.017l.014.006A.012.012,0,0,0,82.665,182.542Zm.218-.052c.005,0,.01,0,.01,0l-.01.013a.012.012,0,0,1-.013-.013C82.87,182.485,82.876,182.484,82.883,182.49Zm.067,1.878c0-.006,0-.013-.009-.009a.014.014,0,0,0-.016.014c.006.006.01.01.016.009S82.95,184.378,82.95,184.369Zm.067-.5v.022l-.015,0v-.022Zm.074.529v-.02l-.017,0Z" transform="translate(-70.715 -180.813)"/><path class="e" d="M84.71,184.8a.211.211,0,0,0-.041.022.167.167,0,0,1-.05.02c-.009,0-.019-.017-.041-.044a.231.231,0,0,0-.037-.045c-.014,0-.033-.013-.067-.022a.154.154,0,0,0-.054-.016.089.089,0,0,0-.027.016.124.124,0,0,1-.03.013.343.343,0,0,1-.128-.012.191.191,0,0,1-.069-.038.419.419,0,0,1-.047-.051.27.27,0,0,0-.075-.059.036.036,0,0,0-.033.039.516.516,0,0,0,0,.071.273.273,0,0,1,0,.068.044.044,0,0,1-.044.038l-.005-.018c0-.011,0-.015-.008-.015s-.019-.017-.026-.024a.205.205,0,0,1-.025-.027V184.7a.194.194,0,0,1,.025-.09.218.218,0,0,1,.06-.08l-.016,0c-.057.009-.092.024-.1.051a.17.17,0,0,0-.023.087c0,.033,0,.062,0,.088a.04.04,0,0,1-.031.05c-.032-.016-.052-.033-.054-.057a.306.306,0,0,1-.006-.083v-.046a.048.048,0,0,1,.006-.029.121.121,0,0,1,.008-.037.058.058,0,0,0,.014-.036.413.413,0,0,1-.046-.028c-.026-.023-.041-.033-.045-.039a.163.163,0,0,1,.028-.052.191.191,0,0,1,.042-.048.3.3,0,0,0,.033-.128,1.066,1.066,0,0,1,.02-.14c.042.015.071,0,.082-.036a.307.307,0,0,0,.017-.1l.073-.01c.019-.075.036-.151.056-.227.038,0,.073-.008.11-.013a.175.175,0,0,0-.017-.042c-.012-.017-.013-.031-.006-.033a.26.26,0,0,1,.054-.078c.029-.031.052-.048.065-.048v.02l-.014.028c-.011.015-.015.024-.022.031v.037a.308.308,0,0,0,.084-.089.971.971,0,0,0,.078-.136,1.2,1.2,0,0,0,.057-.146.39.39,0,0,0,.024-.117c.022,0,.05,0,.072-.005a.532.532,0,0,1,.006-.054.476.476,0,0,0,.008-.08c0-.025,0-.051,0-.079a.085.085,0,0,0-.029-.053.46.46,0,0,1-.046.036.383.383,0,0,1-.045.026l-.011.006a.263.263,0,0,1-.113-.058,2.123,2.123,0,0,1-.169-.138c-.058-.053-.113-.1-.167-.148s-.088-.076-.1-.09a.946.946,0,0,0-.087-.045h-.008c-.009,0-.018.011-.036.019l-.034.024a.716.716,0,0,1-.179-.17.777.777,0,0,1-.1-.171.461.461,0,0,1-.031-.152.18.18,0,0,1,.028-.109.293.293,0,0,1-.032.016.082.082,0,0,1-.038.015c0,.006-.005.006-.009.006l-.018,0v-.112a.753.753,0,0,0,.108-.023c.015-.006.027-.012.031-.02a.109.109,0,0,0,0-.038.105.105,0,0,1,.033-.062.239.239,0,0,1,.067-.055c.026-.019.043-.026.046-.017l.036.017.211-.225c-.005.108-.008.214-.012.32a.142.142,0,0,0,.034-.005.658.658,0,0,0,.036-.081c.014-.039.031-.084.051-.133s.042-.09.062-.126.036-.056.051-.057a.06.06,0,0,0,0,.023.034.034,0,0,1,.006.024.061.061,0,0,0,.005.026c0,.025.008.045.012.068a.21.21,0,0,1,.015.043c.005.024.011.037.013.044l.011,0a.065.065,0,0,0,.043-.027.193.193,0,0,0,.033-.06.5.5,0,0,0,.026-.061.212.212,0,0,0,.005-.047s-.014-.01-.053-.023-.057-.025-.059-.031a.33.33,0,0,1,.051-.027l.011,0h.015a.272.272,0,0,1,.032-.034c.013-.016.023-.025.026-.029a.246.246,0,0,1,.046.076c.016.037.03.069.042.1s.027.064.042.093.025.039.036.039a.066.066,0,0,1,.014-.009l.015-.017a.078.078,0,0,1,.016-.014.442.442,0,0,0-.016-.057.234.234,0,0,1-.015-.059l-.006-.013a.055.055,0,0,1,0-.02.083.083,0,0,1,.057.013.052.052,0,0,0,.043.012l.022,0a.075.075,0,0,0-.005-.042.7.7,0,0,1-.024-.082c-.006-.034-.015-.059-.022-.084l-.013-.04c.005-.005.016,0,.032.016a.507.507,0,0,1,.055.054c.022.019.05.047.083.083,0-.008,0-.022.009-.048a.087.087,0,0,0,0-.044c-.005,0-.024-.015-.059-.038a.628.628,0,0,1-.06-.042.153.153,0,0,1,.059-.043.184.184,0,0,1,.06-.025v.043a.066.066,0,0,1,.037.006.075.075,0,0,0,.027.01c.005,0,.012,0,.019-.011A.314.314,0,0,0,84.8,181a.486.486,0,0,0,.047.084.09.09,0,0,0,.078.045.189.189,0,0,0,.05-.023.964.964,0,0,0,.1-.055c.041-.02.076-.038.108-.056a.141.141,0,0,1,.065-.026.307.307,0,0,0,.024.136c.015.031.056.044.118.04H85.4c.006,0,.011-.005.019-.013l.008-.015a.169.169,0,0,0-.012-.025l-.015-.027a.151.151,0,0,1,.071-.106.287.287,0,0,1,.122-.033.349.349,0,0,0,.008.078.028.028,0,0,0,.019.025.136.136,0,0,0,.039.013.166.166,0,0,1,.067.025.133.133,0,0,1,.03.069c.005.033.03.046.069.044l.08-.006a.263.263,0,0,0,.076-.03v.017a.331.331,0,0,1-.05.155.607.607,0,0,1-.092.127h-.037l-.042-.026a.193.193,0,0,1-.036-.028H85.7l-.005,0a.107.107,0,0,0-.04.013.035.035,0,0,0-.017.034.081.081,0,0,0,.005.017.2.2,0,0,0,.02.033c.012.016.023.025.031.023l-.011.005h-.014a.1.1,0,0,1-.057-.012.2.2,0,0,1-.037-.037c-.01-.013-.019-.022-.029-.036a.094.094,0,0,0-.047-.024l-.033.005-.057.011a.272.272,0,0,0-.053.012.072.072,0,0,0-.031.01h-.034a.189.189,0,0,1-.072-.01.132.132,0,0,0-.065-.009.46.46,0,0,0-.144.039.575.575,0,0,1-.145.048.064.064,0,0,1-.017-.017c0-.006-.01-.011-.011-.016h-.017l-.013.005c-.008,0-.013.016-.02.032a.1.1,0,0,1-.015.031c-.012.02-.019.032-.031.032l-.025-.009s-.009,0-.015-.011l-.012,0a.274.274,0,0,0-.1.033c-.033.017-.066.037-.1.06l-.093.064a.235.235,0,0,1-.09.03l-.02,0s-.009-.013-.024-.029a.166.166,0,0,0-.034-.027H84.2a.171.171,0,0,0-.059.039.783.783,0,0,0-.086.084.6.6,0,0,0-.074.095.145.145,0,0,0-.031.069.812.812,0,0,0,0,.093c0,.04.02.056.06.052a.14.14,0,0,1,.026,0v-.033a.329.329,0,0,1,.005-.064.463.463,0,0,1,.02-.07.089.089,0,0,1,.032-.051h.011l.017,0c-.011.041-.017.07-.022.093a.358.358,0,0,0-.006.083.278.278,0,0,0,.006.059.034.034,0,0,0,.038.033l.013-.008,0-.013c.009-.006.015-.014.024-.022a.172.172,0,0,0,.026-.024h.006l.006,0,.009,0,.014-.008a.156.156,0,0,1-.013.071.226.226,0,0,1-.042.06c.066-.031.116-.027.148.015a.223.223,0,0,1,.044.129.026.026,0,0,0,.017,0h.018a.463.463,0,0,0,.03-.038c.013-.019.023-.031.031-.033a.11.11,0,0,1,.1.042.94.94,0,0,1,.066.106.414.414,0,0,0,.078.1.156.156,0,0,0,.141.039.1.1,0,0,0,.065-.025.23.23,0,0,0,.037-.068.127.127,0,0,0,.088.024.044.044,0,0,0,.041-.023.227.227,0,0,0,.013-.045c.005-.015.01-.033.014-.05a.05.05,0,0,1,.022-.036c.006-.01.025-.012.052-.015a.119.119,0,0,1,.061.005.365.365,0,0,1,.067-.212.5.5,0,0,1,.166-.152.092.092,0,0,1,.028.012.353.353,0,0,1,.036.013h.022a.2.2,0,0,0,.028-.018.061.061,0,0,1,.03-.013.2.2,0,0,0-.005.066.276.276,0,0,0,.005.075.028.028,0,0,0,.01.02l.017.006a.1.1,0,0,0,.056-.081.5.5,0,0,0,.015-.094.122.122,0,0,0,.074-.038.092.092,0,0,0,.033-.095.075.075,0,0,0,.032.056.074.074,0,0,0,.047.005.248.248,0,0,0,.054-.014.191.191,0,0,1,.052-.011.6.6,0,0,1-.048-.138c0-.023.009-.034.025-.03a.261.261,0,0,1,.076.029.336.336,0,0,0,.112.025l0-.054a.447.447,0,0,1,0-.054.713.713,0,0,1,.012-.084c.01-.043.014-.073.018-.089a.091.091,0,0,1,.058.084.056.056,0,0,1-.018.046.045.045,0,0,0-.017.041c0,.028.009.047.028.052a.184.184,0,0,0,.066.006c.018,0,.027-.014.033-.039s0-.053,0-.081v-.082c0-.028.008-.037.024-.039s.031.011.05.032.04.046.06.068.04.048.06.072.033.032.045.032.029-.025.015-.061a.263.263,0,0,1-.027-.118.18.18,0,0,1,.06-.125.391.391,0,0,1,.253-.075c.011.01.023.017.034.028-.02,0-.029.012-.032.025s0,.029,0,.043a.307.307,0,0,0,.011.083.056.056,0,0,0,.058.048H87a.143.143,0,0,0,.027-.056.612.612,0,0,0,.012-.073c0-.024,0-.046,0-.065v-.041c.048,0,.075.015.078.041a.416.416,0,0,1,.009.1v.042c0,.017,0,.026-.009.026-.074.078-.152.153-.233.231l-.006,0a.022.022,0,0,1-.009.008c-.005,0-.005,0-.005-.008l0,0a.1.1,0,0,1-.046-.026.158.158,0,0,0-.045-.025c-.033-.006-.05,0-.055.014a.168.168,0,0,0-.012.056.21.21,0,0,0,.012.067.242.242,0,0,0,.025.056.127.127,0,0,0-.1.025.474.474,0,0,0-.081.086.883.883,0,0,0-.06.1.568.568,0,0,1-.054.085.363.363,0,0,1-.089.116,1.134,1.134,0,0,0-.109.1l-.012,0a.174.174,0,0,1-.074-.019.137.137,0,0,0-.082-.018.12.12,0,0,0-.106.053.443.443,0,0,0-.052.123c-.009.047-.018.093-.031.142a.232.232,0,0,1-.045.108c-.01.006-.022.019-.04.036a.679.679,0,0,0-.053.056c-.016.019-.039.038-.056.057l-.03.032c-.006-.027-.027-.034-.06-.024a.5.5,0,0,1-.075.015.192.192,0,0,1-.006.066.255.255,0,0,1-.013.034.2.2,0,0,0-.015.02.087.087,0,0,0,0,.037c0,.02.019.034.059.042a.627.627,0,0,1,.131.032.279.279,0,0,1,.129.089.286.286,0,0,1,.06.206v.079a.063.063,0,0,1-.014.033.063.063,0,0,0-.013.025c0,.026.006.037.02.034a.085.085,0,0,1,.041-.009v-.057l.084-.022a.572.572,0,0,0,.088-.039v.065c0,.064,0,.117-.008.162s-.015.1-.028.174a.067.067,0,0,1-.039.037c-.022.008-.038.011-.046.014v-.138a.246.246,0,0,0-.113.023.18.18,0,0,0-.047.039l-.04.033a.2.2,0,0,1-.092.012v.017a.169.169,0,0,0,.023.088.058.058,0,0,0,.069.043.065.065,0,0,0,.059-.036.32.32,0,0,0,.028-.092.136.136,0,0,0,.148.144l-.006-.005-.045.044c-.023.022-.034.037-.034.044a.539.539,0,0,1,.006.07.122.122,0,0,1-.01.048.033.033,0,0,1-.031.026.128.128,0,0,0-.027-.025c-.015-.014-.029-.023-.037-.029H85.8a.07.07,0,0,0-.057.036.309.309,0,0,0-.05.074.8.8,0,0,1-.048.078.146.146,0,0,1-.061.059l-.01.008-.012-.008c-.006-.009-.017-.028-.032-.053a.136.136,0,0,0-.031-.048c-.006-.008-.02-.006-.039,0a.132.132,0,0,1-.039.017c0,.014,0,.037,0,.064s0,.051,0,.074a.119.119,0,0,1-.024.067.076.076,0,0,1-.066.034c-.006,0-.017-.014-.033-.046a.1.1,0,0,0-.07-.055h-.022a.2.2,0,0,0-.058.029l-.069.039a.337.337,0,0,1-.018-.072v-.068a.681.681,0,0,1,.012-.17.083.083,0,0,1,.044-.059.2.2,0,0,1,.082-.006.293.293,0,0,0,.123-.024.122.122,0,0,0,.032-.019c.02-.012.04-.027.062-.041s.039-.028.055-.042a.142.142,0,0,0,.025-.023v-.234c0-.005.013-.009.028-.017a.1.1,0,0,0,.036-.017v-.011c0-.037-.016-.051-.052-.04a.1.1,0,0,1-.075.009c0-.005-.011-.026-.027-.057s-.025-.052-.03-.058a.088.088,0,0,0-.028-.015l-.026-.009a.028.028,0,0,1-.019-.009.033.033,0,0,1-.011-.023.529.529,0,0,0,.033-.056.2.2,0,0,0,.018-.064.11.11,0,0,0,0-.039.145.145,0,0,1-.006-.034s-.005,0-.006-.008-.005-.005-.009,0a.433.433,0,0,0-.06.06.786.786,0,0,0-.055.067c0-.024,0-.052,0-.088a.51.51,0,0,0-.01-.107.271.271,0,0,0-.043-.088.1.1,0,0,0-.086-.029c-.009,0-.033.024-.061.074s-.065.1-.1.164-.072.122-.107.178a.474.474,0,0,1-.09.111.9.9,0,0,0-.093.073c-.044.038-.089.075-.136.123a1,1,0,0,0-.127.136.2.2,0,0,0-.054.107c0,.023.03.042.085.058a1.052,1.052,0,0,0,.2.038,2.15,2.15,0,0,0,.218.017,1.418,1.418,0,0,0,.151,0c0,.011,0,.026,0,.049a.6.6,0,0,1,.006.065.606.606,0,0,0,.009.072.391.391,0,0,1,0,.044l0,.034v.029h-.025a.39.39,0,0,1-.05-.012.1.1,0,0,0-.042-.006.018.018,0,0,0-.008.011v.017a.065.065,0,0,0,.018.046.064.064,0,0,1,.015.046v.012l-.037.075c-.006.012-.018.022-.047.024l-.036,0c-.008,0-.015-.011-.027-.027A.041.041,0,0,0,84.71,184.8Zm-1.165-2.644a.182.182,0,0,0,.041.108v-.113Zm.041-.5c-.008,0-.013,0-.013.018s.005.015.013.01a.016.016,0,0,0,.009-.015C83.594,181.657,83.592,181.653,83.585,181.653Zm.056.6-.018.013-.017.02v.029Zm.174,2.179c-.009,0-.014,0-.014.013s.005.014.014.009.012-.005.012-.009S83.825,184.438,83.816,184.434Zm.605-1.694a.029.029,0,0,0-.028.032c0,.017.009.027.028.024s.02-.012.02-.028S84.435,182.737,84.421,182.74Zm0,.665c0,.009,0,.018.006.034a.072.072,0,0,0,.024.033l.01,0a.054.054,0,0,0,.045-.055.448.448,0,0,0,.006-.075v-.027l-.046.044A.635.635,0,0,0,84.421,183.4Zm.03-.632c-.017,0-.025.009-.025.029s.008.027.025.026.024-.011.024-.031S84.469,182.768,84.451,182.772Zm.52-1.381c-.006,0-.011,0-.011.013s0,.016.011.016S84.99,181.4,84.972,181.391Zm.056-.153c-.014,0-.02.012-.02.03s.006.028.02.027a.027.027,0,0,0,.025-.031C85.052,181.246,85.045,181.238,85.028,181.238Zm.051.142c.016,0,.028,0,.042,0v-.055a.3.3,0,0,0-.042,0Zm.127-.242c0-.008-.006-.012-.017-.012s-.015.009-.015.016.009.01.015.009A.021.021,0,0,0,85.205,181.138ZM85.4,183c.006,0,.011.008.019.016a.041.041,0,0,1,.008.018v-.095a.31.31,0,0,1-.027.028V183Zm.027-.261s0,.01.012.014a.05.05,0,0,1,.019.012h.032s.011-.01.015-.015.008-.01.008-.016V182.7c0-.017-.006-.023-.023-.022h0a.022.022,0,0,1-.015-.005l0,0,0,0h0a.311.311,0,0,0-.019.031A.1.1,0,0,0,85.431,182.743Zm.086.541a.19.19,0,0,1-.047.087.142.142,0,0,0-.039.094v.034a.186.186,0,0,0,.079-.073.218.218,0,0,0,.013-.082c0-.006,0-.016,0-.029S85.518,183.289,85.518,183.284Zm.041-.726a.014.014,0,0,0,0,.022.026.026,0,0,0,.022.013h.053a.236.236,0,0,1,.017-.093.191.191,0,0,0,.022-.085l-.064,0C85.593,182.465,85.576,182.511,85.559,182.558Zm0,1.137c.038,0,.054-.025.054-.072l-.054,0Zm.074-.345c0,.01,0,.018.005.02a.379.379,0,0,1,.044.078c.025.045.038.073.047.088a.169.169,0,0,0,.033-.11v-.1l-.13.008Zm0,.417a.131.131,0,0,0,.022.074.082.082,0,0,0,.075.036.03.03,0,0,1,0-.016l0-.013a.082.082,0,0,0-.039-.06A.079.079,0,0,0,85.633,183.767Zm.005.554.027-.034h-.027Zm.023-3.071a.051.051,0,0,0,.051.055.414.414,0,0,0,.085.005c0-.022,0-.033-.015-.04a.111.111,0,0,0-.04-.011.252.252,0,0,1-.048-.008.054.054,0,0,1-.028-.031l0,.014Zm.069,1.24a.032.032,0,0,1,.012.018.011.011,0,0,0,.01.009.052.052,0,0,0,.02-.027.069.069,0,0,0,.01-.031s0-.009-.01-.016a.033.033,0,0,0-.02-.01c0,.005-.009.01-.01.017s-.006.012-.012.012a.03.03,0,0,1-.009.013A.031.031,0,0,1,85.73,182.49Zm0,.2h.022c-.009-.008-.012-.014-.022-.023Zm.227-.529c0,.008-.014.027-.029.058a.2.2,0,0,0-.023.064c-.008,0-.012.01-.012.029l.092,0A.432.432,0,0,0,85.957,182.16Zm.377-.129c-.01-.008-.012,0-.012.011s0,.02.012.016.016-.009.016-.017S86.344,182.031,86.334,182.031Zm.026.055a.1.1,0,0,0-.03.071.061.061,0,0,0,.057-.045Z" transform="translate(-70.456 -180.929)"/><path class="e" d="M79.654,189.422a.512.512,0,0,1,.008-.074.33.33,0,0,0,.011-.083.046.046,0,0,0-.038.052.124.124,0,0,1-.038.078.086.086,0,0,1-.024-.034c-.008-.02-.018-.029-.033-.025s-.026.017-.029.038a.056.056,0,0,1-.029.041v-.186s0-.006-.011-.006-.017,0-.022,0a.028.028,0,0,1-.017.01l-.026,0a.321.321,0,0,1-.009.057.059.059,0,0,1-.039.048.044.044,0,0,1-.017,0,.9.9,0,0,1-.092.011l-.093.008a.023.023,0,0,1-.016-.025V189.3c0-.022,0-.045,0-.067a.323.323,0,0,0,.006-.068l-.036.013a.145.145,0,0,0-.052.02.155.155,0,0,0-.043.032.038.038,0,0,0,0,.048v-.053a.18.18,0,0,1,0-.058c0-.008.018-.016.046-.019a.068.068,0,0,1,.013-.031c.005-.015.005-.025,0-.027a.178.178,0,0,1-.034,0l-.029,0a.015.015,0,0,1-.014-.006l-.01-.013a.027.027,0,0,0,.024-.028l-.01,0a.124.124,0,0,0-.092.058.243.243,0,0,0-.027.124.538.538,0,0,0-.005-.066.316.316,0,0,0-.012-.061l-.009-.009a.067.067,0,0,1-.013-.012l-.01.015-.014.014a.018.018,0,0,1-.014.008l-.018,0v-.118l-.006-.005-.022.005a.325.325,0,0,0-.072.044.07.07,0,0,0-.03.07l-.026.008-.025.009c-.046.008-.068,0-.081-.016a.169.169,0,0,1-.017-.09l.045-.009v-.044a.149.149,0,0,1-.086-.007c-.026-.011-.04-.036-.04-.079v0c0-.005.005-.013.014-.027l.011-.025a.045.045,0,0,0-.022-.017.037.037,0,0,0-.019-.01.114.114,0,0,0,.041-.074c0-.036-.019-.054-.057-.058a.469.469,0,0,0-.1,0l-.051.011c.019,0,.03.017.033.04a.4.4,0,0,1,0,.061.148.148,0,0,1-.031.059,1.214,1.214,0,0,1-.08.1c-.03.037-.061.072-.089.1a.178.178,0,0,1-.065.054l-.011,0a.432.432,0,0,1-.014-.047c0-.012-.011-.019-.028-.026a.085.085,0,0,0-.034.058.719.719,0,0,1-.019.08.2.2,0,0,1-.038.071.1.1,0,0,1-.093.018v.037a.1.1,0,0,0,.067.1c-.009.072-.016.142-.022.217l-.017.018a.1.1,0,0,0-.028.028h-.008c-.018.005-.026-.006-.023-.032s-.006-.034-.028-.031l-.012.01-.012.008-.045.046a.337.337,0,0,1-.045.039.246.246,0,0,1-.074.031.165.165,0,0,1-.072.016l-.008.013v.012a.073.073,0,0,0,.016.044.063.063,0,0,1,.014.042.12.12,0,0,1-.022.07.076.076,0,0,1-.052.039.044.044,0,0,1-.036-.006.046.046,0,0,0-.04-.008.067.067,0,0,0-.04.019.1.1,0,0,1-.056.028c-.022,0-.037,0-.048,0s-.022-.012-.022-.042a.233.233,0,0,1,.048-.125c.031-.05.059-.085.078-.116a.232.232,0,0,0,.014-.048.312.312,0,0,0,.01-.043.105.105,0,0,1,.013-.038c0-.009,0-.011.012-.014l.022-.014a.317.317,0,0,0,.031-.05,1.524,1.524,0,0,0,.073-.153.856.856,0,0,1,.075-.146,1.254,1.254,0,0,1,.1-.141c.038-.056.074-.11.107-.164a1.464,1.464,0,0,0,.088-.166.344.344,0,0,0,.039-.159.037.037,0,0,0-.022-.033.314.314,0,0,0-.046-.022.205.205,0,0,1-.043-.032.067.067,0,0,1-.023-.058v-.006c0-.012.005-.029.008-.053a.209.209,0,0,1,.015-.037l.048-.008a.194.194,0,0,0,.014.076.02.02,0,0,0,.018.016.031.031,0,0,0,.026-.009.06.06,0,0,1,.045,0,.15.15,0,0,0,.022.03c.015.017.025.028.032.029l.013,0a.035.035,0,0,0,.025-.023.111.111,0,0,0,.008-.037.19.19,0,0,0,0-.041L78,188.338a.1.1,0,0,1-.009-.027.218.218,0,0,1,0-.06.066.066,0,0,1-.059-.039.149.149,0,0,0-.045-.052v.031a.151.151,0,0,0,.026.087.164.164,0,0,1,.019.08.038.038,0,0,1-.045-.013c-.008-.011-.012-.023-.019-.034a.1.1,0,0,0-.02-.035.032.032,0,0,0-.038-.013.133.133,0,0,0-.038.017.135.135,0,0,1-.033.017c-.014,0-.023-.006-.03-.03a.077.077,0,0,0-.026-.046l-.012,0h-.006a.079.079,0,0,0-.031.015.218.218,0,0,1-.03.013l-.009,0h-.012a.418.418,0,0,1-.019-.042.452.452,0,0,0-.028-.05.109.109,0,0,0-.04-.031.069.069,0,0,0-.058.006.256.256,0,0,0-.037-.084.219.219,0,0,0-.04-.051c-.018-.011-.033-.022-.052-.031a.433.433,0,0,1-.065-.05.079.079,0,0,1-.019-.075.356.356,0,0,0,0-.081.144.144,0,0,0-.045-.078c-.025-.022-.039-.041-.039-.059s.005-.031.02-.033.025-.019.025-.05,0-.053-.012-.053a.36.36,0,0,0-.053.005v.1a.057.057,0,0,0-.056.046.258.258,0,0,0-.013.068l-.029,0v-.17c-.036-.005-.053-.02-.053-.048a.047.047,0,0,1,.042-.052v-.126c.011,0,.018,0,.018,0s.009.006.013.009l.009,0a.1.1,0,0,1,.025,0l.011-.006v-.182l.053-.009a.348.348,0,0,0,.008.052c.006.028.017.042.038.047.012-.017.024-.034.039-.053a.06.06,0,0,1,.024.038c.006.019.012.034.017.048.025-.022.054-.042.078-.062,0,.018,0,.033.019.055a.6.6,0,0,0,.051.059c.018.017.04.037.059.053s.034.023.04.028a.109.109,0,0,0,.044.005.123.123,0,0,1,.043,0c.011.006.016.013.016.018v.016a.016.016,0,0,0,.008.015.071.071,0,0,0,.034,0l.01-.012.012-.013H77.7a.032.032,0,0,1,.032.011l.027.041c.009.015.015.032.023.046a.034.034,0,0,0,.034.026l0,0a.073.073,0,0,0,.052-.033.1.1,0,0,1,.064-.039c.031,0,.048,0,.059.011a.132.132,0,0,1,.022.052.212.212,0,0,0,.024.05c.012.014.028.017.06.011a.138.138,0,0,0,.022-.016.061.061,0,0,0,.018-.013.065.065,0,0,1,.045.071l0,.008,0,0v.005c-.005,0-.009-.009-.012-.014s-.023-.013-.029-.011h-.013a.049.049,0,0,0,.026.044.192.192,0,0,0,.064.019.28.28,0,0,0,.073,0,.4.4,0,0,0,.059-.009l.069-.011a.137.137,0,0,0,.054-.069c.023-.038.045-.081.074-.132a1.8,1.8,0,0,1,.1-.153.6.6,0,0,1,.124-.122.092.092,0,0,0,.03-.046.122.122,0,0,0,.009-.046.117.117,0,0,1,.037.037c.013.017.025.027.03.034-.034.02-.071.04-.106.059a.55.55,0,0,1,.014.079l.156-.03v-.115a.486.486,0,0,0,.057-.009c.03-.008.045-.019.045-.042v-.011a.01.01,0,0,0-.009-.011c-.006,0-.012-.006-.013-.011l-.005-.009,0-.012c.039-.006.075-.013.111-.022.012,0,.017-.015.02-.04s0-.039,0-.042.027-.005.04-.01a.757.757,0,0,0,.027.1.053.053,0,0,0,.068.046c.024,0,.04-.011.044-.019s.019-.016.039-.019l0,0a.36.36,0,0,1,.016.06.275.275,0,0,1,.008.057v.016a.2.2,0,0,1-.012.085.1.1,0,0,1-.029.047.254.254,0,0,1-.051.043.286.286,0,0,0-.058.064.181.181,0,0,0-.016.093.115.115,0,0,1-.039.09.185.185,0,0,1-.018-.045.048.048,0,0,0-.022-.04.214.214,0,0,1-.023.08.122.122,0,0,1-.038.04c-.012.01-.027.023-.04.036a.1.1,0,0,0-.024.064.443.443,0,0,1-.011.046c-.005.023-.012.047-.019.072a.38.38,0,0,1-.029.068c-.01.02-.023.033-.038.034h-.008a.037.037,0,0,1-.014-.014.055.055,0,0,1-.01-.024.188.188,0,0,0-.062.125.119.119,0,0,0,.03.083.336.336,0,0,0,.066.056.544.544,0,0,1,.065.052.1.1,0,0,1,.03.07v.005a.067.067,0,0,1-.011.027.1.1,0,0,1-.013.022v.017c0,.008.008.014.013.024l.011.016h0l.017,0a.066.066,0,0,0,.011-.026l.005-.025h.013l.013,0a.184.184,0,0,1,.131.095.6.6,0,0,0,.111.139.845.845,0,0,0,.081.055c.033.023.067.042.1.064s.068.045.1.068a.318.318,0,0,1,.07.062.384.384,0,0,1,.008.045c0,.026.005.038.014.038a.032.032,0,0,0,.029.005.044.044,0,0,0,.03-.016.553.553,0,0,1,.171.176.508.508,0,0,1,.051.249c-.022,0-.038-.012-.062-.05a.079.079,0,0,0-.094-.04.141.141,0,0,0-.07.03.08.08,0,0,0-.03.074l.014,0a.335.335,0,0,1,.02-.039l.012-.009.008,0c-.01.04-.008.061.006.068a.093.093,0,0,0,.056.016.273.273,0,0,0,.059,0c.016,0,.027.009.027.023h0a.242.242,0,0,1-.029.037.129.129,0,0,1-.033.022l-.016-.008-.026-.009c-.017,0-.038.009-.055.012a.315.315,0,0,1-.052,0,.047.047,0,0,1-.038-.018A.089.089,0,0,1,79.654,189.422Zm-2.356.386a.019.019,0,0,0-.017.02c0,.011.005.015.017.014s.018-.01.018-.019S77.311,189.807,77.3,189.807Zm.056-.095c-.008,0-.011.008-.011.02s0,.019.011.017a.019.019,0,0,0,.019-.022C77.374,189.715,77.369,189.709,77.355,189.712Zm.045-.129a.018.018,0,0,0-.015.02c0,.01,0,.016.015.014s.018-.01.018-.019S77.414,189.581,77.4,189.583Zm.041-.087c0,.005,0,.006,0,.006s.006.02.019.018v-.057a.025.025,0,0,0-.019.026Zm.046-2.026c.013,0,.026-.006.037-.008l-.013-.014-.014,0-.01.007Zm0,2.155.037-.008a.1.1,0,0,0-.008-.032.032.032,0,0,1-.005-.023l-.008,0-.006,0a.012.012,0,0,0-.01.013Zm.056-.136a.283.283,0,0,0,.005.066.082.082,0,0,0,.042.052v-.187l-.025-.019a.043.043,0,0,0-.027.046Zm.023-1.517s0,.006.009.01l.016.008v-.022a.073.073,0,0,1-.013-.013l-.012-.006,0,.013Zm.136,1.481c0,.018.009.031.024.032v-.036A.089.089,0,0,0,77.7,189.454Zm.421-1.335a.033.033,0,0,0,.04.015v-.047A.066.066,0,0,0,78.123,188.119Zm.1.436a.077.077,0,0,0,.013.045.044.044,0,0,0,.038.014.2.2,0,0,0,.03-.025.564.564,0,0,0,.048-.051c.015-.02.029-.041.043-.061a.094.094,0,0,0,.02-.051q0-.023-.016-.023a.081.081,0,0,0-.033,0c-.012,0-.026.02-.041.055a.166.166,0,0,1-.1.073Zm.023-.375a.023.023,0,0,0-.018.024c0,.013.006.02.018.016s.01-.009.01-.022S78.257,188.181,78.249,188.181Zm.17-.162c0,.016.005.024.016.02a.1.1,0,0,0,.044,0l.042-.005v-.058A.368.368,0,0,0,78.419,188.019Zm.034.47,0,.04c0,.019.01.027.026.025l.018,0a.156.156,0,0,1,.022-.029v-.006c0-.017-.008-.028-.026-.028Zm.148.536a.019.019,0,0,0-.017.022c0,.014.006.019.017.018s.018-.01.018-.024S78.614,189.022,78.6,189.025Zm.1-.85c.01,0,.016,0,.024-.005v-.02a.1.1,0,0,0-.024,0Zm.064-.347v-.012l-.025,0A.085.085,0,0,1,78.767,187.829Zm-.025.488.025-.005v-.024a.059.059,0,0,1-.025,0Zm.039-.833a.051.051,0,0,0-.014.041v.036l.014,0Zm-.014.993a.068.068,0,0,0,.014.04v-.042Zm.014-.256c0,.037.02.051.06.042,0-.005,0-.022,0-.046s-.014-.037-.031-.037l-.015.022A.054.054,0,0,0,78.781,188.221Zm.07.284c-.006,0-.012,0-.01.018s0,.02.01.014.013-.006.013-.017S78.858,188.5,78.851,188.505Zm.022-1,.017,0a.054.054,0,0,0-.017-.014Zm.017.908c0-.008,0-.012-.008-.011a.014.014,0,0,0-.01.013c0,.009,0,.013.01.011A.014.014,0,0,0,78.89,188.412Zm.047.178c.015,0,.022-.017.022-.037v-.04c0-.009,0-.028,0-.057s-.014-.043-.037-.039l-.008.008C78.921,188.481,78.929,188.535,78.937,188.59Zm0-.254.018-.005v-.022Zm.018-.543c-.008,0-.012.01-.012.024s0,.02.012.019.015-.01.015-.025S78.963,187.789,78.955,187.793Zm.039-.539.052-.01c0-.029-.015-.042-.045-.037l-.006,0Zm0,1.468.045-.009v-.023a.364.364,0,0,1-.045.008Zm.045-.111.016,0v-.024Zm.118.135a.246.246,0,0,1-.039.009.049.049,0,0,0-.038.032c.022-.006.053-.01.076-.016ZM79.1,189l.03-.005c0-.01-.011-.019-.03-.027Zm.046-.138.016,0-.016-.019Zm.081.2v-.04a.228.228,0,0,0-.024.028Zm.014.207c0-.009,0-.01-.005-.009s-.013.006-.009.012,0,.011.009.01S79.236,189.282,79.236,189.273Zm.046-.219a.024.024,0,0,0-.015.026c0,.016.006.022.015.019s.012-.009.012-.025S79.29,189.051,79.283,189.054Zm.041-1.886a.023.023,0,0,0-.018.024c0,.015.006.02.018.018s.01-.009.01-.023S79.331,187.167,79.324,187.168Zm0,2.055a.056.056,0,0,1,.008-.031.056.056,0,0,0,.011-.024l0-.013,0-.011-.026,0Zm.126-.111.022,0v-.022l-.022,0Zm.039-.2c0,.031.015.044.046.037V188.9C79.52,188.906,79.5,188.909,79.488,188.911Z" transform="translate(-70.945 -180.463)"/><path class="e" d="M80.181,189.2v-.012a.009.009,0,0,1-.005-.01v-.011a.094.094,0,0,0-.008-.036.073.073,0,0,0-.018-.033c0-.01-.009-.02-.022-.037s-.019-.026-.019-.03v-.015c0-.012-.009-.027-.016-.045s-.009-.028-.013-.03-.009-.018-.031-.037a.511.511,0,0,0-.038-.042.072.072,0,0,1-.005-.02v-.074a.092.092,0,0,1,.005-.025l.018-.038a.39.39,0,0,1,.028-.046s.011-.005.018-.014l0-.008a.224.224,0,0,1,.06-.03.376.376,0,0,1,.06-.018.094.094,0,0,1,.036-.019.32.32,0,0,0,.039-.019c.02,0,.046-.006.069-.01.005,0,.019-.008.037-.018a.084.084,0,0,1,.036-.018.18.18,0,0,1,.024-.029l.022-.027c.01,0,.027-.013.059-.025a.452.452,0,0,0,.06-.025l.033-.017a.131.131,0,0,1,.038-.017.805.805,0,0,1,.083-.017l.058-.012s.01.016.019.036.022.029.031.031a.1.1,0,0,1,.023,0,.125.125,0,0,1,.028,0c0-.008,0-.015.016-.026a.081.081,0,0,0,.023-.036.069.069,0,0,0,.012-.031c0-.019.01-.032.012-.041a.507.507,0,0,0,.044-.029l.04-.033c.017-.015.029-.026.034-.026s.029.011.045.014l.015.012a.032.032,0,0,0,.015.008l.02-.013a.1.1,0,0,0,.025-.02l.038-.016.036-.02a.287.287,0,0,1,.044-.034.54.54,0,0,0,.055-.032l.042,0a.072.072,0,0,0,.046-.013.028.028,0,0,0,.012-.013.036.036,0,0,0,.012-.017l.012,0H81.5s.008.008.024.014.014,0,.023.008a.44.44,0,0,1,.05-.009s.005.008.018.009a.113.113,0,0,0,.036,0c.037-.005.079-.013.116-.02s.073-.014.11-.018a.243.243,0,0,0,.061-.031.481.481,0,0,0,.062-.041.024.024,0,0,0,.011-.018.1.1,0,0,0,.012-.027l.024.008a.034.034,0,0,0,.023.01l.018,0h0c.005-.006.015-.015.027-.03s.019-.019.019-.025l.005-.005c0-.006,0-.006.008-.006a.468.468,0,0,0,0,.05.148.148,0,0,0,.012.05c0,.009.005.016.015.028l.023.017c.1-.017.2-.032.292-.046.008-.016.02-.046.038-.083a.636.636,0,0,1,.034-.071.06.06,0,0,1,.019-.031l.011,0,.016,0a.231.231,0,0,0,.078.008h.066a.087.087,0,0,0,.032.01.213.213,0,0,0,.036,0l.125-.019a.05.05,0,0,0,.005.024.11.11,0,0,0,.011.015.434.434,0,0,0,.013.061.3.3,0,0,1,.011.059c.005,0,.016.013.036.028s.032.026.032.03.018.019.034.033a.18.18,0,0,1,.022.032c-.009.014-.016.033-.028.051s.012.016.028.018l.042.006v.153a.027.027,0,0,1,.022.024.07.07,0,0,1,.016.022.057.057,0,0,0,.014.022l.011,0,.01-.009c0-.008.011-.025.024-.051l.023-.054a.184.184,0,0,1,.026-.031c.014-.015.024-.02.027-.02l.015,0h.028a.143.143,0,0,1-.011.047.224.224,0,0,1-.017.051.377.377,0,0,1-.023.053.346.346,0,0,1-.022.043.14.14,0,0,1-.013.045.2.2,0,0,0-.011.036.047.047,0,0,1-.031.019.119.119,0,0,1-.036.012.071.071,0,0,1-.028-.023.084.084,0,0,0-.024-.022.175.175,0,0,0-.044,0,.2.2,0,0,0-.043,0,.078.078,0,0,0-.011-.032l0-.012a.038.038,0,0,1-.012-.01l-.011,0-.019,0a.076.076,0,0,0-.022.013.053.053,0,0,1-.024.015h-.011l-.005,0a.113.113,0,0,1-.043-.006c-.016,0-.029-.01-.036-.005s-.023,0-.023-.019a.081.081,0,0,0,.029-.014c.01-.009.018-.013.022-.017a.187.187,0,0,1,.015-.028.05.05,0,0,0,.005-.028s0,0-.005-.008l-.015-.009a.1.1,0,0,0-.028,0,.093.093,0,0,0-.023,0,.334.334,0,0,0-.032.047c-.018.026-.029.046-.038.059a.078.078,0,0,1-.013.025.1.1,0,0,1-.009.025.187.187,0,0,0-.015.014l-.008.016a.139.139,0,0,0-.022-.028c-.014-.01-.023-.015-.028-.014h-.006a.07.07,0,0,1-.019,0,.141.141,0,0,1-.011.033.168.168,0,0,0-.012.034.466.466,0,0,1-.036.05.4.4,0,0,0-.033.043.08.08,0,0,0-.024-.026l-.028-.016h-.031a.087.087,0,0,0-.022.005l-.014.006-.023.026c-.01.013-.02.024-.027.032l-.011.024-.009.014,0,.005-.013,0h-.012l-.03.024c-.022.011-.032.014-.034.016a.073.073,0,0,1-.028-.01c-.013-.006-.02-.012-.026-.01l-.045.01a.153.153,0,0,1-.051.006l-.013-.016a.081.081,0,0,0-.009-.022c0-.019-.008-.027-.024-.024h-.023a.082.082,0,0,0-.023.016l-.024.02a.3.3,0,0,0-.037.017l-.037.015a.328.328,0,0,0-.059.016c-.027.011-.06.022-.1.032l-.095.033a.494.494,0,0,0-.05.019.163.163,0,0,0-.06.033.352.352,0,0,1-.06.033.166.166,0,0,1-.052.01l-.045.005-.052.06a.223.223,0,0,1-.029.005.4.4,0,0,1-.041.006.08.08,0,0,0-.025.022.085.085,0,0,1-.019.026.447.447,0,0,1-.055.015l-.053.011-.061.012a.286.286,0,0,1-.042,0h-.051a.276.276,0,0,0-.051,0l0,0a.1.1,0,0,0-.019,0,.231.231,0,0,1-.034.031c-.019.015-.028.026-.032.027l-.017,0-.005,0a.067.067,0,0,1-.026,0,.064.064,0,0,1-.025-.012c-.005,0-.016,0-.033,0a.1.1,0,0,0-.038-.005l-.011,0H80.7l-.012.015-.012.012a.164.164,0,0,0-.013.029c-.005.013-.01.02-.012.028l-.006.009-.006.009-.014.014a.439.439,0,0,0-.055.016c-.019.009-.037.012-.052.019l-.034.009-.009,0h-.014a.127.127,0,0,0-.022-.006H80.43l-.01,0h0a.054.054,0,0,0-.03.023c-.01.013-.019.023-.02.033-.08.014-.155.029-.236.042a.56.56,0,0,0,.024-.054c.012-.03.019-.048.022-.056v-.012a.009.009,0,0,1,.005-.01Zm.094-1.433c0-.01,0-.024.009-.046s0-.041,0-.068,0-.05.006-.071,0-.042,0-.054a.075.075,0,0,0-.008-.024c0-.011-.012-.023-.017-.039s-.01-.029-.016-.043l-.009-.026a.268.268,0,0,1,.009-.039c.006-.017.009-.031.02-.04s.015-.01.02-.017l.025-.016s.016-.009.032-.025.032-.028.04-.028l.012-.008.012,0a.484.484,0,0,1,.045.031c0,.008.023.014.055.015a.181.181,0,0,1,.065.014l.012,0,.011-.008c0-.009.011-.024.022-.045a.191.191,0,0,1,.027-.037c0-.005.019-.005.041,0a.144.144,0,0,0,.042.005l0-.015a.165.165,0,0,1,0-.03.1.1,0,0,1-.005-.04c.01-.019.017-.028.023-.029a.243.243,0,0,0,.024-.012l.009,0h.016a.065.065,0,0,1,.019.017c.014.014.022.019.031.017l.01,0,.019,0a.063.063,0,0,1,.022,0,.041.041,0,0,0,.016-.008.166.166,0,0,0,.027-.014.034.034,0,0,1,.019-.011l.014-.033a.289.289,0,0,0,.012-.031c.014,0,.018-.009.018-.026h.012l.018,0a.073.073,0,0,1,.015.024.1.1,0,0,0,.012.022.035.035,0,0,0,.017.027.142.142,0,0,1,.025-.034.175.175,0,0,0,.02-.033s.01-.005.015-.02a.166.166,0,0,1,.015-.029.055.055,0,0,0,.009.025c0,.014.008.019.012.016l.006,0h.012c.006,0,.006,0,.006-.005.016,0,.022-.011.022-.026v-.023c0-.013-.005-.017-.022-.013a.189.189,0,0,1,.044-.037.51.51,0,0,0,.045-.032l.016,0h.012s.01.01.014.022.005.022.012.023l.013.008c.006,0,.01.008.016.005h0l.011,0c.012-.006.045-.019.087-.04a.581.581,0,0,0,.079-.036.074.074,0,0,1,.024-.015c.014-.006.024-.01.026-.017h.023a.275.275,0,0,1,.031-.006c.005-.009.022-.027.043-.056a.543.543,0,0,1,.045-.055.083.083,0,0,0,.022.01.035.035,0,0,0,.025,0,.088.088,0,0,0,.023-.017.068.068,0,0,1,.028-.013l.005,0h.018l.023.006a.069.069,0,0,0,.024.006h.023l.032-.02a.714.714,0,0,0,.059-.041.472.472,0,0,0,.06-.038c.02-.013.03-.022.036-.025a.216.216,0,0,1,.062-.024.8.8,0,0,0,.079-.029.158.158,0,0,0,.03,0H82.3s.01.006.028.012l.02.009a.263.263,0,0,0,.085-.009.248.248,0,0,0,.08-.019c0,.005,0,.008.01.01s.012,0,.015.012l.018-.008h.009a.062.062,0,0,0,.013-.026l.006-.025s.009-.006.016-.015a.013.013,0,0,1,.011-.008l.013-.008.01,0,.012,0,.011.009a.046.046,0,0,0,.012.025.074.074,0,0,1,.014.024H82.7l.013,0,.014-.017a.1.1,0,0,1,.014-.019l.09-.015a.079.079,0,0,1-.014.03.123.123,0,0,0-.008.036v.018c0,.005.006.01.02.022a.18.18,0,0,0,.025.02h.029c.013,0,.022.008.022.015a.113.113,0,0,0,.008.034.14.14,0,0,1,.013.038l.013.009s.009,0,.017,0a.049.049,0,0,0,.005.023l.011.019c.017-.01.03-.019.045-.028a.052.052,0,0,0,.01.025.073.073,0,0,0,.02.02l.019.012a.056.056,0,0,0,.025.011.084.084,0,0,0-.025.045l-.019.046v.012l.005.011h.011a.122.122,0,0,0,.028-.013.055.055,0,0,0,.028-.019c.015.03.029.06.042.092a.266.266,0,0,0,.024-.017.062.062,0,0,1,.028-.014l.02,0v.05a.263.263,0,0,1-.048.013.444.444,0,0,0-.047.019c-.027.028-.048.056-.074.084,0,0,0,.014,0,.027s-.009.024-.012.028l-.052.005c-.026,0-.04,0-.04.008a.151.151,0,0,0-.043.014l-.036.02a.042.042,0,0,0-.016.022.112.112,0,0,0-.006.028.258.258,0,0,0-.024.025l-.014,0h-.008a.062.062,0,0,0-.025-.006.087.087,0,0,1-.022-.006.353.353,0,0,0-.071-.005.338.338,0,0,1-.072,0,.1.1,0,0,1-.037-.024.324.324,0,0,0-.037-.032.2.2,0,0,1-.015.015.031.031,0,0,0-.01.017l-.02,0-.024,0c-.009,0-.019-.008-.036-.012a.113.113,0,0,0-.037-.006c-.024.028-.048.053-.069.08,0,0,0,.005-.006.005l-.011,0-.011-.005a.051.051,0,0,1-.023,0l-.024-.006-.024,0-.029,0a.082.082,0,0,1-.016.023l-.016.006-.022,0a.077.077,0,0,1-.023,0,.022.022,0,0,0-.012,0c-.005,0-.01-.005-.022-.016a.025.025,0,0,0-.025-.016.058.058,0,0,1-.019,0,.044.044,0,0,0-.02,0,.1.1,0,0,0-.029.011.15.15,0,0,0-.036.025.1.1,0,0,1-.037.026.141.141,0,0,1-.033.005.238.238,0,0,1-.054.011l-.05.008-.03.005-.054.015c-.029.009-.057.017-.088.024a.71.71,0,0,0-.086.024c-.029.01-.048.013-.055.015a.529.529,0,0,0-.074.014c-.011,0-.023.011-.046.017a.24.24,0,0,0-.046.022.047.047,0,0,0-.022.016.049.049,0,0,1-.023.013.052.052,0,0,1-.036.009.111.111,0,0,0-.038.006.328.328,0,0,1-.034.018.151.151,0,0,1-.041.016.344.344,0,0,1-.066.015.588.588,0,0,0-.072.012.388.388,0,0,0-.038.033.2.2,0,0,1-.034.03.163.163,0,0,0-.037.009l-.068.016-.074.022-.055.013c-.05.009-.1.016-.146.026a.091.091,0,0,0-.024.018c-.013.012-.018.018-.023.018l-.048.013c-.028.008-.047.011-.058.015a.452.452,0,0,0-.053.009.065.065,0,0,1-.029,0C80.289,187.779,80.281,187.771,80.274,187.763Zm.209-.388.029,0v-.029a.151.151,0,0,1-.029.005Zm.1,0,.023,0v-.018a.041.041,0,0,1-.023.005Zm.263-.188c-.005,0-.008,0-.01.014s0,.024,0,.039,0,.027,0,.037,0,.011.01.005a.084.084,0,0,0,.01-.046A.1.1,0,0,0,80.843,187.186Zm.232,1.192a.141.141,0,0,1,.025-.026.048.048,0,0,0-.025,0Zm.264.027.009.005a.052.052,0,0,0,.02.009l0,0s.006,0,.011-.01l.011-.006.012-.013.005-.013-.005-.011v0c0-.005,0-.009-.012-.01s-.011-.006-.011-.013l-.011,0,0,0a.122.122,0,0,0-.024.028A.07.07,0,0,0,81.338,188.4Zm.029-.176c-.014,0-.02,0-.02.014s.006.015.02.009.01,0,.01-.01S81.373,188.234,81.368,188.229Zm.135.047a.028.028,0,0,0-.017.029c0,.016.006.022.017.017a.022.022,0,0,0,.024-.023A.022.022,0,0,0,81.5,188.277Zm.1-.2a.027.027,0,0,0-.023.028c0,.015.008.023.023.018s.016-.011.016-.026S81.611,188.071,81.6,188.074Zm.92-.323a.6.6,0,0,1-.047.06.226.226,0,0,1-.046.047c0-.007-.005,0-.017.013a.014.014,0,0,1-.013.008v-.017l.008-.017c.006-.009.02-.023.037-.045l.036-.04a.051.051,0,0,1,.024,0Zm-.044.127v.024c-.009-.006-.014-.014-.023-.022Zm.024-1.165c-.006,0-.011,0-.011.016s0,.014.011.01.01-.005.01-.016S82.5,186.713,82.5,186.713Zm.092,1.333c-.008,0-.011.012-.011.03s0,.025.011.025.02-.014.02-.031S82.605,188.045,82.589,188.046Zm.12-1.53c0-.009,0-.012-.009-.009s-.013,0-.013.013.006.008.013.008S82.709,186.524,82.709,186.517Zm.213-.051c.009,0,.013,0,.013,0s0,.009-.013.014-.009,0-.009-.013S82.916,186.462,82.922,186.466Zm.07,1.877c.005-.006,0-.01-.01-.009a.014.014,0,0,0-.014.015c0,.006.009.01.014.008S82.992,188.352,82.992,188.343Zm.068-.5v.022l-.016,0v-.022A.031.031,0,0,1,83.06,187.84Zm.074.529v-.023a.069.069,0,0,1-.018,0A.1.1,0,0,1,83.134,188.369Z" transform="translate(-70.712 -180.506)"/></g></svg>