<svg xmlns="http://www.w3.org/2000/svg" width="93.972" height="93.972" viewBox="0 0 93.972 93.972"><defs><style>.a{fill:#f3735c;}.b{fill:#db604a;}.c{fill:#1c75a1;}.d{fill:#ebf0f3;}.e{fill:#d5d6db;}.f{fill:#27a2db;}</style></defs><g transform="translate(0 -20)"><circle class="a" cx="46.986" cy="46.986" r="46.986" transform="translate(0 20)"/><g transform="translate(29.186 42.609)"><path class="b" d="M140.445,536.755a41.418,41.418,0,0,0-.277-4.759l-36.54-18.415,1.516,6.388c.532.463,1.039.943,1.527,1.444.3.314.6.644.887.972.087.1.172.2.257.3.236.274.461.551.683.841.08.1.165.213.243.32.163.221.33.445.484.668h0c.055.074.1.145.154.215a1.139,1.139,0,0,1,.06.1c.034.048.066.1.1.137l.034.058c.076.123.151.239.232.362.06.1.122.195.181.292.078.127.151.243.218.374.023.032.048.072.073.111a21.189,21.189,0,0,1,2.864,10.6c0,13.145-12.284,23.8-27.441,23.8-.429,0-.867-.014-1.289-.03-.11,0-.209-.01-.31-.01-.424-.024-.848-.054-1.266-.091a.686.686,0,0,1-.11-.014c-.4-.038-.775-.077-1.165-.129-.1-.01-.193-.028-.289-.04-.41-.054-.819-.121-1.218-.191-.06-.016-.115-.028-.174-.04-.362-.066-.72-.141-1.075-.217-.089-.02-.179-.04-.271-.064-.39-.094-.777-.187-1.169-.294l-.2-.06c-.342-.1-.674-.2-1.007-.31-.08-.022-.163-.048-.241-.071s-.165-.06-.25-.092l37.526,18.914C129.489,569.593,140.445,554.289,140.445,536.755Z" transform="translate(-75.66 -511.145)"/><g transform="translate(0 0)"><path class="c" d="M208.313,235.376h-28V192.187h-5.085a3.04,3.04,0,0,0-3.04,3.04v43.179a3.044,3.044,0,0,0,3.044,3.044H208.31a3.047,3.047,0,0,0,3.047-3.047v-6.071A3.044,3.044,0,0,1,208.313,235.376Z" transform="translate(-172.188 -192.187)"/><path class="d" d="M221.062,493.146v3.428a3.047,3.047,0,0,1-3.047,3.047H185.568a2.327,2.327,0,0,0-2.323,2.452,2.415,2.415,0,0,0,2.455,2.2h32.337a3.04,3.04,0,0,0,3.04-3.04v-8.1Z" transform="translate(-181.894 -456.418)"/><path class="e" d="M240.1,536.623a3.047,3.047,0,0,1-3.047,3.047H204.925V540.8h32.15a3.04,3.04,0,0,0,3.04-3.04Z" transform="translate(-200.931 -494.604)"/><path class="f" d="M266.794,192.187h-28v43.189h28a3.044,3.044,0,0,0,3.044-3.044v-37.1A3.04,3.04,0,0,0,266.794,192.187Z" transform="translate(-230.665 -192.187)"/><rect class="c" width="17.49" height="0.994" transform="translate(14.902 34.689)"/><rect class="c" width="17.49" height="0.994" transform="translate(14.902 38.375)"/><path class="a" d="M255.586,568.508l-3.685-2.039-3.685,2.039V561.6h7.369Z" transform="translate(-238.942 -516.536)"/></g></g></g></svg>