<svg xmlns="http://www.w3.org/2000/svg" width="90" height="90" viewBox="0 0 90 90"><defs><style>.a{fill:#f3735c;}.b{opacity:0.15;}.c{fill:#c1c3c7;}.d{opacity:0.2;}.e{fill:#eaebeb;}.f{fill:#fff;}.g{fill:#adadad;}.h{font-size:13px;font-family:HelveticaLTStd-Bold, Helvetica LT Std;font-weight:700;}</style></defs><g transform="translate(-24.99 -25)"><path class="a" d="M114.99,70a45,45,0,0,1-45,45c-1.4,0-2.795-.064-4.165-.19q-2.111-.194-4.16-.579-.849-.16-1.689-.352c-.357-.079-.71-.164-1.064-.254A45.006,45.006,0,1,1,113.1,57.061q.518,1.73.9,3.518.13.611.242,1.227a44.748,44.748,0,0,1,.691,5.987Q114.99,68.889,114.99,70Z" transform="translate(0)"/><path class="b" d="M223.579,161.233a45.823,45.823,0,0,1-45.822,45.824c-1.43,0-2.846-.065-4.241-.193q-2.149-.2-4.236-.59-.865-.162-1.72-.358l-14.244-14.258V138.072a5.124,5.124,0,0,1,1.548-3.163,4.685,4.685,0,0,1,3.15-1.385h43.819c-.072,0-.137-.033-.207-.035a4.9,4.9,0,0,1,3.391,1.423c6.893,6.975,12.779,12.915,17.8,17.979a45.571,45.571,0,0,1,.7,6.1Q223.579,160.1,223.579,161.233Z" transform="translate(-108.589 -92.057)"/><g transform="translate(45.459 42.145)"><path class="c" d="M417.356,133.238c-2.738,0-4.949,1.387-5.038,4.907v3.129h10v-3.027a5.023,5.023,0,0,0-1.452-3.542A4.922,4.922,0,0,0,417.356,133.238Z" transform="translate(-369.161 -133.235)"/><path class="d" d="M153.317,267v35.922l4.057-3.333,4.443,3.333,4.277-3.333,4.555,3.333,4.166-3.333,4.443,3.333,4.055-3.333,4.555,3.333,4.388-3.333,4.219,3.333V267Z" transform="translate(-153.317 -244.708)"/><path class="e" d="M153.317,163.5v52.168l4.057-3.333,4.443,3.333,4.277-3.333,4.555,3.333,4.166-3.333,4.443,3.333,4.055-3.333,4.555,3.333,4.388-3.333,4.219,3.333V163.5Z" transform="translate(-153.317 -158.454)"/><path class="f" d="M154.876,134.644a4.839,4.839,0,0,0-1.548,3.2v.684h43.154c.078-.51-.153-5.311,5.361-5.311H158.024A5.383,5.383,0,0,0,154.876,134.644Z" transform="translate(-153.326 -133.218)"/><g transform="translate(6.783 10.152)"><rect class="g" width="30.489" height="1.932"/><rect class="g" width="30.489" height="1.932" transform="translate(0 5.064)"/><rect class="g" width="30.489" height="1.932" transform="translate(0 10.396)"/><rect class="g" width="30.489" height="1.932" transform="translate(0 15.728)"/><rect class="g" width="14.715" height="1.932" transform="translate(0 21.947)"/><rect class="g" width="14.715" height="1.932" transform="translate(0 28.168)"/><rect class="g" width="14.715" height="1.932" transform="translate(0 34.658)"/></g></g><text class="h" transform="translate(76.471 87)"><tspan x="-8.307" y="0">Rs</tspan></text></g></svg>