<svg xmlns="http://www.w3.org/2000/svg" width="90" height="90" viewBox="0 0 90 90"><defs><style>.a{fill:#495057;}.b{fill:#343b43;}.c{fill:#eca334;}.d{fill:#fece66;}.e{fill:#f5b540;}</style></defs><g transform="translate(-72.219 -737.257)"><path class="a" d="M162.219,782.256a45,45,0,1,1-45-45A45,45,0,0,1,162.219,782.256Z" transform="translate(0 0)"/><path class="b" d="M115.962,750.877l-1.318-1.318a18.394,18.394,0,0,0-11.75-3.806c-7,0-12.877,3.213-14.5,7.543-2.582,1.789-4.162,4.215-4.162,6.895v2.793a7.249,7.249,0,0,0,1.357,4.15,6.941,6.941,0,0,0-.3,1.993v0A7.357,7.357,0,0,0,83.7,773.6v2.793a7.89,7.89,0,0,0,2.67,5.682c-.012.151-.017.308-.017.466v2.79a7.8,7.8,0,0,0,2.471,5.488c.041.046.086.094.134.139l23.379,23.381A45.241,45.241,0,0,0,145.4,780.317Z" transform="translate(15.739 11.559)"/><g transform="translate(99.611 757.485)"><g transform="translate(2.653 26.815)"><path class="c" d="M114.711,768.051c0,5.5-6.7,9.969-14.957,9.969S84.8,773.555,84.8,768.051s6.7-9.971,14.952-9.971S114.711,762.544,114.711,768.051Z" transform="translate(-84.803 -755.29)"/><rect class="c" width="29.908" height="2.791" transform="translate(0 9.969)"/><path class="d" d="M114.711,766.887c0,5.5-6.7,9.971-14.957,9.971S84.8,772.391,84.8,766.887s6.7-9.968,14.952-9.968S114.711,761.38,114.711,766.887Z" transform="translate(-84.803 -756.918)"/><path class="e" d="M98.242,772.752c-6.7,0-12.36-3.379-12.36-7.377S91.542,758,98.242,758s12.365,3.379,12.365,7.377S104.943,772.752,98.242,772.752Z" transform="translate(-83.29 -755.406)"/><path class="c" d="M87.875,765.374c0-3.8,5.11-7.034,11.366-7.351-.329-.014-.663-.026-1-.026-6.7,0-12.36,3.379-12.36,7.377s5.66,7.377,12.36,7.377c.336,0,.67-.01,1-.026C92.986,772.411,87.875,769.174,87.875,765.374Z" transform="translate(-83.29 -755.406)"/><g transform="translate(0.901 13.962)"><path class="e" d="M89.03,765.137c-.168-.046-.331-.089-.5-.137v2.171c.168.048.331.1.5.142Z" transform="translate(-80.48 -759.553)"/><path class="e" d="M96.674,765.2a7.962,7.962,0,0,0,.5-.934v-1.537c-.154.24-.322.476-.5.706Z" transform="translate(-69.066 -762.732)"/><path class="e" d="M89.51,765.23c-.171-.036-.336-.07-.5-.108V767.3c.163.039.329.077.5.111Z" transform="translate(-79.807 -759.382)"/><path class="e" d="M90.468,765.337c-.171-.017-.334-.034-.5-.053v2.19c.166.019.329.038.5.053Z" transform="translate(-78.465 -759.155)"/><path class="e" d="M89.988,765.3c-.166-.026-.331-.05-.5-.079V767.4c.168.029.334.053.5.077Z" transform="translate(-79.138 -759.249)"/><path class="e" d="M88.072,764.864c-.168-.067-.334-.137-.5-.211V766.8l.5.216Z" transform="translate(-81.823 -760.039)"/><path class="e" d="M88.552,765.015c-.171-.053-.336-.113-.5-.171V767c.163.063.329.12.5.178Z" transform="translate(-81.15 -759.771)"/><path class="e" d="M95.716,766.232c.171-.137.336-.276.5-.416v-2.024c-.163.13-.329.259-.5.384Z" transform="translate(-70.409 -761.246)"/><path class="e" d="M96.2,765.81c.175-.182.341-.367.5-.56v-1.9c-.159.168-.322.334-.5.5Z" transform="translate(-69.738 -761.871)"/><path class="e" d="M86.633,766.232v-2.056c-.171-.125-.336-.255-.5-.384v2.024C86.294,765.956,86.46,766.095,86.633,766.232Z" transform="translate(-83.835 -761.246)"/><path class="e" d="M87.591,764.677c-.168-.084-.334-.168-.5-.255v2.123c.161.091.329.18.5.264Z" transform="translate(-82.493 -760.363)"/><path class="e" d="M87.112,764.451c-.168-.1-.334-.2-.5-.312v2.087c.161.113.327.221.5.329Z" transform="translate(-83.164 -760.76)"/><path class="e" d="M91.426,767.537v-2.193c-.084,0-.168,0-.252,0s-.163,0-.247,0v2.193l.247,0Z" transform="translate(-77.122 -759.071)"/><path class="e" d="M94.758,766.809c.168-.084.334-.173.5-.264v-2.123c-.163.086-.329.171-.5.255Z" transform="translate(-71.752 -760.363)"/><path class="e" d="M95.237,766.555c.171-.108.336-.216.5-.329v-2.087c-.161.108-.327.211-.5.312Z" transform="translate(-71.08 -760.76)"/><path class="e" d="M94.279,767.018q.252-.108.5-.216v-2.149c-.163.074-.327.144-.5.211Z" transform="translate(-72.423 -760.039)"/><path class="e" d="M85.656,765.25c.159.192.324.377.5.56v-1.967c-.173-.163-.339-.329-.5-.5Z" transform="translate(-84.508 -761.871)"/><path class="e" d="M85.178,764.269a7.6,7.6,0,0,0,.5.934v-1.765c-.178-.23-.346-.466-.5-.706Z" transform="translate(-85.178 -762.732)"/><path class="e" d="M93.8,767.182c.168-.058.334-.115.5-.178v-2.159c-.168.058-.331.118-.5.171Z" transform="translate(-73.094 -759.771)"/><path class="e" d="M92.363,767.481c.168-.024.334-.048.5-.077v-2.188c-.163.029-.329.053-.5.079Z" transform="translate(-75.108 -759.249)"/><path class="e" d="M91.884,767.529c.166-.017.331-.036.5-.055v-2.19c-.168.019-.334.036-.5.053Z" transform="translate(-75.78 -759.155)"/><path class="e" d="M91.405,767.545c.168,0,.334-.014.5-.024v-2.195c-.163.01-.329.019-.5.026Z" transform="translate(-76.451 -759.097)"/><path class="e" d="M93.32,767.313c.171-.046.336-.094.5-.142V765c-.163.048-.331.091-.5.137Z" transform="translate(-73.767 -759.553)"/><path class="e" d="M92.842,767.415c.168-.034.331-.072.5-.111v-2.183c-.166.038-.331.072-.5.108Z" transform="translate(-74.437 -759.382)"/><path class="e" d="M90.946,765.353c-.166-.007-.331-.017-.5-.026v2.195c.168.01.334.019.5.024Z" transform="translate(-77.795 -759.097)"/></g></g><g transform="translate(5.303 22.346)"><path class="c" d="M115.814,766.19c0,5.507-6.7,9.966-14.954,9.966s-14.954-4.46-14.954-9.966,6.7-9.971,14.954-9.971S115.814,760.683,115.814,766.19Z" transform="translate(-85.906 -753.429)"/><rect class="c" width="29.908" height="2.793" transform="translate(0.001 9.969)"/><path class="d" d="M115.814,765.026c0,5.507-6.7,9.969-14.954,9.969s-14.954-4.462-14.954-9.969,6.7-9.969,14.954-9.969S115.814,759.519,115.814,765.026Z" transform="translate(-85.906 -755.057)"/><path class="e" d="M99.348,770.889c-6.7,0-12.363-3.379-12.363-7.377s5.663-7.375,12.363-7.375,12.363,3.377,12.363,7.375S106.051,770.889,99.348,770.889Z" transform="translate(-84.394 -753.543)"/><path class="c" d="M88.978,763.512c0-3.8,5.11-7.036,11.369-7.349-.329-.017-.663-.026-1-.026-6.7,0-12.363,3.377-12.363,7.375s5.663,7.377,12.363,7.377c.336,0,.67-.012,1-.026C94.089,770.548,88.978,767.311,88.978,763.512Z" transform="translate(-84.394 -753.543)"/><g transform="translate(0.901 13.962)"><path class="e" d="M90.132,763.273c-.168-.043-.334-.089-.5-.135v2.171c.163.05.329.1.5.142Z" transform="translate(-81.58 -757.692)"/><path class="e" d="M97.778,763.342a7.925,7.925,0,0,0,.5-.932v-1.539c-.151.24-.319.476-.5.708Z" transform="translate(-70.168 -760.871)"/><path class="e" d="M90.613,763.368c-.168-.034-.334-.07-.5-.106v2.18c.168.039.331.077.5.113Z" transform="translate(-80.91 -757.52)"/><path class="e" d="M91.57,763.472c-.168-.014-.331-.029-.5-.048v2.188c.168.022.331.038.5.053Z" transform="translate(-79.568 -757.293)"/><path class="e" d="M91.093,763.434c-.171-.024-.336-.051-.5-.077v2.188c.163.026.329.05.5.077Z" transform="translate(-80.238 -757.387)"/><path class="e" d="M89.174,763c-.168-.07-.334-.142-.5-.211v2.147c.163.074.329.146.5.214Z" transform="translate(-82.923 -758.177)"/><path class="e" d="M89.655,763.158c-.168-.058-.334-.115-.5-.175v2.164c.166.06.331.12.5.175Z" transform="translate(-82.253 -757.911)"/><path class="e" d="M96.82,764.369c.171-.132.336-.274.5-.413v-2.024c-.161.13-.327.259-.5.386Z" transform="translate(-71.511 -759.385)"/><path class="e" d="M97.3,763.953c.173-.183.341-.372.5-.562v-1.907c-.161.17-.324.336-.5.5Z" transform="translate(-70.839 -760.012)"/><path class="e" d="M87.738,764.369v-2.051c-.171-.127-.336-.257-.5-.386v2.024C87.4,764.095,87.568,764.237,87.738,764.369Z" transform="translate(-84.938 -759.385)"/><path class="e" d="M88.7,762.815c-.168-.082-.334-.168-.5-.255v2.123c.166.089.331.18.5.264Z" transform="translate(-83.596 -758.502)"/><path class="e" d="M88.216,762.59c-.171-.1-.336-.207-.5-.312v2.084c.161.113.327.221.5.329Z" transform="translate(-84.266 -758.899)"/><path class="e" d="M92.529,765.674v-2.193c-.084,0-.166,0-.25,0s-.166,0-.25,0v2.193c.084,0,.168.007.25.007S92.444,765.677,92.529,765.674Z" transform="translate(-78.225 -757.212)"/><path class="e" d="M95.861,764.948c.171-.084.339-.175.5-.264v-2.123c-.163.087-.329.173-.5.255Z" transform="translate(-72.855 -758.502)"/><path class="e" d="M96.341,764.691c.168-.108.334-.216.5-.329v-2.084c-.163.106-.329.209-.5.312Z" transform="translate(-72.182 -758.899)"/><path class="e" d="M95.383,765.154c.168-.067.331-.139.5-.214v-2.147c-.166.07-.329.142-.5.211Z" transform="translate(-73.525 -758.177)"/><path class="e" d="M86.761,763.391c.154.19.322.379.5.562v-1.969c-.175-.161-.341-.329-.5-.5Z" transform="translate(-85.608 -760.012)"/><path class="e" d="M86.281,762.408a7.788,7.788,0,0,0,.5.934v-1.763c-.178-.233-.346-.468-.5-.708Z" transform="translate(-86.281 -760.871)"/><path class="e" d="M94.9,765.322c.171-.055.336-.115.5-.175v-2.164c-.163.06-.329.118-.5.175Z" transform="translate(-74.197 -757.911)"/><path class="e" d="M93.467,765.621l.5-.077v-2.188c-.166.026-.331.053-.5.077Z" transform="translate(-76.21 -757.387)"/><path class="e" d="M92.987,765.664c.171-.014.334-.031.5-.053v-2.188c-.166.019-.329.034-.5.048Z" transform="translate(-76.883 -757.293)"/><path class="e" d="M92.509,765.683c.166,0,.331-.014.5-.024v-2.193l-.5.026Z" transform="translate(-77.552 -757.234)"/><path class="e" d="M94.425,765.452c.166-.046.331-.091.5-.142v-2.171c-.166.046-.331.091-.5.135Z" transform="translate(-74.867 -757.692)"/><path class="e" d="M93.945,765.555c.17-.036.336-.074.5-.113v-2.18c-.161.036-.327.072-.5.106Z" transform="translate(-75.54 -757.52)"/><path class="e" d="M92.048,763.492l-.5-.026v2.193c.163.01.329.019.5.024Z" transform="translate(-78.895 -757.234)"/></g></g><g transform="translate(0 17.874)"><path class="c" d="M113.606,764.329c0,5.507-6.693,9.969-14.952,9.969S83.7,769.836,83.7,764.329s6.7-9.971,14.957-9.971S113.606,758.822,113.606,764.329Z" transform="translate(-83.698 -751.565)"/><rect class="c" width="29.908" height="2.791" transform="translate(0.001 9.973)"/><path class="d" d="M113.606,763.169c0,5.5-6.693,9.969-14.952,9.969S83.7,768.673,83.7,763.169s6.7-9.973,14.957-9.973S113.606,757.662,113.606,763.169Z" transform="translate(-83.698 -753.195)"/><path class="e" d="M97.142,769.032c-6.7,0-12.365-3.381-12.365-7.377s5.665-7.38,12.365-7.38,12.36,3.379,12.36,7.38S103.842,769.032,97.142,769.032Z" transform="translate(-82.186 -751.681)"/><path class="c" d="M86.77,761.655c0-3.8,5.11-7.036,11.369-7.353-.329-.017-.663-.026-1-.026-6.7,0-12.365,3.379-12.365,7.38s5.665,7.377,12.365,7.377c.334,0,.668-.012,1-.029C91.881,768.689,86.77,765.454,86.77,761.655Z" transform="translate(-82.186 -751.681)"/><g transform="translate(0.903 13.965)"><path class="e" d="M87.926,761.414c-.171-.043-.334-.086-.5-.137v2.173c.166.05.329.1.5.142Z" transform="translate(-79.375 -755.833)"/><path class="e" d="M95.57,761.481a7.943,7.943,0,0,0,.5-.934V759.01a8.426,8.426,0,0,1-.5.708Z" transform="translate(-67.962 -759.01)"/><path class="e" d="M88.4,761.508q-.249-.05-.5-.108v2.183c.166.036.331.077.5.113Z" transform="translate(-78.703 -755.66)"/><path class="e" d="M89.361,761.613l-.5-.05v2.19c.166.017.331.036.5.05Z" transform="translate(-77.361 -755.432)"/><path class="e" d="M88.885,761.572c-.168-.022-.334-.048-.5-.077v2.188c.166.029.331.055.5.079Z" transform="translate(-78.032 -755.528)"/><path class="e" d="M86.969,761.143c-.171-.07-.336-.139-.5-.211v2.147c.163.075.329.146.5.216Z" transform="translate(-80.717 -756.316)"/><path class="e" d="M87.445,761.293c-.166-.053-.331-.11-.5-.17v2.161c.166.062.331.118.5.175Z" transform="translate(-80.046 -756.049)"/><path class="e" d="M94.612,762.51c.173-.137.339-.274.5-.415V760.07c-.158.132-.327.259-.5.387Z" transform="translate(-69.305 -757.525)"/><path class="e" d="M95.091,762.089c.175-.183.341-.37.5-.557v-1.909c-.161.17-.327.339-.5.5Z" transform="translate(-68.634 -758.151)"/><path class="e" d="M85.529,762.51v-2.053c-.171-.127-.336-.254-.5-.387v2.025C85.193,762.236,85.359,762.373,85.529,762.51Z" transform="translate(-82.731 -757.525)"/><path class="e" d="M86.487,760.958c-.168-.086-.331-.17-.5-.259v2.125c.163.089.329.178.5.264Z" transform="translate(-81.389 -756.643)"/><path class="e" d="M86.009,760.729c-.173-.1-.339-.207-.5-.312V762.5c.158.113.324.223.5.329Z" transform="translate(-82.059 -757.038)"/><path class="e" d="M90.319,763.816v-2.195c-.082,0-.163,0-.247,0s-.166,0-.25,0v2.195c.084,0,.166,0,.25,0S90.237,763.816,90.319,763.816Z" transform="translate(-76.018 -755.351)"/><path class="e" d="M93.654,763.088c.171-.086.336-.175.5-.264V760.7c-.163.089-.327.173-.5.259Z" transform="translate(-70.648 -756.643)"/><path class="e" d="M94.134,762.831c.168-.106.331-.216.5-.329v-2.085c-.166.106-.329.211-.5.312Z" transform="translate(-69.975 -757.038)"/><path class="e" d="M93.176,763.3q.249-.1.5-.216v-2.147c-.166.072-.331.142-.5.211Z" transform="translate(-71.318 -756.316)"/><path class="e" d="M84.553,761.532c.154.19.324.375.5.557v-1.967c-.173-.161-.339-.329-.5-.5Z" transform="translate(-83.403 -758.151)"/><path class="e" d="M84.074,760.547a7.793,7.793,0,0,0,.5.934v-1.763c-.178-.233-.346-.468-.5-.708Z" transform="translate(-84.074 -759.01)"/><path class="e" d="M92.7,763.46c.17-.058.336-.113.5-.173v-2.164c-.163.06-.327.118-.5.17Z" transform="translate(-71.99 -756.049)"/><path class="e" d="M91.259,763.762c.168-.024.334-.051.5-.079V761.5c-.166.029-.331.055-.5.077Z" transform="translate(-74.004 -755.528)"/><path class="e" d="M90.78,763.8c.168-.014.334-.034.5-.05v-2.19l-.5.05Z" transform="translate(-74.676 -755.432)"/><path class="e" d="M90.3,763.822c.168-.007.331-.012.5-.024v-2.193c-.168.01-.331.017-.5.024Z" transform="translate(-75.347 -755.373)"/><path class="e" d="M92.217,763.592c.168-.043.334-.094.5-.142v-2.173c-.166.05-.331.094-.5.137Z" transform="translate(-72.662 -755.833)"/><path class="e" d="M91.738,763.7c.171-.036.334-.077.5-.113V761.4q-.245.057-.5.108Z" transform="translate(-73.333 -755.66)"/><path class="e" d="M89.843,761.629c-.168-.007-.334-.014-.5-.024V763.8c.166.012.331.017.5.024Z" transform="translate(-76.69 -755.373)"/></g></g><g transform="translate(1.59 13.408)"><path class="c" d="M114.271,762.468c0,5.5-6.7,9.971-14.954,9.971s-14.957-4.467-14.957-9.971,6.7-9.971,14.957-9.971S114.271,756.961,114.271,762.468Z" transform="translate(-84.36 -749.706)"/><rect class="c" width="29.911" height="2.791" transform="translate(0.001 9.969)"/><path class="d" d="M114.271,761.3c0,5.507-6.7,9.971-14.954,9.971S84.36,766.81,84.36,761.3s6.7-9.969,14.957-9.969S114.271,755.8,114.271,761.3Z" transform="translate(-84.36 -751.335)"/><path class="e" d="M97.8,767.171c-6.7,0-12.363-3.381-12.363-7.38s5.663-7.377,12.363-7.377,12.36,3.376,12.36,7.377S104.5,767.171,97.8,767.171Z" transform="translate(-82.846 -749.823)"/><path class="c" d="M87.433,759.791c0-3.8,5.108-7.034,11.366-7.349-.329-.017-.66-.029-1-.029-6.7,0-12.363,3.376-12.363,7.377s5.663,7.38,12.363,7.38c.336,0,.668-.012,1-.029C92.541,766.828,87.433,763.59,87.433,759.791Z" transform="translate(-82.846 -749.823)"/><g transform="translate(0.903 13.962)"><path class="e" d="M88.589,759.554c-.168-.046-.334-.089-.5-.137v2.171c.166.05.331.1.5.142Z" transform="translate(-80.037 -753.97)"/><path class="e" d="M96.232,759.62a7.613,7.613,0,0,0,.5-.934v-1.537a8.165,8.165,0,0,1-.5.706Z" transform="translate(-68.624 -757.149)"/><path class="e" d="M89.068,759.647c-.168-.034-.334-.07-.5-.108v2.183c.166.038.331.079.5.111Z" transform="translate(-79.365 -753.799)"/><path class="e" d="M90.023,759.754c-.166-.014-.329-.034-.5-.053v2.19c.168.019.331.039.5.053Z" transform="translate(-78.023 -753.572)"/><path class="e" d="M89.546,759.712l-.5-.077v2.185c.166.029.334.053.5.079Z" transform="translate(-78.694 -753.665)"/><path class="e" d="M87.631,759.281c-.168-.065-.334-.137-.5-.211v2.149c.163.074.331.144.5.216Z" transform="translate(-81.379 -754.457)"/><path class="e" d="M88.11,759.435c-.168-.055-.334-.115-.5-.173v2.161c.166.062.331.118.5.173Z" transform="translate(-80.708 -754.188)"/><path class="e" d="M95.274,760.649c.173-.137.339-.276.5-.415v-2.024c-.161.132-.329.257-.5.384Z" transform="translate(-69.967 -755.664)"/><path class="e" d="M95.754,760.227c.173-.182.341-.367.5-.557v-1.907c-.159.168-.327.334-.5.5Z" transform="translate(-69.294 -756.288)"/><path class="e" d="M86.194,760.649v-2.055c-.171-.127-.336-.252-.5-.384v2.024C85.855,760.373,86.021,760.512,86.194,760.649Z" transform="translate(-83.393 -755.664)"/><path class="e" d="M87.149,759.094c-.168-.084-.331-.168-.5-.255v2.123c.163.091.329.178.5.266Z" transform="translate(-82.051 -754.781)"/><path class="e" d="M86.671,758.867c-.171-.1-.339-.2-.5-.31v2.084c.158.111.327.221.5.329Z" transform="translate(-82.721 -755.176)"/><path class="e" d="M90.981,761.954v-2.193l-.247,0-.25,0v2.193c.086,0,.168,0,.25,0S90.9,761.954,90.981,761.954Z" transform="translate(-76.68 -753.488)"/><path class="e" d="M94.316,761.229c.17-.089.336-.175.5-.266v-2.123c-.163.086-.329.17-.5.255Z" transform="translate(-71.31 -754.781)"/><path class="e" d="M94.8,760.97c.168-.108.336-.219.5-.329v-2.084c-.161.106-.329.209-.5.31Z" transform="translate(-70.637 -755.176)"/><path class="e" d="M93.838,761.435c.166-.072.334-.142.5-.216V759.07c-.163.074-.329.146-.5.211Z" transform="translate(-71.98 -754.457)"/><path class="e" d="M85.215,759.67c.156.19.324.375.5.557v-1.964c-.173-.166-.341-.331-.5-.5Z" transform="translate(-84.065 -756.288)"/><path class="e" d="M84.736,758.686a7.589,7.589,0,0,0,.5.934v-1.765c-.175-.228-.346-.466-.5-.706Z" transform="translate(-84.736 -757.149)"/><path class="e" d="M93.358,761.6c.168-.055.336-.111.5-.173v-2.161c-.166.058-.331.118-.5.173Z" transform="translate(-72.652 -754.188)"/><path class="e" d="M91.922,761.9c.166-.026.334-.05.5-.079v-2.185c-.163.026-.331.05-.5.077Z" transform="translate(-74.665 -753.665)"/><path class="e" d="M91.442,761.946c.171-.017.334-.036.5-.055V759.7c-.166.019-.329.038-.5.053Z" transform="translate(-75.338 -753.572)"/><path class="e" d="M90.963,761.96c.168-.007.334-.014.5-.026v-2.19c-.166.01-.331.019-.5.024Z" transform="translate(-76.009 -753.512)"/><path class="e" d="M92.88,761.73c.166-.046.331-.091.5-.142v-2.171c-.163.048-.331.091-.5.137Z" transform="translate(-73.322 -753.97)"/><path class="e" d="M92.4,761.832c.17-.031.334-.072.5-.111v-2.183c-.163.038-.327.074-.5.108Z" transform="translate(-73.995 -753.799)"/><path class="e" d="M90.5,759.768c-.166,0-.334-.015-.5-.024v2.19c.166.012.334.019.5.026Z" transform="translate(-77.352 -753.512)"/></g></g><g transform="translate(4.243 8.938)"><path class="c" d="M115.373,760.6c0,5.507-6.7,9.971-14.954,9.971S85.465,766.11,85.465,760.6s6.7-9.966,14.954-9.966S115.373,755.1,115.373,760.6Z" transform="translate(-85.465 -747.844)"/><rect class="c" width="29.908" height="2.791" transform="translate(0 9.969)"/><path class="d" d="M115.373,759.442c0,5.507-6.7,9.971-14.954,9.971s-14.954-4.464-14.954-9.971,6.7-9.969,14.954-9.969S115.373,753.936,115.373,759.442Z" transform="translate(-85.465 -749.474)"/><path class="e" d="M98.907,765.308c-6.7,0-12.363-3.377-12.363-7.378s5.66-7.377,12.363-7.377,12.363,3.379,12.363,7.377S105.6,765.308,98.907,765.308Z" transform="translate(-83.953 -747.962)"/><path class="c" d="M88.537,757.93c0-3.8,5.11-7.036,11.366-7.351-.329-.014-.663-.026-1-.026-6.7,0-12.363,3.379-12.363,7.377s5.66,7.378,12.363,7.378c.334,0,.668-.01,1-.027C93.648,764.967,88.537,761.729,88.537,757.93Z" transform="translate(-83.953 -747.962)"/><g transform="translate(0.901 13.962)"><path class="e" d="M89.692,757.689c-.166-.043-.331-.086-.5-.132v2.169c.168.05.334.1.5.144Z" transform="translate(-81.142 -752.108)"/><path class="e" d="M97.336,757.757a7.728,7.728,0,0,0,.5-.932v-1.537c-.154.242-.322.475-.5.706Z" transform="translate(-69.728 -755.288)"/><path class="e" d="M90.172,757.786c-.168-.034-.336-.072-.5-.108v2.183c.163.041.331.077.5.113Z" transform="translate(-80.469 -751.938)"/><path class="e" d="M91.13,757.891c-.168-.012-.334-.031-.5-.05v2.19c.166.022.331.038.5.053Z" transform="translate(-79.127 -751.711)"/><path class="e" d="M90.65,757.851c-.166-.024-.331-.051-.5-.077v2.188c.168.026.334.053.5.077Z" transform="translate(-79.8 -751.804)"/><path class="e" d="M88.732,757.421c-.168-.067-.331-.139-.5-.211v2.147c.163.075.331.144.5.214Z" transform="translate(-82.483 -752.594)"/><path class="e" d="M89.213,757.575c-.168-.058-.334-.113-.5-.175v2.164c.163.06.331.12.5.175Z" transform="translate(-81.812 -752.328)"/><path class="e" d="M96.378,758.785c.17-.134.339-.271.5-.415v-2.022c-.161.13-.329.259-.5.384Z" transform="translate(-71.071 -753.802)"/><path class="e" d="M96.857,758.367c.175-.182.343-.367.5-.559V755.9c-.159.173-.322.336-.5.5Z" transform="translate(-70.4 -754.429)"/><path class="e" d="M87.3,758.785v-2.053c-.17-.125-.339-.255-.5-.384v2.022C86.956,758.514,87.125,758.651,87.3,758.785Z" transform="translate(-84.497 -753.802)"/><path class="e" d="M88.256,757.232c-.168-.082-.336-.168-.5-.254V759.1c.161.091.331.182.5.269Z" transform="translate(-83.155 -752.919)"/><path class="e" d="M87.774,757.007c-.168-.1-.334-.207-.5-.312v2.087c.163.11.329.221.5.329Z" transform="translate(-83.826 -753.316)"/><path class="e" d="M92.088,760.094v-2.2c-.084,0-.166,0-.25,0s-.166,0-.25,0v2.2c.084,0,.166,0,.25,0S92,760.1,92.088,760.094Z" transform="translate(-77.784 -751.629)"/><path class="e" d="M95.42,759.367c.168-.087.336-.178.5-.269v-2.121c-.163.086-.331.173-.5.254Z" transform="translate(-72.414 -752.919)"/><path class="e" d="M95.9,759.111c.17-.108.336-.219.5-.329V756.7c-.161.108-.327.211-.5.312Z" transform="translate(-71.742 -753.316)"/><path class="e" d="M94.941,759.571c.168-.07.334-.139.5-.214V757.21c-.163.072-.327.144-.5.211Z" transform="translate(-73.085 -752.594)"/><path class="e" d="M86.319,757.808c.156.192.322.377.5.559V756.4c-.171-.163-.336-.327-.5-.5Z" transform="translate(-85.169 -754.429)"/><path class="e" d="M85.84,756.825a7.713,7.713,0,0,0,.5.932v-1.763c-.175-.23-.346-.464-.5-.706Z" transform="translate(-85.84 -755.288)"/><path class="e" d="M94.462,759.739c.168-.055.336-.115.5-.175V757.4c-.166.063-.331.118-.5.175Z" transform="translate(-73.756 -752.328)"/><path class="e" d="M93.025,760.039c.168-.024.334-.051.5-.077v-2.188c-.166.026-.329.053-.5.077Z" transform="translate(-75.77 -751.804)"/><path class="e" d="M92.546,760.083c.168-.015.334-.031.5-.053v-2.19c-.166.019-.331.038-.5.05Z" transform="translate(-76.442 -751.711)"/><path class="e" d="M92.067,760.1c.168-.007.334-.014.5-.026v-2.193c-.163.01-.329.019-.5.026Z" transform="translate(-77.113 -751.651)"/><path class="e" d="M93.983,759.87c.168-.048.334-.094.5-.144v-2.169c-.163.046-.329.089-.5.132Z" transform="translate(-74.428 -752.108)"/><path class="e" d="M93.5,759.974c.168-.036.334-.072.5-.113v-2.183c-.163.036-.331.074-.5.108Z" transform="translate(-75.099 -751.938)"/><path class="e" d="M91.608,757.909c-.168-.007-.334-.017-.5-.026v2.193c.166.012.331.019.5.026Z" transform="translate(-78.455 -751.651)"/></g></g><g transform="translate(0.531 4.469)"><path class="c" d="M113.827,758.746c0,5.507-6.7,9.969-14.954,9.969s-14.954-4.462-14.954-9.969,6.7-9.971,14.954-9.971S113.827,753.239,113.827,758.746Z" transform="translate(-83.919 -745.984)"/><rect class="c" width="29.908" height="2.791" transform="translate(0 9.97)"/><path class="d" d="M113.827,757.584c0,5.5-6.7,9.969-14.954,9.969s-14.954-4.464-14.954-9.969,6.7-9.971,14.954-9.971S113.827,752.077,113.827,757.584Z" transform="translate(-83.919 -747.613)"/><path class="e" d="M97.359,763.447c-6.7,0-12.361-3.377-12.361-7.375s5.66-7.38,12.361-7.38,12.363,3.381,12.363,7.38S104.06,763.447,97.359,763.447Z" transform="translate(-82.405 -746.101)"/><path class="c" d="M86.99,756.072c0-3.8,5.11-7.036,11.366-7.353-.327-.014-.66-.026-1-.026-6.7,0-12.361,3.381-12.361,7.38s5.66,7.375,12.361,7.375c.336,0,.67-.01,1-.026C92.1,763.106,86.99,759.871,86.99,756.072Z" transform="translate(-82.405 -746.101)"/><g transform="translate(0.903 13.962)"><path class="e" d="M88.147,755.829c-.166-.043-.334-.086-.5-.134v2.173c.168.046.331.1.5.139Z" transform="translate(-79.597 -750.249)"/><path class="e" d="M95.791,755.9a7.616,7.616,0,0,0,.5-.934v-1.537c-.151.24-.322.475-.5.708Z" transform="translate(-68.183 -753.427)"/><path class="e" d="M88.626,755.925c-.168-.034-.336-.07-.5-.108V758c.163.036.331.075.5.111Z" transform="translate(-78.924 -750.078)"/><path class="e" d="M89.582,756.028c-.166-.014-.334-.031-.5-.048v2.19c.163.017.331.036.5.05Z" transform="translate(-77.582 -749.849)"/><path class="e" d="M89.1,755.991c-.166-.024-.331-.05-.5-.079v2.19c.166.029.334.053.5.077Z" transform="translate(-78.255 -749.944)"/><path class="e" d="M87.189,755.56c-.171-.07-.334-.139-.5-.211V757.5c.166.075.331.147.5.216Z" transform="translate(-80.94 -750.733)"/><path class="e" d="M87.667,755.71c-.168-.053-.334-.113-.5-.171V757.7c.163.063.334.12.5.18Z" transform="translate(-80.268 -750.466)"/><path class="e" d="M94.833,756.928c.17-.137.339-.274.5-.415v-2.027c-.161.134-.329.262-.5.389Z" transform="translate(-69.526 -751.943)"/><path class="e" d="M95.311,756.5c.178-.182.343-.367.5-.56v-1.9c-.161.168-.327.336-.5.5Z" transform="translate(-68.856 -752.566)"/><path class="e" d="M85.751,756.928v-2.053c-.168-.128-.339-.255-.5-.389v2.027C85.413,756.654,85.581,756.791,85.751,756.928Z" transform="translate(-82.954 -751.943)"/><path class="e" d="M86.708,755.372c-.168-.082-.336-.168-.5-.255v2.123c.161.091.329.178.5.264Z" transform="translate(-81.61 -751.058)"/><path class="e" d="M86.23,755.146c-.168-.1-.334-.2-.5-.312v2.085c.166.115.331.223.5.331Z" transform="translate(-82.282 -751.455)"/><path class="e" d="M90.54,758.232v-2.193c-.084,0-.163,0-.25,0s-.166,0-.247,0v2.193c.082,0,.163,0,.247,0S90.456,758.234,90.54,758.232Z" transform="translate(-76.239 -749.766)"/><path class="e" d="M93.875,757.5c.168-.086.336-.173.5-.264v-2.123c-.163.086-.329.173-.5.255Z" transform="translate(-70.869 -751.058)"/><path class="e" d="M94.353,757.25c.173-.108.339-.216.5-.331v-2.085c-.161.108-.327.211-.5.312Z" transform="translate(-70.199 -751.455)"/><path class="e" d="M93.4,757.712c.171-.07.336-.142.5-.216v-2.147c-.163.072-.329.142-.5.211Z" transform="translate(-71.541 -750.733)"/><path class="e" d="M84.773,755.945c.158.192.324.377.5.56v-1.967c-.173-.161-.339-.329-.5-.5Z" transform="translate(-83.625 -752.566)"/><path class="e" d="M84.295,754.962a7.167,7.167,0,0,0,.5.937v-1.763c-.178-.233-.348-.468-.5-.708Z" transform="translate(-84.295 -753.427)"/><path class="e" d="M92.917,757.879c.166-.06.336-.117.5-.18V755.54c-.163.058-.331.118-.5.171Z" transform="translate(-72.211 -750.466)"/><path class="e" d="M91.479,758.179c.171-.024.336-.048.5-.077v-2.19c-.168.029-.331.055-.5.079Z" transform="translate(-74.227 -749.944)"/><path class="e" d="M91,758.223l.5-.053v-2.19c-.166.017-.334.034-.5.048Z" transform="translate(-74.897 -749.849)"/><path class="e" d="M90.521,758.24l.5-.022v-2.2c-.166.01-.329.019-.5.026Z" transform="translate(-75.569 -749.791)"/><path class="e" d="M92.438,758.008c.168-.043.334-.094.5-.139V755.7c-.163.048-.329.091-.5.134Z" transform="translate(-72.883 -750.249)"/><path class="e" d="M91.959,758.113c.168-.036.334-.075.5-.111v-2.185c-.163.038-.331.074-.5.108Z" transform="translate(-73.554 -750.078)"/><path class="e" d="M90.061,756.047c-.166-.007-.331-.017-.5-.026v2.2l.5.022Z" transform="translate(-76.91 -749.791)"/></g></g><g transform="translate(4.243)"><path class="c" d="M115.373,756.885c0,5.5-6.7,9.971-14.954,9.971s-14.954-4.467-14.954-9.971,6.7-9.971,14.954-9.971S115.373,751.381,115.373,756.885Z" transform="translate(-85.465 -744.124)"/><rect class="c" width="29.908" height="2.793" transform="translate(0 9.969)"/><path class="d" d="M115.373,755.721c0,5.507-6.7,9.971-14.954,9.971s-14.954-4.464-14.954-9.971,6.7-9.969,14.954-9.969S115.373,750.217,115.373,755.721Z" transform="translate(-85.465 -745.752)"/><path class="e" d="M98.907,761.588c-6.7,0-12.363-3.381-12.363-7.38s5.66-7.377,12.363-7.377,12.363,3.379,12.363,7.377S105.6,761.588,98.907,761.588Z" transform="translate(-83.953 -744.24)"/><path class="c" d="M88.537,754.209c0-3.8,5.11-7.034,11.366-7.349-.329-.017-.663-.029-1-.029-6.7,0-12.363,3.379-12.363,7.377s5.66,7.38,12.363,7.38c.334,0,.668-.012,1-.026C93.648,761.245,88.537,758.008,88.537,754.209Z" transform="translate(-83.953 -744.24)"/><g transform="translate(0.901 13.962)"><path class="e" d="M89.692,753.971c-.166-.046-.331-.089-.5-.137V756c.168.05.334.1.5.142Z" transform="translate(-81.142 -748.387)"/><path class="e" d="M97.336,754.037a7.777,7.777,0,0,0,.5-.934v-1.537c-.154.24-.322.478-.5.706Z" transform="translate(-69.728 -751.566)"/><path class="e" d="M90.172,754.063c-.168-.034-.336-.067-.5-.106v2.181c.163.039.331.075.5.113Z" transform="translate(-80.469 -748.215)"/><path class="e" d="M91.13,754.169c-.168-.017-.334-.031-.5-.05v2.19c.166.019.331.036.5.053Z" transform="translate(-79.127 -747.988)"/><path class="e" d="M90.65,754.129c-.166-.024-.331-.051-.5-.077v2.188c.168.029.334.051.5.074Z" transform="translate(-79.8 -748.082)"/><path class="e" d="M88.732,753.7c-.168-.07-.331-.139-.5-.211v2.149l.5.216Z" transform="translate(-82.483 -748.872)"/><path class="e" d="M89.213,753.85c-.168-.055-.334-.115-.5-.171v2.159c.163.062.331.12.5.175Z" transform="translate(-81.812 -748.603)"/><path class="e" d="M96.378,755.068c.17-.139.339-.279.5-.418v-2.024c-.161.132-.329.259-.5.387Z" transform="translate(-71.071 -750.08)"/><path class="e" d="M96.857,754.646c.175-.185.343-.37.5-.559V752.18c-.159.168-.322.334-.5.5Z" transform="translate(-70.4 -750.706)"/><path class="e" d="M87.3,755.068v-2.056c-.17-.127-.339-.254-.5-.387v2.024C86.956,754.79,87.125,754.929,87.3,755.068Z" transform="translate(-84.497 -750.08)"/><path class="e" d="M88.256,753.51c-.168-.082-.336-.168-.5-.255v2.123c.161.091.331.18.5.264Z" transform="translate(-83.155 -749.197)"/><path class="e" d="M87.774,753.287c-.168-.1-.334-.206-.5-.314v2.087c.163.113.329.221.5.329Z" transform="translate(-83.826 -749.594)"/><path class="e" d="M92.088,756.371v-2.193c-.084,0-.166,0-.25,0s-.166,0-.25,0v2.193c.084,0,.166,0,.25,0S92,756.373,92.088,756.371Z" transform="translate(-77.784 -747.905)"/><path class="e" d="M95.42,755.643c.168-.084.336-.173.5-.264v-2.123c-.163.086-.331.173-.5.255Z" transform="translate(-72.414 -749.197)"/><path class="e" d="M95.9,755.389c.17-.108.336-.216.5-.329v-2.087c-.161.108-.327.211-.5.314Z" transform="translate(-71.742 -749.594)"/><path class="e" d="M94.941,755.854q.252-.108.5-.216v-2.149c-.163.072-.327.142-.5.211Z" transform="translate(-73.085 -748.872)"/><path class="e" d="M86.319,754.087c.156.19.322.375.5.559v-1.969q-.256-.245-.5-.5Z" transform="translate(-85.169 -750.706)"/><path class="e" d="M85.84,753.1a7.936,7.936,0,0,0,.5.934v-1.765c-.175-.228-.346-.466-.5-.706Z" transform="translate(-85.84 -751.566)"/><path class="e" d="M94.462,756.014c.168-.055.336-.113.5-.175V753.68c-.166.055-.331.115-.5.171Z" transform="translate(-73.756 -748.603)"/><path class="e" d="M93.025,756.314c.168-.024.334-.046.5-.074v-2.188c-.166.026-.329.053-.5.077Z" transform="translate(-75.77 -748.082)"/><path class="e" d="M92.546,756.362c.168-.017.334-.034.5-.053v-2.19c-.166.019-.331.034-.5.05Z" transform="translate(-76.442 -747.988)"/><path class="e" d="M92.067,756.379c.168,0,.334-.014.5-.024v-2.2c-.163.012-.329.022-.5.026Z" transform="translate(-77.113 -747.931)"/><path class="e" d="M93.983,756.147c.168-.046.334-.091.5-.142v-2.171c-.163.048-.329.091-.5.137Z" transform="translate(-74.428 -748.387)"/><path class="e" d="M93.5,756.25c.168-.038.334-.074.5-.113v-2.181c-.163.039-.331.072-.5.106Z" transform="translate(-75.099 -748.215)"/><path class="e" d="M91.608,754.187c-.168,0-.334-.014-.5-.026v2.2c.166.01.331.019.5.024Z" transform="translate(-78.455 -747.931)"/></g></g></g></g></svg>