<svg xmlns="http://www.w3.org/2000/svg" width="94.045" height="94.045" viewBox="0 0 94.045 94.045"><defs><style>.a{fill:#ffc107;}.b{fill:#a9e1e9;}.c{fill:#00658a;}.d{fill:#35bed1;}.e{fill:#eab61a;}</style></defs><g transform="translate(0 0)"><path class="a" d="M263.5,548.353a47.022,47.022,0,1,1-47.023-47.022A47.022,47.022,0,0,1,263.5,548.353Z" transform="translate(-169.454 -501.331)"/><g transform="translate(11.607 28.711)"><path class="b" d="M175.43,521.969l10.154,15.721,49.889-22.183Z" transform="translate(-175.43 -515.507)"/><path class="c" d="M180.657,537.69l10.127,3.5,39.761-25.683Z" transform="translate(-170.504 -515.507)"/><path class="b" d="M195.53,567.583l-10.158-15.719L226.1,515.507Z" transform="translate(-166.06 -515.507)"/><path class="d" d="M185.372,551.864l.969-10.674L226.1,515.507Z" transform="translate(-166.06 -515.507)"/></g><path class="e" d="M242.192,534.2a47.246,47.246,0,0,0-.427-6.239l-21.049-12.225L190.82,566.658l19.824,11.52A46.445,46.445,0,0,0,242.192,534.2Z" transform="translate(-148.147 -486.584)"/></g></svg>