<svg xmlns="http://www.w3.org/2000/svg" width="53.902" height="53.902" viewBox="0 0 53.902 53.902"><defs><style>.a{fill:#ffc107;}.b{fill:#00658a;}.c{fill:#003f56;}.d{fill:#fff;}.e{fill:#eab61a;}</style></defs><path class="a" d="M223.4,135.785a26.951,26.951,0,1,1-26.953-26.95A26.952,26.952,0,0,1,223.4,135.785Z" transform="translate(-169.502 -108.835)"/><g transform="translate(10.331 16.171)"><path class="b" d="M181.7,125.818V137.9h.007c.176,2.387,5.111,4.3,11.167,4.3s10.994-1.916,11.167-4.3h.012v-12.08Z" transform="translate(-176.433 -120.383)"/><path class="c" d="M192.534,136.282c-4.587-2.494-10.963-4.385-16.446-7.485,0-.4.014-.8.044-1.209,5.668-2.536,11.815-4.1,16.4-6.274,4.59,2.172,10.735,3.784,16.4,6.325.027.4.042.755.042,1.157C203.5,131.9,197.123,133.787,192.534,136.282Z" transform="translate(-176.088 -120.106)"/><path class="b" d="M192.534,135c-4.587-2.5-10.963-4.386-16.446-7.487,5.483-3.1,11.859-4.99,16.444-7.482,4.59,2.492,10.923,4.434,16.4,7.533C203.455,130.661,197.123,132.5,192.534,135Z" transform="translate(-176.088 -120.027)"/><path class="d" d="M185.1,135.2a.36.36,0,0,1-.359-.36v-2.123a.364.364,0,0,1,.183-.317l7.223-4.1a.36.36,0,0,1,.492.137.363.363,0,0,1-.135.492l-7.04,4v1.914A.36.36,0,0,1,185.1,135.2Z" transform="translate(-176.619 -120.533)"/><path class="c" d="M186.016,136.231a.962.962,0,0,0-1.924,0v.491h1.924Z" transform="translate(-176.58 -120.965)"/><path class="c" d="M184.092,141.754a.962.962,0,1,0,1.924,0v-3.846h-1.924Z" transform="translate(-176.58 -121.127)"/><rect class="d" width="1.924" height="1.024" transform="translate(7.512 15.757)"/></g><path class="e" d="M222.229,137.814c-3.657-1.791-4.716-2.249-10.649-5.446.033.465.088.609.088,1.073a50.668,50.668,0,0,1-5.376,2.733v6.182c-.209,2.873-5.313,4.183-10.083,4.371a25.347,25.347,0,0,1-8-1.016c-.111.524-.962.687-1.523.687-.059,0,1.04.687,1.04.687L207.387,159.8C216.25,155.384,222.229,148.386,222.229,137.814Z" transform="translate(-168.44 -108.715)"/></svg>