<svg xmlns="http://www.w3.org/2000/svg" width="53.236" height="53.204" viewBox="0 0 53.236 53.204"><defs><style>.a{fill:#495057;}.b{fill:#fc6171;}.c{fill:#fff;}.d{fill:#90f0f3;}.e{fill:#343b43;}</style></defs><path d="M109.018,415.628A26.429,26.429,0,1,1,82.589,389.2,26.43,26.43,0,0,1,109.018,415.628Z" transform="translate(-55.782 -389.026)"/><g transform="translate(0 0)"><path class="a" d="M109.023,415.644a26.6,26.6,0,1,1-26.605-26.6A26.6,26.6,0,0,1,109.023,415.644Z" transform="translate(-55.816 -389.042)"/><g transform="translate(14.934 9.41)"><path class="b" d="M72.991,419.936l-2.674.248-1.058-2.471,8.9-13.548,2.5,1.487Z" transform="translate(-69.259 -396.767)"/><path class="b" d="M86.8,426.422l-6.173,4.543-6.174-4.543L77.3,404.165h6.644Z" transform="translate(-68.748 -396.767)"/><path class="b" d="M82.777,397.43H78.153l-2.035,3.041,1.018,4.357h6.657l1.019-4.357Z" transform="translate(-68.584 -397.43)"/><g transform="translate(5.811 7.398)"><path class="c" d="M83.368,426.607l1.417-1.047-7.13,1.346.841.619Z" transform="translate(-74.243 -402.06)"/><path class="c" d="M86.625,423.846l-.1-.76-11.267,2.128.838.619Z" transform="translate(-74.479 -402.303)"/><path class="c" d="M86.389,421.681l-.094-.758-11.643,2.2-.1.795Z" transform="translate(-74.549 -402.516)"/><path class="c" d="M86.06,419.519l-.1-.76-11.016,2.08-.1.795Z" transform="translate(-74.52 -402.729)"/><path class="c" d="M83.727,404.32l-.021-.155H80.428l-3.451.649-.1.8Z" transform="translate(-74.32 -404.165)"/><path class="c" d="M84.059,406.535l-.1-.758-7.275,1.373-.1.795Z" transform="translate(-74.349 -404.006)"/><path class="c" d="M85.39,415.19l-.1-.756-9.768,1.843-.1.8Z" transform="translate(-74.463 -403.155)"/><path class="c" d="M84.394,408.7l-.1-.759-7.9,1.492-.105.794Z" transform="translate(-74.377 -403.793)"/><path class="c" d="M85.723,417.354l-.1-.76-10.393,1.965-.1.793Z" transform="translate(-74.492 -402.942)"/><path class="c" d="M85.059,413.027l-.1-.759-9.145,1.727-.1.795Z" transform="translate(-74.434 -403.368)"/><path class="c" d="M84.726,410.863l-.1-.757L76.1,411.712l-.1.8Z" transform="translate(-74.406 -403.58)"/><path class="d" d="M80.052,428.553l.02.013.034-.026Z" transform="translate(-74.007 -401.767)"/></g></g><path class="e" d="M75.386,421.476l.535-4.192.021-.174.393-3.051.009-.067.217-1.7h0v-.009l-3.677,6.851-2.539.234,4.942,2.873.1-.768Z" transform="translate(-54.25 -386.518)"/><path class="e" d="M106.215,414.591a26.529,26.529,0,0,0-.208-3.256L82.576,397.719l1.823,2.724L83.381,404.8h-.013l.021.155.206,1.615.1.759.207,1.618.1.76h0l.261,2.038.044.338.208,1.618.1.759.205,1.62.049.374.283,2.214.068.544.258,2,.051.376.205,1.617.011.1.293,2.274.066.533.123.941-5.9,4.346L91.836,438.1A26.4,26.4,0,0,0,106.215,414.591Z" transform="translate(-53.008 -387.791)"/></g></svg>