<svg xmlns="http://www.w3.org/2000/svg" width="53.203" height="53.202" viewBox="0 0 53.203 53.202"><defs><style>.a{fill:#1bb4bb;}.b{fill:#eca334;}.c{fill:#fece66;}.d{fill:#f5b540;}.e{fill:#fff;stroke:#1bb4bb;}</style></defs><g transform="translate(-38 -246)"><g transform="translate(38 246)"><g transform="translate(0 0)"><path class="a" d="M562.643,359.723a26.6,26.6,0,1,1-26.6-26.6A26.6,26.6,0,0,1,562.643,359.723Z" transform="translate(-509.44 -333.122)"/></g></g><g transform="translate(55 260)"><g transform="translate(1.327 13.407)"><path class="b" d="M99.757,763.065c0,2.752-3.348,4.984-7.478,4.984s-7.476-2.232-7.476-4.984,3.348-4.985,7.476-4.985S99.757,760.312,99.757,763.065Z" transform="translate(-84.803 -756.685)"/><rect class="b" width="14.954" height="1.395" transform="translate(0 4.985)"/><path class="c" d="M99.757,761.9c0,2.752-3.348,4.985-7.478,4.985S84.8,764.654,84.8,761.9s3.348-4.984,7.476-4.984S99.757,759.149,99.757,761.9Z" transform="translate(-84.803 -756.918)"/><path class="d" d="M92.062,765.374c-3.35,0-6.18-1.689-6.18-3.689S88.712,758,92.062,758s6.182,1.689,6.182,3.689S95.412,765.374,92.062,765.374Z" transform="translate(-84.586 -756.702)"/><path class="b" d="M86.879,761.686c0-1.9,2.555-3.517,5.683-3.675-.165-.007-.331-.013-.5-.013-3.35,0-6.18,1.689-6.18,3.689s2.83,3.689,6.18,3.689c.168,0,.335,0,.5-.013C89.434,765.2,86.879,763.585,86.879,761.686Z" transform="translate(-84.586 -756.702)"/><g transform="translate(0.451 6.981)"><path class="d" d="M88.78,765.068c-.084-.023-.166-.044-.25-.068v1.085c.084.024.166.048.25.071Z" transform="translate(-84.505 -762.277)"/><path class="d" d="M96.674,763.968a3.984,3.984,0,0,0,.25-.467v-.768c-.077.12-.161.238-.25.353Z" transform="translate(-82.871 -762.732)"/><path class="d" d="M89.26,765.176c-.085-.018-.168-.035-.25-.054v1.091c.082.019.164.038.25.055Z" transform="translate(-84.409 -762.252)"/><path class="d" d="M90.218,765.31l-.25-.026v1.1c.083.01.165.019.25.026Z" transform="translate(-84.217 -762.22)"/><path class="d" d="M89.738,765.256c-.083-.013-.166-.025-.25-.04v1.094c.084.014.167.026.25.038Z" transform="translate(-84.313 -762.233)"/><path class="d" d="M87.822,764.759c-.084-.034-.167-.068-.25-.106v1.075l.25.108Z" transform="translate(-84.698 -762.346)"/><path class="d" d="M88.3,764.93c-.085-.026-.168-.056-.25-.085v1.079c.082.031.164.06.25.089Z" transform="translate(-84.601 -762.308)"/><path class="d" d="M95.716,765.012c.085-.068.168-.138.25-.208v-1.012c-.082.065-.164.13-.25.192Z" transform="translate(-83.063 -762.519)"/><path class="d" d="M96.2,764.578c.088-.091.171-.184.249-.28v-.952c-.079.084-.161.167-.249.248Z" transform="translate(-82.967 -762.609)"/><path class="d" d="M86.385,765.012v-1.028c-.085-.062-.168-.127-.249-.192V764.8C86.215,764.874,86.3,764.943,86.385,765.012Z" transform="translate(-84.986 -762.519)"/><path class="d" d="M87.343,764.549c-.084-.042-.167-.084-.249-.127v1.061c.08.046.164.09.249.132Z" transform="translate(-84.793 -762.393)"/><path class="d" d="M86.864,764.295c-.084-.05-.167-.1-.249-.156v1.043c.08.056.163.11.249.164Z" transform="translate(-84.89 -762.45)"/><path class="d" d="M91.176,766.44v-1.1l-.126,0-.124,0v1.1h.25Z" transform="translate(-84.024 -762.208)"/><path class="d" d="M94.758,765.615c.084-.042.167-.086.249-.132v-1.061c-.082.043-.164.085-.249.127Z" transform="translate(-83.255 -762.393)"/><path class="d" d="M95.237,765.347c.085-.054.168-.108.249-.164v-1.043c-.08.054-.163.106-.249.156Z" transform="translate(-83.159 -762.45)"/><path class="d" d="M94.279,765.836l.249-.108v-1.075c-.082.037-.163.072-.249.106Z" transform="translate(-83.351 -762.346)"/><path class="d" d="M85.656,764.3c.079.1.162.188.25.28v-.983c-.086-.082-.169-.164-.25-.248Z" transform="translate(-85.082 -762.609)"/><path class="d" d="M85.178,763.5a3.8,3.8,0,0,0,.249.467v-.883c-.089-.115-.173-.233-.249-.353Z" transform="translate(-85.178 -762.732)"/><path class="d" d="M93.8,766.013c.084-.029.167-.058.25-.089v-1.079c-.084.029-.166.059-.25.085Z" transform="translate(-83.448 -762.308)"/><path class="d" d="M92.363,766.349c.084-.012.167-.024.249-.038v-1.094c-.082.014-.164.026-.249.04Z" transform="translate(-83.736 -762.233)"/><path class="d" d="M91.884,766.407l.25-.028v-1.1l-.25.026Z" transform="translate(-83.832 -762.22)"/><path class="d" d="M91.405,766.436c.084,0,.167-.007.249-.012v-1.1l-.249.013Z" transform="translate(-83.928 -762.212)"/><path class="d" d="M93.32,766.156c.085-.023.168-.047.25-.071V765c-.082.024-.166.046-.25.068Z" transform="translate(-83.544 -762.277)"/><path class="d" d="M92.842,766.269c.084-.017.166-.036.249-.055v-1.091c-.083.019-.166.036-.249.054Z" transform="translate(-83.64 -762.252)"/><path class="d" d="M90.7,765.339l-.25-.013v1.1c.084,0,.167.01.25.012Z" transform="translate(-84.121 -762.212)"/></g></g><g transform="translate(2.651 11.173)"><path class="b" d="M100.86,761.2c0,2.753-3.348,4.983-7.477,4.983s-7.477-2.23-7.477-4.983,3.348-4.985,7.477-4.985S100.86,758.451,100.86,761.2Z" transform="translate(-85.906 -754.824)"/><rect class="b" width="14.954" height="1.397" transform="translate(0 4.984)"/><path class="c" d="M100.86,760.041c0,2.753-3.348,4.984-7.477,4.984s-7.477-2.231-7.477-4.984,3.348-4.984,7.477-4.984S100.86,757.288,100.86,760.041Z" transform="translate(-85.906 -755.057)"/><path class="d" d="M93.166,763.513c-3.35,0-6.181-1.689-6.181-3.689s2.831-3.687,6.181-3.687,6.181,1.688,6.181,3.687S96.517,763.513,93.166,763.513Z" transform="translate(-85.689 -754.84)"/><path class="b" d="M87.982,759.824c0-1.9,2.555-3.518,5.684-3.674-.165-.008-.331-.013-.5-.013-3.35,0-6.181,1.688-6.181,3.687s2.831,3.689,6.181,3.689c.168,0,.335-.006.5-.013C90.537,763.342,87.982,761.724,87.982,759.824Z" transform="translate(-85.689 -754.84)"/><g transform="translate(0.45 6.981)"><path class="d" d="M89.884,763.206c-.084-.022-.167-.044-.249-.067v1.085c.082.025.165.048.249.071Z" transform="translate(-85.608 -760.416)"/><path class="d" d="M97.778,762.106a3.964,3.964,0,0,0,.249-.466v-.77c-.076.12-.16.238-.249.354Z" transform="translate(-83.973 -760.871)"/><path class="d" d="M90.363,763.315l-.25-.053v1.09c.084.019.166.039.25.056Z" transform="translate(-85.512 -760.391)"/><path class="d" d="M91.321,763.448c-.084-.007-.166-.014-.25-.024v1.094c.084.011.166.019.25.026Z" transform="translate(-85.32 -760.358)"/><path class="d" d="M90.843,763.4c-.085-.012-.168-.025-.25-.038v1.094l.25.038Z" transform="translate(-85.416 -760.372)"/><path class="d" d="M88.926,762.9l-.249-.106v1.073c.082.037.165.073.249.107Z" transform="translate(-85.8 -760.485)"/><path class="d" d="M89.4,763.071l-.25-.088v1.082c.083.03.166.06.25.088Z" transform="translate(-85.704 -760.447)"/><path class="d" d="M96.82,763.15c.085-.066.168-.137.249-.207v-1.012c-.08.065-.163.13-.249.193Z" transform="translate(-84.166 -760.658)"/><path class="d" d="M97.3,762.718c.086-.091.17-.186.249-.281v-.953c-.08.085-.162.168-.249.248Z" transform="translate(-84.07 -760.748)"/><path class="d" d="M87.489,763.15v-1.025c-.085-.064-.168-.128-.25-.193v1.012C87.319,763.013,87.4,763.084,87.489,763.15Z" transform="translate(-86.089 -760.658)"/><path class="d" d="M88.447,762.688c-.084-.041-.167-.084-.25-.127v1.061c.083.044.166.09.25.132Z" transform="translate(-85.896 -760.532)"/><path class="d" d="M87.968,762.434c-.085-.052-.168-.1-.249-.156v1.042c.08.056.163.11.249.165Z" transform="translate(-85.992 -760.589)"/><path class="d" d="M92.279,764.578v-1.1l-.125,0-.125,0v1.1c.042,0,.084,0,.125,0S92.237,764.579,92.279,764.578Z" transform="translate(-85.127 -760.347)"/><path class="d" d="M95.861,763.754c.085-.042.169-.088.25-.132v-1.061c-.082.043-.165.086-.25.127Z" transform="translate(-84.358 -760.532)"/><path class="d" d="M96.341,763.485c.084-.054.167-.108.249-.165v-1.042c-.082.053-.164.1-.249.156Z" transform="translate(-84.262 -760.589)"/><path class="d" d="M95.383,763.973c.084-.034.166-.07.249-.107v-1.073l-.249.106Z" transform="translate(-84.454 -760.485)"/><path class="d" d="M86.761,762.437c.077.095.161.19.249.281v-.985c-.088-.08-.171-.164-.249-.25Z" transform="translate(-86.185 -760.748)"/><path class="d" d="M86.281,761.639a3.894,3.894,0,0,0,.25.467v-.881c-.089-.116-.173-.234-.25-.354Z" transform="translate(-86.281 -760.871)"/><path class="d" d="M94.9,764.152c.085-.028.168-.058.25-.088v-1.082c-.082.03-.164.059-.25.088Z" transform="translate(-84.551 -760.447)"/><path class="d" d="M93.467,764.489l.249-.038v-1.094l-.249.038Z" transform="translate(-84.839 -760.372)"/><path class="d" d="M92.987,764.544c.085-.007.167-.016.25-.026v-1.094c-.083.01-.164.017-.25.024Z" transform="translate(-84.935 -760.358)"/><path class="d" d="M92.509,764.574c.083,0,.166-.007.25-.012v-1.1l-.25.013Z" transform="translate(-85.031 -760.35)"/><path class="d" d="M94.425,764.3c.083-.023.166-.046.249-.071v-1.085l-.249.067Z" transform="translate(-84.646 -760.416)"/><path class="d" d="M93.945,764.409c.085-.018.168-.037.249-.056v-1.09c-.08.018-.163.036-.249.053Z" transform="translate(-84.743 -760.391)"/><path class="d" d="M91.8,763.479l-.249-.013v1.1c.082,0,.164.01.249.012Z" transform="translate(-85.223 -760.35)"/></g></g><g transform="translate(0 8.937)"><path class="b" d="M98.652,759.343c0,2.753-3.346,4.984-7.476,4.984S83.7,762.1,83.7,759.343s3.348-4.985,7.478-4.985S98.652,756.59,98.652,759.343Z" transform="translate(-83.698 -752.962)"/><rect class="b" width="14.954" height="1.395" transform="translate(0 4.986)"/><path class="c" d="M98.652,758.182c0,2.752-3.346,4.984-7.476,4.984s-7.478-2.232-7.478-4.984,3.348-4.987,7.478-4.987S98.652,755.428,98.652,758.182Z" transform="translate(-83.698 -753.195)"/><path class="d" d="M90.959,761.653c-3.35,0-6.182-1.691-6.182-3.689s2.832-3.69,6.182-3.69,6.18,1.689,6.18,3.69S94.309,761.653,90.959,761.653Z" transform="translate(-83.481 -752.978)"/><path class="b" d="M85.774,757.965c0-1.9,2.555-3.518,5.684-3.677-.164-.008-.331-.013-.5-.013-3.35,0-6.182,1.689-6.182,3.69s2.832,3.689,6.182,3.689c.167,0,.334-.006.5-.014C88.329,761.481,85.774,759.864,85.774,757.965Z" transform="translate(-83.481 -752.978)"/><g transform="translate(0.451 6.982)"><path class="d" d="M87.677,761.345c-.085-.022-.167-.043-.25-.068v1.087c.083.025.165.049.25.071Z" transform="translate(-83.401 -758.555)"/><path class="d" d="M95.57,760.245a3.973,3.973,0,0,0,.249-.467v-.768a4.217,4.217,0,0,1-.249.354Z" transform="translate(-81.767 -759.01)"/><path class="d" d="M88.155,761.454q-.124-.025-.249-.054v1.091l.249.056Z" transform="translate(-83.305 -758.53)"/><path class="d" d="M89.113,761.588l-.249-.025v1.1c.083.008.166.018.249.025Z" transform="translate(-83.113 -758.498)"/><path class="d" d="M88.635,761.534c-.084-.011-.167-.024-.25-.038v1.094c.083.015.166.028.25.04Z" transform="translate(-83.209 -758.511)"/><path class="d" d="M86.719,761.038c-.085-.035-.168-.07-.25-.106v1.073c.082.037.164.073.25.108Z" transform="translate(-83.593 -758.624)"/><path class="d" d="M87.2,761.208c-.083-.026-.166-.055-.249-.085V762.2c.083.031.166.059.249.088Z" transform="translate(-83.497 -758.586)"/><path class="d" d="M94.612,761.29c.086-.068.169-.137.249-.208V760.07c-.079.066-.163.13-.249.193Z" transform="translate(-81.959 -758.797)"/><path class="d" d="M95.091,760.856c.088-.091.17-.185.25-.279v-.955c-.08.085-.163.169-.25.25Z" transform="translate(-81.863 -758.887)"/><path class="d" d="M85.281,761.29v-1.027c-.085-.064-.168-.127-.249-.193v1.012C85.112,761.153,85.2,761.222,85.281,761.29Z" transform="translate(-83.882 -758.797)"/><path class="d" d="M86.239,760.829c-.084-.043-.166-.085-.249-.13v1.063c.082.044.165.089.249.132Z" transform="translate(-83.689 -758.671)"/><path class="d" d="M85.761,760.573c-.086-.05-.169-.1-.249-.156v1.042c.079.056.162.112.249.165Z" transform="translate(-83.785 -758.728)"/><path class="d" d="M90.071,762.718v-1.1l-.124,0-.125,0v1.1l.125,0Z" transform="translate(-82.92 -758.486)"/><path class="d" d="M93.654,761.894c.085-.043.168-.088.249-.132V760.7c-.082.044-.163.087-.249.13Z" transform="translate(-82.151 -758.671)"/><path class="d" d="M94.134,761.624c.084-.053.166-.108.249-.165v-1.042c-.083.053-.164.106-.249.156Z" transform="translate(-82.055 -758.728)"/><path class="d" d="M93.176,762.114q.124-.052.249-.108v-1.073l-.249.106Z" transform="translate(-82.247 -758.624)"/><path class="d" d="M84.553,760.578c.077.095.162.187.249.279v-.983c-.086-.081-.169-.165-.249-.25Z" transform="translate(-83.978 -758.887)"/><path class="d" d="M84.074,759.778a3.9,3.9,0,0,0,.249.467v-.881c-.089-.116-.173-.234-.249-.354Z" transform="translate(-84.074 -759.01)"/><path class="d" d="M92.7,762.291c.085-.029.168-.056.249-.087v-1.082c-.082.03-.163.059-.249.085Z" transform="translate(-82.344 -758.586)"/><path class="d" d="M91.259,762.629c.084-.012.167-.025.25-.04V761.5c-.083.014-.166.028-.25.038Z" transform="translate(-82.632 -758.511)"/><path class="d" d="M90.78,762.683c.084-.007.167-.017.249-.025v-1.1l-.249.025Z" transform="translate(-82.728 -758.498)"/><path class="d" d="M90.3,762.713c.084,0,.166-.006.25-.012v-1.1l-.25.012Z" transform="translate(-82.824 -758.489)"/><path class="d" d="M92.217,762.434c.084-.022.167-.047.25-.071v-1.087c-.083.025-.166.047-.25.068Z" transform="translate(-82.44 -758.555)"/><path class="d" d="M91.738,762.548c.085-.018.167-.039.249-.056V761.4q-.122.029-.249.054Z" transform="translate(-82.536 -758.53)"/><path class="d" d="M89.593,761.617l-.25-.012v1.1c.083.006.166.008.25.012Z" transform="translate(-83.017 -758.489)"/></g></g><g transform="translate(0.795 6.704)"><path class="b" d="M99.315,757.482c0,2.752-3.348,4.985-7.477,4.985s-7.478-2.233-7.478-4.985,3.348-4.985,7.478-4.985S99.315,754.729,99.315,757.482Z" transform="translate(-84.36 -751.102)"/><rect class="b" width="14.955" height="1.395" transform="translate(0 4.985)"/><path class="c" d="M99.315,756.319c0,2.753-3.348,4.985-7.477,4.985s-7.478-2.232-7.478-4.985,3.348-4.984,7.478-4.984S99.315,753.566,99.315,756.319Z" transform="translate(-84.36 -751.335)"/><path class="d" d="M91.621,759.792c-3.35,0-6.181-1.691-6.181-3.69s2.831-3.689,6.181-3.689S97.8,754.1,97.8,756.1,94.971,759.792,91.621,759.792Z" transform="translate(-84.143 -751.118)"/><path class="b" d="M86.437,756.1c0-1.9,2.554-3.517,5.683-3.674-.165-.008-.33-.014-.5-.014-3.35,0-6.181,1.688-6.181,3.689s2.831,3.69,6.181,3.69c.168,0,.334-.006.5-.014C88.99,759.621,86.437,758,86.437,756.1Z" transform="translate(-84.143 -751.118)"/><g transform="translate(0.451 6.981)"><path class="d" d="M88.339,759.485c-.084-.023-.167-.044-.25-.068V760.5c.083.025.166.048.25.071Z" transform="translate(-84.063 -756.694)"/><path class="d" d="M96.232,758.385a3.812,3.812,0,0,0,.25-.467v-.769a4.073,4.073,0,0,1-.25.353Z" transform="translate(-82.429 -757.149)"/><path class="d" d="M88.818,759.593c-.084-.017-.167-.035-.25-.054v1.091c.083.019.166.04.25.055Z" transform="translate(-83.967 -756.669)"/><path class="d" d="M89.775,759.727c-.083-.007-.164-.017-.249-.026v1.1c.084.01.166.019.249.026Z" transform="translate(-83.775 -756.637)"/><path class="d" d="M89.3,759.673l-.25-.038v1.093c.083.015.167.026.25.04Z" transform="translate(-83.871 -756.65)"/><path class="d" d="M87.381,759.176c-.084-.032-.167-.068-.25-.106v1.075c.082.037.166.072.25.108Z" transform="translate(-84.255 -756.763)"/><path class="d" d="M87.86,759.348c-.084-.028-.167-.057-.25-.086v1.081c.083.031.166.059.25.086Z" transform="translate(-84.159 -756.725)"/><path class="d" d="M95.274,759.429c.086-.068.169-.138.25-.208v-1.012c-.08.066-.165.128-.25.192Z" transform="translate(-82.621 -756.936)"/><path class="d" d="M95.754,758.995c.086-.091.171-.184.249-.279v-.953c-.079.084-.163.167-.249.249Z" transform="translate(-82.525 -757.026)"/><path class="d" d="M85.944,759.429V758.4c-.085-.064-.168-.126-.25-.192v1.012C85.774,759.291,85.857,759.36,85.944,759.429Z" transform="translate(-84.544 -756.936)"/><path class="d" d="M86.9,758.967l-.249-.127V759.9c.082.046.164.089.249.133Z" transform="translate(-84.351 -756.81)"/><path class="d" d="M86.423,758.712c-.085-.05-.169-.1-.249-.155V759.6c.079.055.163.111.249.165Z" transform="translate(-84.447 -756.866)"/><path class="d" d="M90.733,760.857v-1.1h-.249v1.1l.125,0Z" transform="translate(-83.582 -756.625)"/><path class="d" d="M94.316,760.034c.085-.044.168-.088.25-.133v-1.061c-.082.043-.164.085-.25.127Z" transform="translate(-82.813 -756.81)"/><path class="d" d="M94.8,759.764c.084-.054.168-.109.249-.165v-1.042c-.08.053-.165.1-.249.155Z" transform="translate(-82.717 -756.866)"/><path class="d" d="M93.838,760.253c.083-.036.167-.071.249-.108V759.07c-.082.037-.164.073-.249.106Z" transform="translate(-82.909 -756.763)"/><path class="d" d="M85.215,758.716c.078.095.162.187.25.279v-.982c-.086-.083-.171-.166-.25-.25Z" transform="translate(-84.64 -757.026)"/><path class="d" d="M84.736,757.917a3.8,3.8,0,0,0,.249.467V757.5c-.088-.114-.173-.233-.249-.353Z" transform="translate(-84.736 -757.149)"/><path class="d" d="M93.358,760.429c.084-.028.168-.055.25-.086v-1.081c-.083.029-.166.059-.25.086Z" transform="translate(-83.006 -756.725)"/><path class="d" d="M91.922,760.767c.083-.013.167-.025.249-.04v-1.093l-.249.038Z" transform="translate(-83.294 -756.65)"/><path class="d" d="M91.442,760.824c.085-.008.167-.018.25-.028v-1.1c-.083.01-.164.019-.25.026Z" transform="translate(-83.39 -756.637)"/><path class="d" d="M90.963,760.852c.084,0,.167-.007.25-.013v-1.1c-.083,0-.166.01-.25.012Z" transform="translate(-83.486 -756.628)"/><path class="d" d="M92.88,760.573c.083-.023.166-.046.249-.071v-1.085c-.082.024-.166.046-.249.068Z" transform="translate(-83.101 -756.694)"/><path class="d" d="M92.4,760.686c.085-.016.167-.036.249-.055v-1.091c-.082.019-.163.037-.249.054Z" transform="translate(-83.198 -756.669)"/><path class="d" d="M90.255,759.756c-.083,0-.167-.007-.25-.012v1.1c.083.006.167.01.25.013Z" transform="translate(-83.679 -756.628)"/></g></g><g transform="translate(2.122 4.469)"><path class="b" d="M100.419,755.62c0,2.753-3.348,4.985-7.477,4.985s-7.477-2.232-7.477-4.985,3.348-4.983,7.477-4.983S100.419,752.868,100.419,755.62Z" transform="translate(-85.465 -749.241)"/><rect class="b" width="14.954" height="1.395" transform="translate(0 4.984)"/><path class="c" d="M100.419,754.458c0,2.753-3.348,4.985-7.477,4.985s-7.477-2.232-7.477-4.985,3.348-4.984,7.477-4.984S100.419,751.7,100.419,754.458Z" transform="translate(-85.465 -749.474)"/><path class="d" d="M92.725,757.93c-3.351,0-6.181-1.688-6.181-3.689s2.83-3.689,6.181-3.689,6.181,1.689,6.181,3.689S96.074,757.93,92.725,757.93Z" transform="translate(-85.248 -749.257)"/><path class="b" d="M87.541,754.241c0-1.9,2.555-3.518,5.683-3.675-.164-.007-.331-.013-.5-.013-3.351,0-6.181,1.689-6.181,3.689s2.83,3.689,6.181,3.689c.167,0,.334,0,.5-.013C90.1,757.759,87.541,756.141,87.541,754.241Z" transform="translate(-85.248 -749.257)"/><g transform="translate(0.45 6.981)"><path class="d" d="M89.442,757.623l-.25-.066v1.084c.084.025.167.048.25.072Z" transform="translate(-85.167 -754.833)"/><path class="d" d="M97.336,756.522a3.858,3.858,0,0,0,.25-.466v-.768c-.077.121-.161.238-.25.353Z" transform="translate(-83.533 -755.288)"/><path class="d" d="M89.922,757.732c-.084-.017-.168-.036-.25-.054v1.091c.082.02.166.039.25.056Z" transform="translate(-85.071 -754.808)"/><path class="d" d="M90.88,757.865c-.084-.006-.167-.016-.25-.025v1.1c.083.011.166.019.25.026Z" transform="translate(-84.879 -754.776)"/><path class="d" d="M90.4,757.813l-.25-.038v1.094l.25.038Z" transform="translate(-84.975 -754.789)"/><path class="d" d="M88.484,757.316c-.084-.034-.166-.07-.249-.106v1.073c.082.037.166.072.249.107Z" transform="translate(-85.359 -754.902)"/><path class="d" d="M88.964,757.488c-.084-.029-.167-.056-.25-.088v1.082c.082.03.166.06.25.088Z" transform="translate(-85.263 -754.864)"/><path class="d" d="M96.378,757.567c.085-.067.169-.136.25-.208v-1.011c-.08.065-.165.13-.25.192Z" transform="translate(-83.725 -755.075)"/><path class="d" d="M96.857,757.134c.088-.091.172-.184.249-.28V755.9c-.079.086-.161.168-.249.25Z" transform="translate(-83.629 -755.165)"/><path class="d" d="M87.048,757.567V756.54c-.085-.062-.169-.127-.25-.192v1.011C86.877,757.431,86.961,757.5,87.048,757.567Z" transform="translate(-85.648 -755.075)"/><path class="d" d="M88.006,757.105c-.084-.041-.168-.084-.25-.127v1.06c.08.046.166.091.25.134Z" transform="translate(-85.455 -754.949)"/><path class="d" d="M87.526,756.851c-.084-.05-.167-.1-.249-.156v1.043c.082.055.164.11.249.164Z" transform="translate(-85.552 -755.006)"/><path class="d" d="M91.838,759v-1.1l-.125,0-.125,0V759h.25Z" transform="translate(-84.686 -754.764)"/><path class="d" d="M95.42,758.173c.084-.043.168-.089.25-.134v-1.06c-.082.043-.166.086-.25.127Z" transform="translate(-83.917 -754.949)"/><path class="d" d="M95.9,757.9c.085-.054.168-.109.249-.164V756.7c-.08.054-.163.106-.249.156Z" transform="translate(-83.821 -755.006)"/><path class="d" d="M94.941,758.39c.084-.035.167-.07.249-.107V757.21c-.082.036-.163.072-.249.106Z" transform="translate(-84.013 -754.902)"/><path class="d" d="M86.319,756.854c.078.1.161.188.249.28v-.983c-.085-.082-.168-.163-.249-.25Z" transform="translate(-85.744 -755.165)"/><path class="d" d="M85.84,756.056a3.85,3.85,0,0,0,.249.466v-.881c-.088-.115-.173-.232-.249-.353Z" transform="translate(-85.84 -755.288)"/><path class="d" d="M94.462,758.569c.084-.028.168-.058.25-.088V757.4c-.083.031-.166.059-.25.088Z" transform="translate(-84.11 -754.864)"/><path class="d" d="M93.025,758.906l.249-.038v-1.094l-.249.038Z" transform="translate(-84.398 -754.789)"/><path class="d" d="M92.546,758.962c.084-.007.167-.016.25-.026v-1.1c-.083.01-.166.019-.25.025Z" transform="translate(-84.494 -754.776)"/><path class="d" d="M92.067,758.992c.084,0,.167-.007.249-.013v-1.1l-.249.013Z" transform="translate(-84.59 -754.767)"/><path class="d" d="M93.983,758.713c.084-.024.167-.047.249-.072v-1.084c-.082.023-.165.044-.249.066Z" transform="translate(-84.206 -754.833)"/><path class="d" d="M93.5,758.826c.084-.018.167-.036.249-.056v-1.091c-.082.018-.166.037-.249.054Z" transform="translate(-84.302 -754.808)"/><path class="d" d="M91.359,757.9l-.25-.013v1.1c.083.006.166.01.25.013Z" transform="translate(-84.782 -754.767)"/></g></g><g transform="translate(0.265 2.234)"><path class="b" d="M98.873,753.76c0,2.753-3.348,4.984-7.477,4.984s-7.477-2.231-7.477-4.984,3.348-4.985,7.477-4.985S98.873,751.007,98.873,753.76Z" transform="translate(-83.919 -747.38)"/><rect class="b" width="14.954" height="1.395" transform="translate(0 4.985)"/><path class="c" d="M98.873,752.6c0,2.752-3.348,4.984-7.477,4.984s-7.477-2.232-7.477-4.984,3.348-4.985,7.477-4.985S98.873,749.845,98.873,752.6Z" transform="translate(-83.919 -747.613)"/><path class="d" d="M91.179,756.069c-3.35,0-6.18-1.688-6.18-3.687s2.83-3.69,6.18-3.69,6.181,1.69,6.181,3.69S94.529,756.069,91.179,756.069Z" transform="translate(-83.702 -747.397)"/><path class="b" d="M85.994,752.382c0-1.9,2.555-3.518,5.683-3.677-.163-.007-.33-.013-.5-.013-3.35,0-6.18,1.69-6.18,3.69s2.83,3.687,6.18,3.687c.168,0,.335,0,.5-.013C88.549,755.9,85.994,754.281,85.994,752.382Z" transform="translate(-83.702 -747.397)"/><g transform="translate(0.451 6.981)"><path class="d" d="M87.9,755.762c-.083-.022-.167-.043-.25-.067v1.087c.084.023.166.048.25.07Z" transform="translate(-83.622 -752.972)"/><path class="d" d="M95.791,754.663a3.807,3.807,0,0,0,.249-.467v-.768c-.076.12-.161.238-.249.354Z" transform="translate(-81.988 -753.427)"/><path class="d" d="M88.377,755.871c-.084-.017-.168-.035-.25-.054v1.093l.25.055Z" transform="translate(-83.526 -752.947)"/><path class="d" d="M89.334,756l-.249-.024v1.1c.082.008.166.018.249.025Z" transform="translate(-83.334 -752.915)"/><path class="d" d="M88.855,755.952c-.083-.012-.166-.025-.25-.04v1.1c.083.014.167.026.25.038Z" transform="translate(-83.43 -752.928)"/><path class="d" d="M86.939,755.455c-.085-.035-.167-.07-.25-.106v1.073c.083.037.166.073.25.108Z" transform="translate(-83.815 -753.041)"/><path class="d" d="M87.418,755.625c-.084-.026-.167-.056-.25-.085v1.079c.082.031.167.06.25.09Z" transform="translate(-83.718 -753.003)"/><path class="d" d="M94.833,755.707c.085-.068.169-.137.249-.208v-1.013c-.08.067-.165.131-.249.195Z" transform="translate(-82.18 -753.214)"/><path class="d" d="M95.311,755.273c.089-.091.172-.184.251-.28v-.952c-.08.084-.163.168-.251.249Z" transform="translate(-82.084 -753.304)"/><path class="d" d="M85.5,755.707V754.68c-.084-.064-.169-.127-.25-.195V755.5C85.332,755.57,85.416,755.639,85.5,755.707Z" transform="translate(-84.103 -753.214)"/><path class="d" d="M86.46,755.244c-.084-.041-.168-.084-.249-.127v1.061c.08.046.165.089.249.132Z" transform="translate(-83.91 -753.088)"/><path class="d" d="M85.981,754.99c-.084-.05-.167-.1-.25-.156v1.042c.083.058.166.112.25.166Z" transform="translate(-84.007 -753.145)"/><path class="d" d="M90.292,757.135v-1.1l-.125,0-.124,0v1.1h.249Z" transform="translate(-83.141 -752.903)"/><path class="d" d="M93.875,756.311c.084-.043.168-.087.249-.132v-1.061c-.082.043-.164.086-.249.127Z" transform="translate(-82.372 -753.088)"/><path class="d" d="M94.353,756.042c.086-.054.169-.108.25-.166v-1.042c-.08.054-.163.106-.25.156Z" transform="translate(-82.276 -753.145)"/><path class="d" d="M93.4,756.53c.085-.035.168-.071.25-.108v-1.073c-.082.036-.164.071-.25.106Z" transform="translate(-82.469 -753.041)"/><path class="d" d="M84.773,754.993c.079.1.162.189.25.28v-.983c-.086-.08-.169-.164-.25-.249Z" transform="translate(-84.199 -753.304)"/><path class="d" d="M84.295,754.194a3.58,3.58,0,0,0,.249.468v-.881c-.089-.116-.174-.234-.249-.354Z" transform="translate(-84.295 -753.427)"/><path class="d" d="M92.917,756.709c.083-.03.168-.059.249-.09V755.54c-.082.029-.166.059-.249.085Z" transform="translate(-82.565 -753.003)"/><path class="d" d="M91.479,757.045c.085-.012.168-.024.251-.038v-1.1c-.084.015-.166.028-.251.04Z" transform="translate(-82.853 -752.928)"/><path class="d" d="M91,757.1l.25-.026v-1.1L91,756Z" transform="translate(-82.949 -752.915)"/><path class="d" d="M90.521,757.13l.25-.011v-1.1l-.25.013Z" transform="translate(-83.045 -752.906)"/><path class="d" d="M92.438,756.851c.084-.022.167-.047.249-.07V755.7c-.082.024-.164.046-.249.067Z" transform="translate(-82.661 -752.972)"/><path class="d" d="M91.959,756.965l.249-.055v-1.093c-.082.019-.166.037-.249.054Z" transform="translate(-82.757 -752.947)"/><path class="d" d="M89.813,756.034l-.249-.013v1.1l.249.011Z" transform="translate(-83.237 -752.906)"/></g></g><g transform="translate(2.122)"><path class="b" d="M100.419,751.9c0,2.752-3.348,4.985-7.477,4.985s-7.477-2.233-7.477-4.985,3.348-4.985,7.477-4.985S100.419,749.147,100.419,751.9Z" transform="translate(-85.465 -745.519)"/><rect class="b" width="14.954" height="1.397" transform="translate(0 4.984)"/><path class="c" d="M100.419,750.736c0,2.753-3.348,4.985-7.477,4.985s-7.477-2.232-7.477-4.985,3.348-4.984,7.477-4.984S100.419,747.984,100.419,750.736Z" transform="translate(-85.465 -745.752)"/><path class="d" d="M92.725,754.209c-3.351,0-6.181-1.691-6.181-3.69s2.83-3.689,6.181-3.689,6.181,1.689,6.181,3.689S96.074,754.209,92.725,754.209Z" transform="translate(-85.248 -745.536)"/><path class="b" d="M87.541,750.52c0-1.9,2.555-3.517,5.683-3.674-.164-.009-.331-.014-.5-.014-3.351,0-6.181,1.689-6.181,3.689s2.83,3.69,6.181,3.69c.167,0,.334-.006.5-.013C90.1,754.038,87.541,752.419,87.541,750.52Z" transform="translate(-85.248 -745.536)"/><g transform="translate(0.45 6.981)"><path class="d" d="M89.442,753.9c-.083-.023-.166-.044-.25-.068v1.085c.084.025.167.048.25.071Z" transform="translate(-85.167 -751.111)"/><path class="d" d="M97.336,752.8a3.891,3.891,0,0,0,.25-.467v-.768c-.077.12-.161.239-.25.353Z" transform="translate(-83.533 -751.566)"/><path class="d" d="M89.922,754.01c-.084-.017-.168-.034-.25-.053v1.09l.25.057Z" transform="translate(-85.071 -751.086)"/><path class="d" d="M90.88,754.144c-.084-.008-.167-.016-.25-.025v1.095l.25.026Z" transform="translate(-84.879 -751.053)"/><path class="d" d="M90.4,754.091l-.25-.038v1.094c.084.014.167.025.25.037Z" transform="translate(-84.975 -751.067)"/><path class="d" d="M88.484,753.594l-.249-.106v1.075l.249.108Z" transform="translate(-85.359 -751.18)"/><path class="d" d="M88.964,753.765c-.084-.028-.167-.058-.25-.085v1.079c.082.031.166.06.25.088Z" transform="translate(-85.263 -751.142)"/><path class="d" d="M96.378,753.847c.085-.07.169-.139.25-.209v-1.012c-.08.066-.165.13-.25.193Z" transform="translate(-83.725 -751.353)"/><path class="d" d="M96.857,753.413c.088-.092.172-.185.249-.28v-.953c-.079.084-.161.167-.249.248Z" transform="translate(-83.629 -751.443)"/><path class="d" d="M87.048,753.847v-1.028c-.085-.064-.169-.127-.25-.193v1.012C86.877,753.708,86.961,753.777,87.048,753.847Z" transform="translate(-85.648 -751.353)"/><path class="d" d="M88.006,753.383c-.084-.041-.168-.084-.25-.127v1.062c.08.046.166.09.25.132Z" transform="translate(-85.455 -751.227)"/><path class="d" d="M87.526,753.13c-.084-.052-.167-.1-.249-.157v1.043c.082.056.164.11.249.165Z" transform="translate(-85.552 -751.284)"/><path class="d" d="M91.838,755.274v-1.1l-.125,0-.125,0v1.1l.125,0Z" transform="translate(-84.686 -751.042)"/><path class="d" d="M95.42,754.449c.084-.042.168-.087.25-.132v-1.062c-.082.043-.166.087-.25.127Z" transform="translate(-83.917 -751.227)"/><path class="d" d="M95.9,754.181c.085-.054.168-.108.249-.165v-1.043c-.08.054-.163.106-.249.157Z" transform="translate(-83.821 -751.284)"/><path class="d" d="M94.941,754.671l.249-.108v-1.075c-.082.036-.163.071-.249.106Z" transform="translate(-84.013 -751.18)"/><path class="d" d="M86.319,753.133c.078.095.161.187.249.28v-.985q-.128-.122-.249-.248Z" transform="translate(-85.744 -751.443)"/><path class="d" d="M85.84,752.334a3.968,3.968,0,0,0,.249.467v-.883c-.088-.114-.173-.233-.249-.353Z" transform="translate(-85.84 -751.566)"/><path class="d" d="M94.462,754.847c.084-.028.168-.056.25-.088V753.68c-.083.028-.166.058-.25.085Z" transform="translate(-84.11 -751.142)"/><path class="d" d="M93.025,755.183c.084-.012.167-.023.249-.037v-1.094c-.083.013-.164.026-.249.038Z" transform="translate(-84.398 -751.067)"/><path class="d" d="M92.546,755.24l.25-.026v-1.095c-.083.01-.166.017-.25.025Z" transform="translate(-84.494 -751.053)"/><path class="d" d="M92.067,755.27c.084,0,.167-.007.249-.012v-1.1c-.082.006-.165.011-.249.013Z" transform="translate(-84.59 -751.046)"/><path class="d" d="M93.983,754.99c.084-.023.167-.046.249-.071v-1.085c-.082.024-.165.046-.249.068Z" transform="translate(-84.206 -751.111)"/><path class="d" d="M93.5,755.1l.249-.057v-1.09c-.082.019-.166.036-.249.053Z" transform="translate(-84.302 -751.086)"/><path class="d" d="M91.359,754.173c-.084,0-.167-.007-.25-.013v1.1c.083,0,.166.01.25.012Z" transform="translate(-84.782 -751.046)"/></g></g></g><path class="e" d="M19.48,12.664a2.1,2.1,0,0,1,1.348-1.96A8.328,8.328,0,0,0,19.82,8.276a2.129,2.129,0,0,1-.855.183,2.1,2.1,0,0,1-1.918-2.951A8.3,8.3,0,0,0,14.624,4.5a2.1,2.1,0,0,1-3.92,0A8.328,8.328,0,0,0,8.276,5.508,2.1,2.1,0,0,1,6.358,8.459,2.06,2.06,0,0,1,5.5,8.276a8.512,8.512,0,0,0-1,2.432,2.1,2.1,0,0,1,0,3.92,8.328,8.328,0,0,0,1.008,2.428A2.1,2.1,0,0,1,8.28,19.824a8.377,8.377,0,0,0,2.428,1.008,2.1,2.1,0,0,1,3.912,0,8.328,8.328,0,0,0,2.428-1.008,2.1,2.1,0,0,1,2.768-2.768,8.377,8.377,0,0,0,1.008-2.428A2.111,2.111,0,0,1,19.48,12.664Zm-6.778,3.4a3.4,3.4,0,1,1,3.4-3.4A3.4,3.4,0,0,1,12.7,16.061Z" transform="translate(56.939 263.939)"/><circle class="a" cx="4.5" cy="4.5" r="4.5" transform="translate(65 272)"/></g></svg>