<svg xmlns="http://www.w3.org/2000/svg" width="52.858" height="52.859" viewBox="0 0 52.858 52.859"><defs><style>.a{fill:#fa5263;}.b{fill:#eca334;}.c{fill:#fece66;}.d{fill:#f5b540;}</style></defs><g transform="translate(-38.001 -676)"><g transform="translate(37.623 675.826)"><path class="a" d="M109.018,415.628A26.429,26.429,0,1,1,82.589,389.2,26.43,26.43,0,0,1,109.018,415.628Z" transform="translate(-55.782 -389.026)"/></g><g transform="translate(56.531 683.914)"><g transform="translate(-5.404 8.407)"><path class="b" d="M111.406,766.949c0,4.9-5.955,8.867-13.3,8.867s-13.3-3.971-13.3-8.867,5.955-8.869,13.3-8.869S111.406,762.051,111.406,766.949Z" transform="translate(-84.803 -755.598)"/><rect class="b" width="26.603" height="2.482" transform="translate(0 8.868)"/><path class="c" d="M111.406,765.785c0,4.9-5.955,8.869-13.3,8.869s-13.3-3.973-13.3-8.869,5.955-8.867,13.3-8.867S111.406,760.887,111.406,765.785Z" transform="translate(-84.803 -756.918)"/><path class="d" d="M96.876,771.121c-5.96,0-10.994-3.005-10.994-6.562S90.917,758,96.876,758s11,3.005,11,6.562S102.836,771.121,96.876,771.121Z" transform="translate(-83.577 -755.692)"/><path class="b" d="M87.655,764.559c0-3.379,4.546-6.257,10.11-6.539-.293-.013-.59-.023-.889-.023-5.96,0-10.994,3.005-10.994,6.562s5.035,6.562,10.994,6.562c.3,0,.6-.008.889-.023C92.2,770.818,87.655,767.938,87.655,764.559Z" transform="translate(-83.577 -755.692)"/><g transform="translate(0.801 12.419)"><path class="d" d="M88.974,765.122c-.15-.04-.295-.079-.444-.122v1.931c.149.043.295.086.444.126Z" transform="translate(-81.37 -760.156)"/><path class="d" d="M96.674,764.93a7.077,7.077,0,0,0,.444-.831v-1.367c-.137.214-.286.423-.444.628Z" transform="translate(-72.118 -762.732)"/><path class="d" d="M89.454,765.218c-.152-.032-.3-.062-.444-.1v1.942c.145.034.293.068.444.1Z" transform="translate(-80.825 -760.017)"/><path class="d" d="M90.412,765.331c-.152-.015-.3-.03-.444-.047v1.948c.147.017.293.034.444.047Z" transform="translate(-79.736 -759.833)"/><path class="d" d="M89.932,765.287c-.147-.023-.295-.045-.444-.071v1.946c.15.026.3.047.444.068Z" transform="translate(-80.282 -759.909)"/><path class="d" d="M88.016,764.841c-.15-.06-.3-.122-.444-.188v1.912l.444.192Z" transform="translate(-82.458 -760.549)"/><path class="d" d="M88.5,765c-.152-.047-.3-.1-.444-.152v1.92c.145.056.293.107.444.158Z" transform="translate(-81.913 -760.331)"/><path class="d" d="M95.716,765.962c.152-.122.3-.246.444-.37v-1.8c-.145.115-.293.231-.444.342Z" transform="translate(-73.206 -761.528)"/><path class="d" d="M96.2,765.538c.156-.163.3-.327.442-.5v-1.694c-.141.149-.286.3-.442.442Z" transform="translate(-72.662 -762.034)"/><path class="d" d="M86.578,765.962v-1.829c-.152-.111-.3-.226-.442-.342v1.8C86.277,765.716,86.424,765.84,86.578,765.962Z" transform="translate(-84.09 -761.528)"/><path class="d" d="M87.536,764.648c-.15-.075-.3-.15-.442-.227v1.888c.143.081.293.16.442.235Z" transform="translate(-83.001 -760.812)"/><path class="d" d="M87.057,764.417c-.15-.09-.3-.182-.442-.278V766c.143.1.29.2.442.293Z" transform="translate(-83.546 -761.134)"/><path class="d" d="M91.37,767.294v-1.95c-.075,0-.15,0-.224,0s-.145,0-.22,0v1.95l.22,0Z" transform="translate(-78.648 -759.765)"/><path class="d" d="M94.758,766.545c.15-.075.3-.154.442-.235v-1.888c-.145.077-.293.152-.442.227Z" transform="translate(-74.294 -760.812)"/><path class="d" d="M95.237,766.288c.152-.1.3-.192.442-.293v-1.856c-.143.1-.291.188-.442.278Z" transform="translate(-73.75 -761.134)"/><path class="d" d="M94.279,766.757l.442-.192v-1.912c-.145.066-.291.128-.442.188Z" transform="translate(-74.839 -760.549)"/><path class="d" d="M85.656,765.04c.141.171.288.335.444.5v-1.75c-.154-.145-.3-.293-.444-.442Z" transform="translate(-84.635 -762.034)"/><path class="d" d="M85.178,764.1a6.754,6.754,0,0,0,.442.831v-1.57c-.158-.205-.308-.414-.442-.628Z" transform="translate(-85.178 -762.732)"/><path class="d" d="M93.8,766.923c.15-.051.3-.1.444-.158v-1.92c-.15.051-.295.1-.444.152Z" transform="translate(-75.383 -760.331)"/><path class="d" d="M92.363,767.231c.15-.021.3-.043.442-.068v-1.946c-.145.026-.293.047-.442.071Z" transform="translate(-77.015 -759.909)"/><path class="d" d="M91.884,767.281c.147-.015.295-.032.444-.049v-1.948c-.15.017-.3.032-.444.047Z" transform="translate(-77.559 -759.833)"/><path class="d" d="M91.405,767.3c.15,0,.3-.013.442-.021v-1.952c-.145.009-.293.017-.442.023Z" transform="translate(-78.104 -759.785)"/><path class="d" d="M93.32,767.057c.152-.041.3-.083.444-.126V765c-.145.043-.295.081-.444.122Z" transform="translate(-75.928 -760.156)"/><path class="d" d="M92.842,767.162c.15-.03.295-.064.442-.1v-1.942c-.147.034-.295.064-.442.1Z" transform="translate(-76.471 -760.017)"/><path class="d" d="M90.89,765.35c-.147-.006-.295-.015-.444-.023v1.952c.15.009.3.017.444.021Z" transform="translate(-79.193 -759.785)"/></g></g></g></g></svg>