<svg xmlns="http://www.w3.org/2000/svg" width="200" height="200.006" viewBox="0 0 200 200.006"><defs><style>.a{fill:#8fdef6;}.b{fill:#70c9e9;}.c{fill:#343b43;}.d{fill:#fff;}.e{fill:#cccbca;}</style></defs><g transform="translate(-890.182 -182.645)"><path class="a" d="M1090.182,282.648a100,100,0,1,1-100-100A100,100,0,0,1,1090.182,282.648Z" transform="translate(0 0)"/><path class="b" d="M1057.476,258.685l-55.5-55.507-2.485-2.485A36.76,36.76,0,0,0,938.01,227.9v24.879l-12.437-12.432c-.066-.071-.131-.148-.192-.214l-13.444-13.417a3.009,3.009,0,0,0-2.189-.92,3.047,3.047,0,0,0-2.19.92l-4.385,4.368c-9.41,9.4-3.537,30.748,13.011,49.015l6.427,6.426,60.236,60.231A103.021,103.021,0,0,0,1057.476,258.685Z" transform="translate(32.099 32.073)"/><g transform="translate(930.759 223.183)"><g transform="translate(0 34.662)"><path class="c" d="M919.338,250.765c18.907,18.913,42.342,26.15,52.326,16.17l-17.807-17.812c-3.99,4-14.593-.121-23.669-9.2s-13.2-19.679-9.207-23.681l-17.807-17.807C893.189,208.435,900.42,231.863,919.338,250.765Z" transform="translate(-898.685 -193.151)"/><path class="c" d="M903.89,198.387a3.08,3.08,0,0,1,4.379,0L921.7,211.809a3.1,3.1,0,0,1,0,4.374l-4.385,4.385L899.5,202.761Z" transform="translate(-895.017 -197.473)"/><path class="c" d="M913.149,207.63a3.119,3.119,0,0,1,4.379,0l13.428,13.439a3.12,3.12,0,0,1,0,4.379l-4.385,4.385L908.764,212.02Z" transform="translate(-853.592 -156.048)"/></g><g transform="translate(39.325)"><path class="d" d="M942.627,264.652A36.755,36.755,0,1,1,979.385,227.9,36.754,36.754,0,0,1,942.627,264.652Z" transform="translate(-905.869 -191.141)"/><path class="d" d="M905.869,231.806V197.856h33.956Z" transform="translate(-905.868 -161.1)"/><g transform="translate(26.259 34.464)"><path class="e" d="M915.242,199.731a2.288,2.288,0,1,1-2.288-2.294A2.284,2.284,0,0,1,915.242,199.731Z" transform="translate(-910.666 -197.437)"/><path class="e" d="M916.752,199.731a2.294,2.294,0,1,1-2.293-2.294A2.288,2.288,0,0,1,916.752,199.731Z" transform="translate(-903.96 -197.437)"/><path class="e" d="M918.248,199.731a2.291,2.291,0,1,1-2.294-2.294A2.288,2.288,0,0,1,918.248,199.731Z" transform="translate(-897.244 -197.437)"/></g><g transform="translate(9.548 10.713)"><g transform="translate(0 26.045)"><path class="e" d="M931.541,223.9a25.938,25.938,0,0,1-23.194-14.2l5.556-2.852a19.8,19.8,0,0,0,35.269,0,19.441,19.441,0,0,0,2.156-8.988h6.257a26.058,26.058,0,0,1-26.045,26.04Z" transform="translate(-904.331 -197.856)"/><g transform="translate(0 3.622)"><path class="e" d="M910.938,198.518l-3.325,10.258,6.795-3.469Z" transform="translate(-907.613 -198.518)"/><path class="e" d="M908.22,198.519l10.264,3.314-6.79,3.47Z" transform="translate(-904.9 -198.513)"/></g></g><g transform="translate(1.17)"><path class="e" d="M914.078,219.144h-6.251A26.04,26.04,0,0,1,957.06,207.3l-5.561,2.847a19.786,19.786,0,0,0-37.421,9Z" transform="translate(-907.827 -193.098)"/><g transform="translate(39.661 12.155)"><path class="e" d="M919.778,205.582l3.331-10.264-6.794,3.469Z" transform="translate(-909.519 -195.318)"/><path class="e" d="M925.33,202.741l-10.258-3.319,6.794-3.469Z" transform="translate(-915.072 -192.483)"/></g></g></g></g></g></g></svg>