<svg xmlns="http://www.w3.org/2000/svg" width="200" height="200" viewBox="0 0 200 200"><defs><style>.a{fill:#495057;}.b{fill:#45484b;}.c{fill:#fff;}.d{fill:#70c9e9;}</style></defs><g transform="translate(-482.552 -470.405)"><circle class="a" cx="100" cy="100" r="100" transform="translate(482.552 470.405)"/><path class="b" d="M1049.1,287.715,987.07,240.537c1.391-10.8-94.875,21.031-77.322,39.9l73.1,66.329C1022.8,335.612,1041.82,309.557,1049.1,287.715Z" transform="translate(-374.229 319.832)"/><g transform="translate(521.065 536.869)"><path class="c" d="M547.579,475.421a20.234,20.234,0,0,0-2.46.162,33.532,33.532,0,0,0-65.205,0,20.083,20.083,0,0,0-2.455-.162,20.77,20.77,0,1,0,0,41.539h70.12a20.77,20.77,0,0,0,0-41.539Z" transform="translate(-456.686 -449.89)"/><path class="d" d="M518.845,465.114a11.735,11.735,0,0,0-1.358.084,18.635,18.635,0,0,0-36.233,0,11.665,11.665,0,0,0-1.358-.084,11.54,11.54,0,1,0,0,23.081h38.949a11.54,11.54,0,0,0,0-23.081Z" transform="translate(-407.415 -445.506)"/><path class="c" d="M474.291,465.411a2.562,2.562,0,0,1-.59-.068,2.535,2.535,0,0,1-1.875-3.061A13.511,13.511,0,0,1,485.009,451.9a2.533,2.533,0,1,1,0,5.066,8.457,8.457,0,0,0-8.252,6.5A2.544,2.544,0,0,1,474.291,465.411Z" transform="translate(-393.051 -441.406)"/></g></g></svg>