<svg xmlns="http://www.w3.org/2000/svg" width="200" height="200" viewBox="0 0 200 200"><defs><style>.a{fill:#495057;}.b{fill:#45484b;}.c{fill:#eca334;}.d{fill:#fece66;}.e{fill:#f5b540;}</style></defs><g transform="translate(-72.219 -737.257)"><path class="a" d="M272.219,837.255a100,100,0,1,1-100.005-100A100,100,0,0,1,272.219,837.255Z" transform="translate(0 0)"/><path class="b" d="M155.476,757.153l-2.933-2.933c-6.1-5.161-15.531-8.468-26.141-8.468-15.579,0-28.647,7.148-32.264,16.781-5.743,3.98-9.259,9.376-9.259,15.339v6.214a16.127,16.127,0,0,0,3.019,9.232,15.442,15.442,0,0,0-.662,4.434v.011A16.366,16.366,0,0,0,83.7,807.7v6.214c0,4.691,2.191,9.045,5.941,12.641-.027.337-.037.684-.037,1.037V833.8c0,4.515,2.025,8.7,5.5,12.208.091.1.192.208.3.31l52.01,52.015a100.647,100.647,0,0,0,73.568-75.683Z" transform="translate(48.849 35.896)"/><g transform="translate(133.047 782.145)"><g transform="translate(5.903 59.656)"><path class="c" d="M151.34,780.262c0,12.245-14.9,22.177-33.274,22.177S84.8,792.508,84.8,780.262s14.9-22.182,33.263-22.182S151.34,768.012,151.34,780.262Z" transform="translate(-84.802 -751.872)"/><rect class="c" width="66.537" height="6.209" transform="translate(0 22.179)"/><path class="d" d="M151.34,779.1c0,12.245-14.9,22.183-33.274,22.183S84.8,791.341,84.8,779.1s14.9-22.177,33.263-22.177S151.34,766.845,151.34,779.1Z" transform="translate(-84.802 -756.918)"/><path class="e" d="M113.38,790.822c-14.906,0-27.5-7.517-27.5-16.413S98.475,758,113.38,758s27.509,7.517,27.509,16.412S128.286,790.822,113.38,790.822Z" transform="translate(-80.116 -752.232)"/><path class="c" d="M90.316,774.409c0-8.452,11.369-15.648,25.287-16.354-.732-.032-1.475-.059-2.223-.059-14.906,0-27.5,7.517-27.5,16.412s12.593,16.413,27.5,16.413c.748,0,1.491-.021,2.223-.059C101.685,790.063,90.316,782.862,90.316,774.409Z" transform="translate(-80.116 -752.232)"/><g transform="translate(2.005 31.062)"><path class="e" d="M89.641,765.3c-.374-.1-.737-.2-1.111-.3v4.83c.374.107.737.214,1.111.315Z" transform="translate(-70.622 -752.883)"/><path class="e" d="M96.674,768.229a17.714,17.714,0,0,0,1.111-2.078v-3.419c-.342.534-.716,1.058-1.111,1.571Z" transform="translate(-35.255 -762.732)"/><path class="e" d="M90.121,765.362c-.379-.08-.748-.155-1.111-.24v4.856c.363.086.732.171,1.111.246Z" transform="translate(-68.537 -752.353)"/><path class="e" d="M91.079,765.4c-.379-.037-.743-.075-1.111-.118v4.872c.369.043.732.086,1.111.118Z" transform="translate(-64.377 -751.65)"/><path class="e" d="M90.6,765.393c-.369-.059-.737-.112-1.111-.177v4.867c.374.064.743.118,1.111.171Z" transform="translate(-66.461 -751.94)"/><path class="e" d="M88.683,765.123c-.374-.15-.743-.3-1.111-.47v4.781c.369.16.737.321,1.111.481Z" transform="translate(-74.782 -754.39)"/><path class="e" d="M89.163,765.224c-.379-.118-.748-.251-1.111-.38v4.8c.363.139.732.267,1.111.4Z" transform="translate(-72.697 -753.556)"/><path class="e" d="M95.716,769.22c.379-.3.748-.614,1.111-.924v-4.5c-.363.289-.732.577-1.111.855Z" transform="translate(-39.415 -758.129)"/><path class="e" d="M96.2,768.827c.39-.406.759-.818,1.106-1.245v-4.237c-.353.374-.716.743-1.106,1.106Z" transform="translate(-37.335 -760.065)"/><path class="e" d="M87.242,769.22v-4.573c-.379-.278-.748-.566-1.106-.855v4.5C86.489,768.606,86.857,768.915,87.242,769.22Z" transform="translate(-81.018 -758.129)"/><path class="e" d="M88.2,764.988c-.374-.187-.743-.374-1.106-.567v4.723c.358.2.732.4,1.106.588Z" transform="translate(-76.858 -755.393)"/><path class="e" d="M87.721,764.833c-.374-.225-.743-.454-1.106-.695v4.643c.358.251.727.491,1.106.732Z" transform="translate(-78.938 -756.622)"/><path class="e" d="M92.037,770.222v-4.878c-.187,0-.374.01-.561.01s-.363-.01-.55-.01v4.878c.187,0,.363.005.55.005S91.85,770.222,92.037,770.222Z" transform="translate(-60.217 -751.389)"/><path class="e" d="M94.758,769.733c.374-.187.743-.385,1.106-.588v-4.723c-.363.192-.732.379-1.106.567Z" transform="translate(-43.576 -755.393)"/><path class="e" d="M95.237,769.514c.379-.241.748-.481,1.106-.732v-4.643c-.358.241-.727.47-1.106.695Z" transform="translate(-41.496 -756.622)"/><path class="e" d="M94.279,769.915q.561-.241,1.106-.481v-4.781c-.363.166-.727.321-1.106.47Z" transform="translate(-45.656 -754.39)"/><path class="e" d="M85.656,767.582c.353.427.721.839,1.111,1.245v-4.376c-.385-.363-.753-.732-1.111-1.106Z" transform="translate(-83.102 -760.065)"/><path class="e" d="M85.178,766.151a16.9,16.9,0,0,0,1.106,2.078V764.3c-.4-.513-.769-1.037-1.106-1.571Z" transform="translate(-85.178 -762.732)"/><path class="e" d="M93.8,770.043c.374-.128.743-.256,1.111-.4v-4.8c-.374.129-.737.262-1.111.38Z" transform="translate(-47.736 -753.556)"/><path class="e" d="M92.363,770.255c.374-.053.743-.106,1.106-.171v-4.867c-.363.064-.732.118-1.106.177Z" transform="translate(-53.976 -751.94)"/><path class="e" d="M91.884,770.279c.369-.037.737-.08,1.111-.123v-4.872c-.374.043-.743.08-1.111.118Z" transform="translate(-56.056 -751.65)"/><path class="e" d="M91.4,770.263c.374-.011.743-.032,1.106-.053v-4.883c-.363.021-.732.043-1.106.058Z" transform="translate(-58.137 -751.467)"/><path class="e" d="M93.32,770.145c.379-.1.748-.208,1.111-.315V765c-.363.107-.737.2-1.111.3Z" transform="translate(-49.82 -752.883)"/><path class="e" d="M92.842,770.224c.374-.075.737-.16,1.106-.246v-4.856c-.369.085-.737.16-1.106.24Z" transform="translate(-51.896 -752.353)"/><path class="e" d="M91.557,765.385c-.369-.016-.737-.037-1.111-.058v4.883c.374.021.743.043,1.111.053Z" transform="translate(-62.301 -751.467)"/></g></g><g transform="translate(11.797 49.713)"><path class="c" d="M152.443,778.4c0,12.251-14.9,22.172-33.268,22.172S85.906,790.652,85.906,778.4s14.9-22.182,33.269-22.182S152.443,766.151,152.443,778.4Z" transform="translate(-85.906 -750.011)"/><rect class="c" width="66.537" height="6.214" transform="translate(0.002 22.177)"/><path class="d" d="M152.443,777.234c0,12.25-14.9,22.177-33.268,22.177s-33.269-9.927-33.269-22.177,14.9-22.177,33.269-22.177S152.443,764.984,152.443,777.234Z" transform="translate(-85.906 -755.057)"/><path class="e" d="M114.489,788.957c-14.906,0-27.5-7.517-27.5-16.413s12.6-16.407,27.5-16.407,27.5,7.512,27.5,16.407S129.4,788.957,114.489,788.957Z" transform="translate(-81.22 -750.367)"/><path class="c" d="M91.419,772.544c0-8.452,11.369-15.654,25.292-16.348-.732-.038-1.475-.059-2.223-.059-14.906,0-27.5,7.512-27.5,16.407s12.6,16.413,27.5,16.413c.748,0,1.491-.027,2.223-.059C102.788,788.2,91.419,781,91.419,772.544Z" transform="translate(-81.22 -750.367)"/><g transform="translate(2.003 31.062)"><path class="e" d="M90.741,763.438c-.374-.1-.743-.2-1.106-.3v4.83c.363.112.732.214,1.106.315Z" transform="translate(-71.716 -751.022)"/><path class="e" d="M97.778,766.369a17.631,17.631,0,0,0,1.106-2.073v-3.425c-.337.534-.711,1.058-1.106,1.576Z" transform="translate(-36.354 -760.871)"/><path class="e" d="M91.224,763.5c-.374-.075-.743-.155-1.111-.235v4.851c.374.086.737.171,1.111.251Z" transform="translate(-69.64 -750.487)"/><path class="e" d="M92.182,763.531c-.374-.032-.737-.064-1.111-.107v4.867c.374.048.737.085,1.111.117Z" transform="translate(-65.48 -749.784)"/><path class="e" d="M91.7,763.528c-.379-.053-.748-.112-1.111-.171v4.867c.363.059.732.112,1.111.171Z" transform="translate(-67.556 -750.075)"/><path class="e" d="M89.783,763.263c-.374-.155-.743-.315-1.106-.47v4.776c.363.165.732.326,1.106.475Z" transform="translate(-75.876 -752.524)"/><path class="e" d="M90.266,763.373c-.374-.129-.743-.257-1.111-.39V767.8c.369.134.737.267,1.111.39Z" transform="translate(-73.8 -751.699)"/><path class="e" d="M96.82,767.354c.379-.294.748-.609,1.106-.919v-4.5c-.358.288-.727.577-1.106.86Z" transform="translate(-40.514 -756.268)"/><path class="e" d="M97.3,766.976c.385-.406.759-.828,1.106-1.25v-4.242c-.358.379-.721.748-1.106,1.106Z" transform="translate(-38.434 -758.209)"/><path class="e" d="M88.35,767.354v-4.563c-.379-.283-.748-.572-1.111-.86v4.5C87.6,766.744,87.971,767.06,88.35,767.354Z" transform="translate(-82.121 -756.268)"/><path class="e" d="M89.308,763.127c-.374-.182-.743-.374-1.111-.567v4.723c.369.2.737.4,1.111.588Z" transform="translate(-77.961 -753.532)"/><path class="e" d="M88.825,762.972c-.379-.23-.748-.46-1.106-.695v4.637c.358.251.727.491,1.106.732Z" transform="translate(-80.036 -754.761)"/><path class="e" d="M93.14,768.36v-4.878c-.187,0-.369.011-.556.011s-.369-.011-.556-.011v4.878c.187.005.374.016.556.016S92.953,768.365,93.14,768.36Z" transform="translate(-61.32 -749.532)"/><path class="e" d="M95.861,767.872c.379-.187.753-.39,1.111-.588v-4.723c-.363.193-.732.385-1.111.567Z" transform="translate(-44.679 -753.532)"/><path class="e" d="M96.341,767.647c.374-.241.743-.481,1.106-.732v-4.637c-.363.235-.732.465-1.106.695Z" transform="translate(-42.594 -754.761)"/><path class="e" d="M95.383,768.045c.374-.15.737-.31,1.106-.475v-4.776c-.369.155-.732.315-1.106.47Z" transform="translate(-46.754 -752.524)"/><path class="e" d="M86.761,765.726c.342.422.716.844,1.106,1.25V762.6c-.39-.358-.759-.732-1.106-1.111Z" transform="translate(-84.197 -758.209)"/><path class="e" d="M86.281,764.29a17.327,17.327,0,0,0,1.111,2.078v-3.922c-.4-.518-.769-1.042-1.111-1.576Z" transform="translate(-86.281 -760.871)"/><path class="e" d="M94.9,768.186c.379-.122.748-.256,1.111-.39v-4.814c-.363.134-.732.262-1.111.39Z" transform="translate(-48.839 -751.699)"/><path class="e" d="M93.467,768.395c.369-.058.737-.112,1.106-.171v-4.867c-.369.059-.737.118-1.106.171Z" transform="translate(-55.075 -750.075)"/><path class="e" d="M92.987,768.408c.379-.032.743-.069,1.111-.117v-4.867c-.369.043-.732.075-1.111.107Z" transform="translate(-57.159 -749.784)"/><path class="e" d="M92.509,768.4c.369-.011.737-.032,1.111-.053v-4.878c-.374.021-.743.037-1.111.058Z" transform="translate(-59.235 -749.602)"/><path class="e" d="M94.425,768.284c.369-.1.737-.2,1.106-.315v-4.83c-.369.1-.737.2-1.106.3Z" transform="translate(-50.915 -751.022)"/><path class="e" d="M93.945,768.364c.379-.08.748-.165,1.106-.251v-4.851c-.358.08-.727.16-1.106.235Z" transform="translate(-52.999 -750.487)"/><path class="e" d="M92.657,763.525c-.374-.021-.743-.037-1.106-.058v4.878c.363.021.732.043,1.106.053Z" transform="translate(-63.395 -749.602)"/></g></g><g transform="translate(0 39.765)"><path class="c" d="M150.235,776.541c0,12.25-14.89,22.177-33.263,22.177S83.7,788.791,83.7,776.541s14.9-22.183,33.274-22.183S150.235,764.29,150.235,776.541Z" transform="translate(-83.698 -748.145)"/><rect class="c" width="66.537" height="6.209" transform="translate(0.002 22.186)"/><path class="d" d="M150.235,775.383c0,12.245-14.89,22.177-33.263,22.177S83.7,787.628,83.7,775.383s14.9-22.188,33.274-22.188S150.235,763.132,150.235,775.383Z" transform="translate(-83.698 -753.195)"/><path class="e" d="M112.286,787.105c-14.906,0-27.509-7.522-27.509-16.412s12.6-16.418,27.509-16.418,27.5,7.517,27.5,16.418S127.192,787.105,112.286,787.105Z" transform="translate(-79.012 -748.505)"/><path class="c" d="M89.211,770.693c0-8.452,11.369-15.654,25.292-16.359-.732-.037-1.475-.059-2.217-.059-14.906,0-27.509,7.517-27.509,16.418s12.6,16.412,27.509,16.412c.743,0,1.485-.027,2.217-.064C100.58,786.341,89.211,779.145,89.211,770.693Z" transform="translate(-79.012 -748.505)"/><g transform="translate(2.009 31.067)"><path class="e" d="M88.538,761.581c-.379-.1-.743-.192-1.111-.3v4.835c.369.112.732.219,1.111.315Z" transform="translate(-69.513 -749.165)"/><path class="e" d="M95.57,764.507a17.658,17.658,0,0,0,1.106-2.078V759.01a18.717,18.717,0,0,1-1.106,1.576Z" transform="translate(-34.151 -759.01)"/><path class="e" d="M89.012,761.64q-.553-.112-1.106-.24v4.857c.369.08.737.171,1.106.251Z" transform="translate(-67.433 -748.631)"/><path class="e" d="M89.97,761.675l-1.106-.112v4.873c.369.037.737.08,1.106.112Z" transform="translate(-63.273 -747.923)"/><path class="e" d="M89.5,761.666c-.374-.048-.743-.107-1.111-.171v4.867c.369.064.737.123,1.111.177Z" transform="translate(-65.353 -748.219)"/><path class="e" d="M87.58,761.4c-.379-.155-.748-.31-1.111-.47v4.776c.363.166.732.326,1.111.481Z" transform="translate(-73.673 -750.664)"/><path class="e" d="M88.054,761.5c-.369-.117-.737-.246-1.106-.379v4.809c.369.139.737.262,1.106.39Z" transform="translate(-71.593 -749.834)"/><path class="e" d="M94.612,765.5c.385-.3.753-.609,1.106-.924v-4.5c-.353.294-.727.577-1.106.86Z" transform="translate(-38.311 -754.407)"/><path class="e" d="M95.091,765.11c.39-.406.759-.823,1.111-1.24v-4.248c-.358.379-.727.753-1.111,1.111Z" transform="translate(-36.231 -756.348)"/><path class="e" d="M86.138,765.5V760.93c-.379-.283-.748-.566-1.106-.86v4.5C85.39,764.889,85.759,765.193,86.138,765.5Z" transform="translate(-79.914 -754.407)"/><path class="e" d="M87.1,761.276c-.374-.192-.737-.379-1.106-.577v4.728c.363.2.732.4,1.106.588Z" transform="translate(-75.754 -751.675)"/><path class="e" d="M86.618,761.112c-.385-.224-.753-.46-1.106-.695v4.637c.353.251.721.5,1.106.732Z" transform="translate(-77.829 -752.9)"/><path class="e" d="M90.928,766.5v-4.883c-.182.006-.363.011-.55.011s-.369-.005-.556-.011V766.5c.187,0,.369.011.556.011S90.746,766.5,90.928,766.5Z" transform="translate(-59.113 -747.671)"/><path class="e" d="M93.654,766.015c.379-.192.748-.39,1.106-.588V760.7c-.363.2-.727.385-1.106.577Z" transform="translate(-42.472 -751.675)"/><path class="e" d="M94.134,765.786c.374-.235.737-.481,1.106-.732v-4.637c-.369.235-.732.47-1.106.695Z" transform="translate(-40.387 -752.9)"/><path class="e" d="M93.176,766.189q.553-.232,1.106-.481v-4.776c-.369.16-.737.315-1.106.47Z" transform="translate(-44.547 -750.664)"/><path class="e" d="M84.553,763.871c.342.422.721.833,1.106,1.24v-4.376c-.385-.358-.753-.732-1.106-1.111Z" transform="translate(-81.994 -756.348)"/><path class="e" d="M84.074,762.429a17.32,17.32,0,0,0,1.106,2.078v-3.922c-.4-.518-.769-1.042-1.106-1.576Z" transform="translate(-84.074 -759.01)"/><path class="e" d="M92.7,766.322c.379-.128.748-.251,1.106-.385v-4.814c-.363.134-.727.262-1.106.379Z" transform="translate(-46.632 -749.834)"/><path class="e" d="M91.259,766.539c.374-.053.743-.112,1.111-.177V761.5c-.369.064-.737.123-1.111.171Z" transform="translate(-52.872 -748.219)"/><path class="e" d="M90.78,766.548c.374-.032.743-.075,1.106-.112v-4.873l-1.106.112Z" transform="translate(-54.952 -747.923)"/><path class="e" d="M90.3,766.536c.374-.016.737-.027,1.111-.054V761.6c-.374.021-.737.037-1.111.053Z" transform="translate(-57.032 -747.741)"/><path class="e" d="M92.217,766.427c.374-.1.743-.208,1.111-.315v-4.835c-.369.112-.737.208-1.111.3Z" transform="translate(-48.712 -749.165)"/><path class="e" d="M91.738,766.508c.379-.08.743-.171,1.106-.251V761.4q-.545.128-1.106.24Z" transform="translate(-50.792 -748.631)"/><path class="e" d="M90.454,761.658c-.374-.016-.743-.032-1.111-.053v4.878c.369.027.737.037,1.111.054Z" transform="translate(-61.193 -747.741)"/></g></g><g transform="translate(3.537 29.828)"><path class="c" d="M150.9,774.68c0,12.245-14.9,22.183-33.269,22.183S84.36,786.925,84.36,774.68s14.9-22.183,33.274-22.183S150.9,762.429,150.9,774.68Z" transform="translate(-84.36 -746.289)"/><rect class="c" width="66.543" height="6.209" transform="translate(0.002 22.179)"/><path class="d" d="M150.9,773.512c0,12.25-14.9,22.182-33.269,22.182S84.36,785.763,84.36,773.512s14.9-22.177,33.274-22.177S150.9,761.261,150.9,773.512Z" transform="translate(-84.36 -751.335)"/><path class="e" d="M112.944,785.244c-14.906,0-27.5-7.523-27.5-16.418s12.6-16.413,27.5-16.413,27.5,7.512,27.5,16.413S127.85,785.244,112.944,785.244Z" transform="translate(-79.67 -746.649)"/><path class="c" d="M89.874,768.826c0-8.452,11.364-15.648,25.287-16.348-.732-.037-1.469-.064-2.217-.064-14.906,0-27.5,7.512-27.5,16.413s12.6,16.418,27.5,16.418c.748,0,1.485-.027,2.217-.064C101.238,784.48,89.874,777.278,89.874,768.826Z" transform="translate(-79.67 -746.649)"/><g transform="translate(2.009 31.062)"><path class="e" d="M89.2,759.722c-.374-.1-.743-.2-1.111-.3v4.83c.369.112.737.214,1.111.315Z" transform="translate(-70.175 -747.3)"/><path class="e" d="M96.232,762.646a16.931,16.931,0,0,0,1.111-2.078v-3.419a18.169,18.169,0,0,1-1.111,1.571Z" transform="translate(-34.813 -757.149)"/><path class="e" d="M89.679,759.779c-.374-.075-.743-.155-1.111-.24V764.4c.369.085.737.176,1.111.246Z" transform="translate(-68.095 -746.77)"/><path class="e" d="M90.632,759.818c-.369-.032-.732-.075-1.106-.117v4.872c.374.043.737.086,1.106.118Z" transform="translate(-63.935 -746.067)"/><path class="e" d="M90.158,759.806c-.369-.058-.743-.112-1.111-.171V764.5c.369.064.743.118,1.111.177Z" transform="translate(-66.015 -746.353)"/><path class="e" d="M88.242,759.54c-.374-.144-.743-.3-1.111-.47v4.782c.363.165.737.321,1.111.481Z" transform="translate(-74.335 -748.807)"/><path class="e" d="M88.721,759.646c-.374-.123-.743-.256-1.111-.384v4.808c.369.139.737.262,1.111.385Z" transform="translate(-72.255 -747.973)"/><path class="e" d="M95.274,763.637c.385-.3.753-.615,1.111-.924v-4.5c-.358.294-.732.572-1.111.855Z" transform="translate(-38.973 -752.546)"/><path class="e" d="M95.754,763.244c.385-.406.759-.817,1.106-1.24v-4.242c-.353.374-.727.742-1.106,1.106Z" transform="translate(-36.889 -754.482)"/><path class="e" d="M86.805,763.637v-4.573c-.379-.284-.748-.561-1.111-.855v4.5C86.052,763.022,86.421,763.333,86.805,763.637Z" transform="translate(-80.576 -752.546)"/><path class="e" d="M87.758,759.405c-.374-.187-.737-.374-1.106-.566v4.723c.363.2.732.4,1.106.593Z" transform="translate(-76.416 -749.81)"/><path class="e" d="M87.28,759.246c-.379-.224-.753-.454-1.106-.689v4.637c.353.246.727.492,1.106.732Z" transform="translate(-78.491 -751.034)"/><path class="e" d="M91.59,764.639v-4.878c-.182,0-.363.006-.55.006s-.363-.006-.556-.006v4.878c.192,0,.374.011.556.011S91.408,764.639,91.59,764.639Z" transform="translate(-59.775 -745.806)"/><path class="e" d="M94.316,764.155c.379-.2.748-.39,1.111-.593v-4.723c-.363.192-.732.379-1.111.566Z" transform="translate(-43.134 -749.81)"/><path class="e" d="M94.8,763.926c.374-.24.748-.486,1.106-.732v-4.637c-.358.235-.732.465-1.106.689Z" transform="translate(-41.049 -751.034)"/><path class="e" d="M93.838,764.332c.369-.16.743-.315,1.106-.481V759.07c-.363.166-.732.326-1.106.47Z" transform="translate(-45.209 -748.807)"/><path class="e" d="M85.215,762c.347.422.721.833,1.111,1.24v-4.37c-.385-.369-.759-.737-1.111-1.111Z" transform="translate(-82.656 -754.482)"/><path class="e" d="M84.736,760.568a16.873,16.873,0,0,0,1.106,2.078V758.72c-.39-.508-.769-1.036-1.106-1.571Z" transform="translate(-84.736 -757.149)"/><path class="e" d="M93.358,764.455c.374-.123.748-.246,1.111-.385v-4.808c-.369.128-.737.262-1.111.384Z" transform="translate(-47.294 -747.973)"/><path class="e" d="M91.922,764.673c.369-.059.743-.112,1.106-.177v-4.861c-.363.059-.737.112-1.106.171Z" transform="translate(-53.53 -746.353)"/><path class="e" d="M91.442,764.7c.379-.037.743-.08,1.111-.123V759.7c-.369.043-.732.085-1.111.117Z" transform="translate(-55.614 -746.067)"/><path class="e" d="M90.963,764.675c.374-.016.743-.032,1.111-.059v-4.872c-.369.021-.737.043-1.111.054Z" transform="translate(-57.695 -745.88)"/><path class="e" d="M92.88,764.562c.369-.1.737-.2,1.106-.315v-4.83c-.363.107-.737.2-1.106.3Z" transform="translate(-49.37 -747.3)"/><path class="e" d="M92.4,764.641c.379-.07.743-.16,1.106-.246v-4.857c-.363.085-.727.166-1.106.24Z" transform="translate(-51.454 -746.77)"/><path class="e" d="M91.116,759.8c-.369-.011-.743-.032-1.111-.054v4.872c.369.027.743.043,1.111.059Z" transform="translate(-61.855 -745.88)"/></g></g><g transform="translate(9.44 19.885)"><path class="c" d="M152,772.809c0,12.251-14.9,22.183-33.268,22.183s-33.269-9.932-33.269-22.183,14.9-22.172,33.269-22.172S152,760.564,152,772.809Z" transform="translate(-85.464 -744.424)"/><rect class="c" width="66.537" height="6.209" transform="translate(0 22.177)"/><path class="d" d="M152,771.651c0,12.251-14.9,22.183-33.268,22.183S85.465,783.9,85.465,771.651s14.9-22.177,33.269-22.177S152,759.4,152,771.651Z" transform="translate(-85.464 -749.474)"/><path class="e" d="M114.048,783.378c-14.911,0-27.5-7.512-27.5-16.413s12.593-16.413,27.5-16.413,27.5,7.517,27.5,16.413S128.948,783.378,114.048,783.378Z" transform="translate(-80.779 -744.788)"/><path class="c" d="M90.978,766.965c0-8.452,11.369-15.654,25.287-16.354-.732-.032-1.475-.059-2.217-.059-14.911,0-27.5,7.517-27.5,16.413s12.593,16.413,27.5,16.413c.743,0,1.485-.021,2.217-.059C102.347,782.619,90.978,775.417,90.978,766.965Z" transform="translate(-80.779 -744.788)"/><g transform="translate(2.004 31.062)"><path class="e" d="M90.3,757.851c-.369-.1-.737-.192-1.111-.294v4.825c.374.112.743.213,1.111.32Z" transform="translate(-71.284 -745.435)"/><path class="e" d="M97.336,760.78a17.2,17.2,0,0,0,1.111-2.073v-3.419c-.342.539-.716,1.058-1.111,1.57Z" transform="translate(-35.917 -755.288)"/><path class="e" d="M90.783,757.919c-.374-.075-.748-.161-1.111-.241v4.856c.363.091.737.171,1.111.251Z" transform="translate(-69.199 -744.909)"/><path class="e" d="M91.741,757.952c-.374-.027-.743-.07-1.111-.112v4.872c.369.048.737.085,1.111.117Z" transform="translate(-65.039 -744.206)"/><path class="e" d="M91.261,757.945c-.369-.054-.737-.113-1.111-.171v4.867c.374.059.743.117,1.111.171Z" transform="translate(-67.123 -744.492)"/><path class="e" d="M89.341,757.68c-.374-.149-.737-.31-1.106-.47v4.776c.363.166.737.321,1.106.476Z" transform="translate(-75.439 -746.941)"/><path class="e" d="M89.825,757.79c-.374-.129-.743-.251-1.111-.39v4.814c.363.133.737.267,1.111.39Z" transform="translate(-73.359 -746.116)"/><path class="e" d="M96.378,761.77c.379-.3.753-.6,1.111-.924v-4.5c-.358.288-.732.577-1.111.855Z" transform="translate(-40.077 -750.685)"/><path class="e" d="M96.857,761.388c.39-.406.764-.817,1.106-1.244V755.9c-.353.385-.716.748-1.106,1.111Z" transform="translate(-37.997 -752.626)"/><path class="e" d="M87.909,761.77V757.2c-.379-.278-.753-.567-1.111-.855v4.5C87.151,761.167,87.525,761.471,87.909,761.77Z" transform="translate(-81.68 -750.685)"/><path class="e" d="M88.867,757.544c-.374-.182-.748-.374-1.111-.566V761.7c.358.2.737.406,1.111.6Z" transform="translate(-77.52 -747.949)"/><path class="e" d="M88.383,757.39c-.374-.224-.743-.46-1.106-.695v4.643c.363.246.732.491,1.106.732Z" transform="translate(-79.6 -749.178)"/><path class="e" d="M92.7,762.782V757.9c-.187.006-.369.011-.556.011s-.369-.005-.556-.011v4.883c.187.005.369.005.556.005S92.512,762.788,92.7,762.782Z" transform="translate(-60.879 -743.95)"/><path class="e" d="M95.42,762.294c.374-.192.748-.4,1.111-.6v-4.718c-.363.192-.737.384-1.111.566Z" transform="translate(-44.238 -747.949)"/><path class="e" d="M95.9,762.07c.379-.24.748-.486,1.106-.732V756.7c-.358.24-.727.47-1.106.695Z" transform="translate(-42.158 -749.178)"/><path class="e" d="M94.941,762.462c.374-.155.743-.31,1.106-.476V757.21c-.363.16-.727.32-1.106.47Z" transform="translate(-46.318 -746.941)"/><path class="e" d="M86.319,760.143c.347.427.716.839,1.106,1.244v-4.375c-.379-.363-.748-.726-1.106-1.111Z" transform="translate(-83.76 -752.626)"/><path class="e" d="M85.84,758.707a17.171,17.171,0,0,0,1.106,2.073v-3.921c-.39-.513-.769-1.031-1.106-1.57Z" transform="translate(-85.84 -755.288)"/><path class="e" d="M94.462,762.6c.374-.123.748-.257,1.111-.39V757.4c-.369.139-.737.262-1.111.39Z" transform="translate(-48.398 -746.116)"/><path class="e" d="M93.025,762.812c.374-.053.743-.112,1.106-.171v-4.867c-.369.059-.732.118-1.106.171Z" transform="translate(-54.638 -744.492)"/><path class="e" d="M92.546,762.83c.374-.032.743-.07,1.111-.117V757.84c-.369.043-.737.085-1.111.112Z" transform="translate(-56.718 -744.206)"/><path class="e" d="M92.067,762.819c.374-.016.743-.032,1.106-.058v-4.878c-.363.022-.732.043-1.106.059Z" transform="translate(-58.799 -744.019)"/><path class="e" d="M93.983,762.7c.374-.107.743-.208,1.106-.32v-4.825c-.363.1-.732.2-1.106.294Z" transform="translate(-50.478 -745.435)"/><path class="e" d="M93.5,762.786c.374-.08.743-.16,1.106-.251v-4.856c-.363.08-.737.166-1.106.241Z" transform="translate(-52.558 -744.909)"/><path class="e" d="M92.22,757.942c-.374-.016-.743-.037-1.111-.059v4.878c.369.027.737.043,1.111.058Z" transform="translate(-62.959 -744.019)"/></g></g><g transform="translate(1.181 9.942)"><path class="c" d="M150.456,770.958c0,12.25-14.9,22.177-33.268,22.177s-33.269-9.927-33.269-22.177,14.9-22.182,33.269-22.182S150.456,758.707,150.456,770.958Z" transform="translate(-83.919 -742.567)"/><rect class="c" width="66.537" height="6.209" transform="translate(0 22.181)"/><path class="d" d="M150.456,769.8c0,12.245-14.9,22.177-33.268,22.177S83.919,782.041,83.919,769.8s14.9-22.183,33.269-22.183S150.456,757.545,150.456,769.8Z" transform="translate(-83.919 -747.613)"/><path class="e" d="M112.5,781.517c-14.906,0-27.5-7.512-27.5-16.407s12.593-16.418,27.5-16.418S140,756.214,140,765.11,127.4,781.517,112.5,781.517Z" transform="translate(-79.229 -742.927)"/><path class="c" d="M89.428,765.11c0-8.453,11.369-15.654,25.287-16.359-.727-.032-1.469-.059-2.217-.059-14.906,0-27.5,7.522-27.5,16.418s12.593,16.407,27.5,16.407c.748,0,1.491-.022,2.217-.059C100.8,780.758,89.428,773.562,89.428,765.11Z" transform="translate(-79.229 -742.927)"/><g transform="translate(2.009 31.062)"><path class="e" d="M88.758,755.994c-.369-.1-.743-.192-1.111-.3v4.835c.374.1.737.214,1.111.31Z" transform="translate(-69.739 -743.578)"/><path class="e" d="M95.791,758.925a16.94,16.94,0,0,0,1.106-2.078v-3.419c-.337.534-.716,1.058-1.106,1.576Z" transform="translate(-34.372 -753.427)"/><path class="e" d="M89.238,756.057c-.374-.075-.748-.155-1.111-.24v4.861c.363.08.737.166,1.111.246Z" transform="translate(-67.654 -743.048)"/><path class="e" d="M90.191,756.087c-.369-.032-.743-.07-1.106-.107v4.873c.363.037.737.08,1.106.112Z" transform="translate(-63.494 -742.34)"/><path class="e" d="M89.716,756.088c-.369-.053-.737-.112-1.111-.177v4.873c.369.064.743.118,1.111.171Z" transform="translate(-65.578 -742.636)"/><path class="e" d="M87.8,755.819c-.379-.155-.743-.31-1.111-.47v4.776c.369.166.737.326,1.111.481Z" transform="translate(-73.899 -745.08)"/><path class="e" d="M88.279,755.919c-.374-.118-.743-.251-1.111-.38v4.8c.363.139.743.267,1.111.4Z" transform="translate(-71.819 -744.251)"/><path class="e" d="M94.833,759.919c.379-.3.753-.609,1.106-.924v-4.509c-.358.3-.732.582-1.106.866Z" transform="translate(-38.532 -748.828)"/><path class="e" d="M95.311,759.523c.4-.406.764-.818,1.117-1.245v-4.237c-.358.374-.727.748-1.117,1.106Z" transform="translate(-36.457 -750.761)"/><path class="e" d="M86.363,759.919v-4.568c-.374-.284-.753-.567-1.111-.866V759C85.61,759.31,85.984,759.615,86.363,759.919Z" transform="translate(-80.139 -748.828)"/><path class="e" d="M87.317,755.683c-.374-.182-.748-.374-1.106-.567v4.723c.358.2.732.4,1.106.588Z" transform="translate(-75.975 -746.088)"/><path class="e" d="M86.842,755.529c-.374-.224-.743-.454-1.111-.695v4.638c.369.256.737.5,1.111.737Z" transform="translate(-78.059 -747.317)"/><path class="e" d="M91.149,760.917v-4.878c-.187,0-.363.011-.556.011s-.369-.011-.55-.011v4.878c.182.005.363.005.55.005S90.962,760.922,91.149,760.917Z" transform="translate(-59.334 -742.084)"/><path class="e" d="M93.875,760.428c.374-.192.748-.385,1.106-.588v-4.723c-.363.192-.732.385-1.106.567Z" transform="translate(-42.693 -746.088)"/><path class="e" d="M94.353,760.209c.385-.241.753-.481,1.111-.737v-4.638c-.358.241-.727.47-1.111.695Z" transform="translate(-40.617 -747.317)"/><path class="e" d="M93.395,760.606c.379-.155.748-.315,1.111-.481v-4.776c-.363.16-.732.315-1.111.47Z" transform="translate(-44.777 -745.08)"/><path class="e" d="M84.773,758.278c.353.427.721.839,1.111,1.245v-4.376c-.385-.358-.753-.732-1.111-1.106Z" transform="translate(-82.219 -750.761)"/><path class="e" d="M84.295,756.841a15.941,15.941,0,0,0,1.106,2.084V755c-.4-.518-.775-1.042-1.106-1.576Z" transform="translate(-84.295 -753.427)"/><path class="e" d="M92.917,760.744c.369-.133.748-.261,1.106-.4v-4.8c-.363.129-.737.262-1.106.38Z" transform="translate(-46.853 -744.251)"/><path class="e" d="M91.479,760.955c.379-.053.748-.107,1.117-.171v-4.873c-.374.064-.737.123-1.117.177Z" transform="translate(-53.098 -742.636)"/><path class="e" d="M91,760.97c.369-.037.743-.08,1.111-.117V755.98c-.369.037-.743.075-1.111.107Z" transform="translate(-55.173 -742.34)"/><path class="e" d="M90.521,760.958l1.111-.048v-4.888c-.369.022-.732.043-1.111.059Z" transform="translate(-57.258 -742.162)"/><path class="e" d="M92.438,760.84c.374-.1.743-.208,1.106-.31V755.7c-.363.107-.732.2-1.106.3Z" transform="translate(-48.933 -743.578)"/><path class="e" d="M91.959,760.924c.374-.08.743-.166,1.106-.246v-4.861c-.363.085-.737.165-1.106.24Z" transform="translate(-51.013 -743.048)"/><path class="e" d="M90.67,756.079c-.369-.016-.737-.037-1.106-.059v4.888l1.106.048Z" transform="translate(-61.414 -742.162)"/></g></g><g transform="translate(9.44)"><path class="c" d="M152,769.1c0,12.245-14.9,22.183-33.268,22.183S85.465,781.342,85.465,769.1s14.9-22.182,33.269-22.182S152,756.851,152,769.1Z" transform="translate(-85.464 -740.706)"/><rect class="c" width="66.537" height="6.214" transform="translate(0 22.179)"/><path class="d" d="M152,767.929c0,12.25-14.9,22.182-33.268,22.182s-33.269-9.932-33.269-22.182,14.9-22.177,33.269-22.177S152,755.684,152,767.929Z" transform="translate(-85.464 -745.752)"/><path class="e" d="M114.048,779.662c-14.911,0-27.5-7.523-27.5-16.418s12.593-16.413,27.5-16.413,27.5,7.517,27.5,16.413S128.948,779.662,114.048,779.662Z" transform="translate(-80.779 -741.066)"/><path class="c" d="M90.978,763.244c0-8.452,11.369-15.649,25.287-16.348-.732-.038-1.475-.064-2.217-.064-14.911,0-27.5,7.517-27.5,16.413s12.593,16.418,27.5,16.418c.743,0,1.485-.027,2.217-.059C102.347,778.9,90.978,771.7,90.978,763.244Z" transform="translate(-80.779 -741.066)"/><g transform="translate(2.004 31.062)"><path class="e" d="M90.3,754.139c-.369-.1-.737-.2-1.111-.3v4.83c.374.112.743.214,1.111.315Z" transform="translate(-71.284 -741.717)"/><path class="e" d="M97.336,757.063a17.309,17.309,0,0,0,1.111-2.078v-3.419c-.342.534-.716,1.063-1.111,1.571Z" transform="translate(-35.917 -751.566)"/><path class="e" d="M90.783,754.192c-.374-.075-.748-.149-1.111-.235v4.851c.363.086.737.166,1.111.251Z" transform="translate(-69.199 -741.183)"/><path class="e" d="M91.741,754.231c-.374-.037-.743-.07-1.111-.112v4.872c.369.043.737.08,1.111.118Z" transform="translate(-65.039 -740.479)"/><path class="e" d="M91.261,754.223c-.369-.053-.737-.112-1.111-.171v4.867c.374.064.743.112,1.111.165Z" transform="translate(-67.123 -740.77)"/><path class="e" d="M89.341,753.958c-.374-.155-.737-.31-1.106-.47v4.782c.363.16.737.321,1.106.481Z" transform="translate(-75.439 -743.219)"/><path class="e" d="M89.825,754.059c-.374-.123-.743-.256-1.111-.379v4.8c.363.139.737.267,1.111.39Z" transform="translate(-73.359 -742.386)"/><path class="e" d="M96.378,758.06c.379-.31.753-.62,1.111-.93v-4.5c-.358.294-.732.577-1.111.86Z" transform="translate(-40.077 -746.963)"/><path class="e" d="M96.857,757.667c.39-.411.764-.823,1.106-1.245V752.18c-.353.374-.716.743-1.106,1.106Z" transform="translate(-37.997 -748.899)"/><path class="e" d="M87.909,758.06v-4.573c-.379-.283-.753-.566-1.111-.86v4.5C87.151,757.44,87.525,757.75,87.909,758.06Z" transform="translate(-81.68 -746.963)"/><path class="e" d="M88.867,753.822c-.374-.182-.748-.374-1.111-.567v4.723c.358.2.737.4,1.111.588Z" transform="translate(-77.52 -744.227)"/><path class="e" d="M88.383,753.673c-.374-.23-.743-.46-1.106-.7v4.643c.363.251.732.492,1.106.732Z" transform="translate(-79.6 -745.456)"/><path class="e" d="M92.7,759.056v-4.878c-.187,0-.369.01-.556.01s-.369-.01-.556-.01v4.878c.187.005.369.011.556.011S92.512,759.061,92.7,759.056Z" transform="translate(-60.879 -740.223)"/><path class="e" d="M95.42,758.567c.374-.187.748-.385,1.111-.588v-4.723c-.363.192-.737.385-1.111.567Z" transform="translate(-44.238 -744.227)"/><path class="e" d="M95.9,758.347c.379-.24.748-.481,1.106-.732v-4.643c-.358.24-.727.47-1.106.7Z" transform="translate(-42.158 -745.456)"/><path class="e" d="M94.941,758.751q.561-.241,1.106-.481v-4.782c-.363.16-.727.315-1.106.47Z" transform="translate(-46.318 -743.219)"/><path class="e" d="M86.319,756.422c.347.422.716.833,1.106,1.245v-4.381q-.569-.545-1.106-1.106Z" transform="translate(-83.76 -748.899)"/><path class="e" d="M85.84,754.985a17.665,17.665,0,0,0,1.106,2.078v-3.927c-.39-.507-.769-1.036-1.106-1.571Z" transform="translate(-85.84 -751.566)"/><path class="e" d="M94.462,758.873c.374-.123.748-.251,1.111-.39v-4.8c-.369.123-.737.257-1.111.379Z" transform="translate(-48.398 -742.386)"/><path class="e" d="M93.025,759.085c.374-.053.743-.1,1.106-.165v-4.867c-.369.059-.732.118-1.106.171Z" transform="translate(-54.638 -740.77)"/><path class="e" d="M92.546,759.109c.374-.037.743-.075,1.111-.118v-4.872c-.369.043-.737.075-1.111.112Z" transform="translate(-56.718 -740.479)"/><path class="e" d="M92.067,759.1c.374-.011.743-.032,1.106-.053V754.16c-.363.027-.732.048-1.106.059Z" transform="translate(-58.799 -740.301)"/><path class="e" d="M93.983,758.979c.374-.1.743-.2,1.106-.315v-4.83c-.363.107-.732.2-1.106.3Z" transform="translate(-50.478 -741.717)"/><path class="e" d="M93.5,759.059c.374-.085.743-.165,1.106-.251v-4.851c-.363.086-.737.161-1.106.235Z" transform="translate(-52.558 -741.183)"/><path class="e" d="M92.22,754.219c-.374-.011-.743-.032-1.111-.059v4.883c.369.021.737.043,1.111.053Z" transform="translate(-62.959 -740.301)"/></g></g></g></g></svg>