<svg xmlns="http://www.w3.org/2000/svg" width="200" height="200" viewBox="0 0 200 200"><defs><style>.a{fill:#8fdef6;}.b{fill:#70c9e9;}.c{fill:#d9d8d7;}.d{fill:#fff;}.e{fill:#343b43;}.f{fill:#ea6552;}.g{fill:#495057;}</style></defs><g transform="translate(-135.109 -290.438)"><ellipse class="a" cx="100" cy="100" rx="100" ry="100" transform="translate(135.109 290.438)"/><path class="b" d="M278.274,332.767l-49.3-49.3a3.631,3.631,0,0,0-2.606-1.076H129.849a3.61,3.61,0,0,0-2.584,1.076,3.649,3.649,0,0,0-1.076,2.584v75.236a3.711,3.711,0,0,0,.986,2.51l.091.091.091.091,64.887,64.887A100.227,100.227,0,0,0,278.274,332.767Z" transform="translate(56.755 60.559)"/><g transform="translate(183.155 343.178)"><rect class="c" width="30.546" height="13.436" transform="translate(36.658 82.571)"/><rect class="d" width="45.211" height="3.669" transform="translate(29.326 96.007)"/><path class="e" d="M126.188,352.75V286.056a3.666,3.666,0,0,1,3.671-3.661h96.518a3.666,3.666,0,0,1,3.671,3.661V352.75Z" transform="translate(-126.188 -282.395)"/><rect class="d" width="90.416" height="56.914" transform="translate(6.726 6.716)"/><path class="d" d="M230.049,304.145a3.675,3.675,0,0,1-3.671,3.671H129.859a3.675,3.675,0,0,1-3.671-3.671V295.6H230.049Z" transform="translate(-126.188 -225.243)"/><g transform="translate(10.389 10.379)"><rect class="f" width="25.249" height="8.555"/><rect class="f" width="25.249" height="8.555" transform="translate(28.918)"/><rect class="f" width="25.254" height="8.555" transform="translate(57.83)"/><g transform="translate(0 12.219)"><rect class="f" width="25.249" height="16.85"/><rect class="f" width="25.249" height="16.85" transform="translate(28.918)"/><rect class="f" width="25.254" height="16.85" transform="translate(57.83)"/></g><rect class="f" width="83.084" height="16.85" transform="translate(0 32.737)"/></g><g transform="translate(81.754 43.116)"><path class="e" d="M.74,0h29.29a.739.739,0,0,1,.739.739V55.818a.741.741,0,0,1-.741.741H.739A.739.739,0,0,1,0,55.82V.74A.74.74,0,0,1,.74,0Z"/><rect class="d" width="26.315" height="39.471" transform="translate(2.227 8.549)"/><path class="g" d="M.15,0H6.266a.15.15,0,0,1,.15.15V1.7a.15.15,0,0,1-.15.15H.151A.151.151,0,0,1,0,1.7V.15A.15.15,0,0,1,.15,0Z" transform="translate(12.177 51.361)"/><g transform="translate(14.295 3.185)"><path class="g" d="M146.392,292.182a1.09,1.09,0,0,1-2.179,0,1.09,1.09,0,1,1,2.179,0Z" transform="translate(-144.213 -291.084)"/><path class="e" d="M145.137,291.615a.4.4,0,1,1-.394-.4A.392.392,0,0,1,145.137,291.615Z" transform="translate(-143.65 -290.517)"/></g><g transform="translate(4.226 10.548)"><rect class="f" width="22.319" height="6.651"/><rect class="f" width="22.319" height="12.411" transform="translate(0 8.649)"/><rect class="f" width="22.319" height="12.416" transform="translate(0 23.058)"/></g></g></g></g></svg>