<svg xmlns="http://www.w3.org/2000/svg" width="165.707" height="165.746" viewBox="0 0 165.707 165.746"><defs><style>.a,.h{fill:#ffc107;}.b{fill:#593037;}.c{fill:#7a424c;}.d{fill:#25a2bc;}.e{fill:#b3d81d;}.f{fill:#b3b3b3;opacity:0.5;}.f,.h,.i,.j{mix-blend-mode:multiply;isolation:isolate;}.g{fill:#fff;opacity:0.52;}.h,.j{opacity:0.3;}.i{fill:#c1c0c6;opacity:0.7;}.j{fill:#ffa003;}</style></defs><g transform="translate(-130.608 -25.032)"><ellipse class="a" cx="82.853" cy="82.873" rx="82.853" ry="82.873" transform="translate(130.608 25.032)"/><g transform="translate(173.882 64.107)"><rect class="b" width="9.463" height="14.706" transform="translate(37.73 76.592)"/><rect class="c" width="41.688" height="3.007" transform="translate(21.617 88.466)"/><rect class="b" width="52.443" height="3.007" transform="translate(16.165 91.472)"/><path class="c" d="M161.351,104.812a42.5,42.5,0,0,0,60.028-.019l-2.571-2.573a38.8,38.8,0,1,1-54.871-54.871l-2.574-2.574A42.5,42.5,0,0,0,161.351,104.812Z" transform="translate(-148.943 -38.236)"/><path class="b" d="M215.977,106.858a2.031,2.031,0,0,0,2.87,0h0a2.034,2.034,0,0,0,0-2.87L158.83,43.971a2.031,2.031,0,0,0-2.87,0h0a2.031,2.031,0,0,0,0,2.87Z" transform="translate(-144.452 -39.213)"/><g transform="translate(6.748)"><path class="d" d="M223.691,66.422a36.194,36.194,0,1,1-45.282-23.866A36.2,36.2,0,0,1,223.691,66.422Z" transform="translate(-152.914 -40.927)"/><path class="e" d="M216.074,55.907c-1.56,1.115-4.34-.766-6.092-.4-2.775.321-2.445,2.552-4.042,3.765-1.274,1.111-3.431.525-5.008.652-4.185.4-2.442,2.552.977,2.571,1.465.087,4.374-1.534,5.827-.907,2.739,1.308.272,4.945-1.113,6.272-3.208,2.969-7.621,1.786-11.33.241-2.3.675-.814,2.686.454,3.487,1.708,1.448,4.088,1.606,6.2,2.031,4.921.812,4.411,4.382,5.186,8.63.574,3.594.268,7.818,1.66,11.159.906,2.141,3.565,5.454,4.375,8.465a36.059,36.059,0,0,1-8.18,6.528c-2.9-1.295-5.932-4.082-7.64-4.984-2.525-1.195-5.378-2.284-7.009-4.652-1.266-1.764-1-3.822-2.647-5.647C183.6,89.183,181.2,97.11,176,96.563c-2.812-.386-3.093-2.454-5.127-3.8-2.462-1.573-3.548-1.6-5-4.557-4.435-8.358,1.932-15.8,9.745-18.885,1.1.275,4.321-2.058,6.165-2.8,1.866-.936,3.786-1.115,6.129-1.662-.659-2.129-2.586-.814-3.974-1.82-1.286-.678-1.49-1.334-2.11-2.76,1.332-1.489,4.044-1.432,3.234-4.054a3.3,3.3,0,0,0-5.125-1.466c-1.99,1.7.4,4.189-2.766,4.989-1.145.353-4.087-1.607-4.625.714-.476,1.944,11.646,3.4,4.4,4.923a45.134,45.134,0,0,1-5.281.919c-2.333,0-4.17-3.02-6.588-1.553.294,1.526,2.666,2.228,3.387,3.981-2.328,2.336-3.709-1.546-5.777-1.266-2.724.486-1.178,4.318-1,6.058.231,1.9.2,3.531-2.26,4.292-2.624.812-2.272-.374-2.768-2.556-.636-3.217-.523-3.429,1.162-6.105,1.295-2.2.245-3.849,1.917-5.983,1.285-1.655,3.2-2.428,4.372-3.867,1.721-1.969,1.856-5.6-1.546-3.832-1.047.685-2.2,3.915-3.5,3.779-2.761-.223-.535-2.887.347-3.521,2.318-1.794,2.459-.761,1.871-3.813a1.02,1.02,0,0,0-.17-.342,36.211,36.211,0,0,1,54.966,4.331Z" transform="translate(-150.548 -40.927)"/><path class="e" d="M195.07,77.392c-2.07.28-4.058-3.235-5.106-4.885-1.351-2.16-1.217-3.861-1.2-5.993,1.223-.62,3.252.02,4.489,2.1C195.031,71.476,194.7,74.453,195.07,77.392Z" transform="translate(-127.857 -23.194)"/></g><path class="f" d="M199.824,111.5A36.2,36.2,0,1,1,183.1,41.222,31.333,31.333,0,1,0,225.3,75.6,36.219,36.219,0,0,1,199.824,111.5Z" transform="translate(-146.166 -40.72)"/><path class="g" d="M190.073,52.266a5.449,5.449,0,1,1-5.448-5.451A5.448,5.448,0,0,1,190.073,52.266Z" transform="translate(-127.804 -36.81)"/></g><path class="h" d="M234.8,133.451,202.79,165.464a82.774,82.774,0,0,1-78.538-68.292l53.457-53.44a1.941,1.941,0,0,0-.6,1.427,1.969,1.969,0,0,0,.545,1.376,42.381,42.381,0,0,0,26.27,71.146v9.753H187.82v3.008h-5.456v3.008Z" transform="translate(7.545 25.237)"/><path class="i" d="M216.282,101.726A38.8,38.8,0,0,1,161.45,46.892l1.954,1.954a35.26,35.26,0,0,0-3.093,4.01A35.681,35.681,0,0,0,156,61.726c-.289.884-.561,1.8-.782,2.719a36.2,36.2,0,0,0,45.894,43.092c.493-.153.97-.306,1.446-.476.935-.34,1.869-.714,2.77-1.121a35.373,35.373,0,0,0,3.295-1.7h.017l.408-.255c.664-.391,1.31-.8,1.92-1.24.325-.221.664-.459.986-.7.289-.2.561-.425.834-.629.593-.476,1.172-.952,1.733-1.461Z" transform="translate(26.425 27.343)"/><path class="j" d="M203.916,80.791,183.1,101.606h-6.389V91.853a42.091,42.091,0,0,0,24.214-11.181l.117.119A2.054,2.054,0,0,0,203.916,80.791Z" transform="translate(44.387 51.003)"/></g></svg>