<svg xmlns="http://www.w3.org/2000/svg" width="165.51" height="165.51" viewBox="0 0 165.51 165.51"><defs><style>.a{fill:#1bb4bb;}.b{fill:#665c7a;}.c{fill:#534b64;}.d{fill:#fff;opacity:0.1;}.e{fill:#4c455c;}.f{fill:#c7c5cc;}.f,.k,.l{mix-blend-mode:multiply;isolation:isolate;}.g{fill:#e7ebea;}.h{fill:#f2f2f2;}.i{fill:#e1e3e3;}.j{fill:#e1e6e5;}.k{fill:#14a4ab;opacity:0.2;}.l{fill:#c1c0c6;}</style></defs><g transform="translate(-18 -334.588)"><path class="a" d="M183.51,417.345a82.755,82.755,0,1,1-82.755-82.757A82.756,82.756,0,0,1,183.51,417.345Z" transform="translate(0 0)"/><g transform="translate(43.901 386.224)"><path class="b" d="M66.705,402.643v4.352l30.111-14.211,7.866-3.712,18.874-8.909v-4.349L118.09,378.4l-25.419,12Z" transform="translate(-9.852 -357.403)"/><path class="c" d="M33.244,383.39l5.462,2.582,23.817,11.241L90.1,410.218l25.966-12.249,25.419-12,5.466-2.582L90.1,364.979Z" transform="translate(-33.244 -364.979)"/><path class="d" d="M66.705,364.98v45.24l25.97-12.255,25.411-11.993,5.474-2.578Z" transform="translate(-9.852 -364.978)"/><path class="e" d="M42.454,382.718v17.266c0,11.12,17.73,20.12,39.585,20.12s39.6-9,39.6-20.12V384.246l-7.867,3.712L83.658,402.169,51.677,387.078Z" transform="translate(-26.806 -352.577)"/><path class="f" d="M42.454,382.715V392c9.873.5,21.4,5.925,30.967,15.507A59.413,59.413,0,0,1,83.1,420.079c.522.01,1.04-.008,1.561-.031A59.475,59.475,0,0,1,94.31,407.5c8.427-8.426,18.348-13.638,27.326-15.115v-8.145l-7.875,3.716-30.1,14.206L51.671,387.083Z" transform="translate(-26.806 -352.579)"/><path class="b" d="M33.244,375.815v4.349l15.648,7.38,9.222,4.361L90.1,406.995v-4.352L62.523,389.638,38.706,378.4Z" transform="translate(-33.244 -357.403)"/><g transform="translate(54.251 18.538)"><path class="g" d="M96.2,414.376a2.6,2.6,0,0,0,2.6-2.6v-22.6a2.6,2.6,0,0,0-1.686-2.435L68.688,376.057a2.6,2.6,0,1,0-1.826,4.868L93.6,390.978v20.8A2.6,2.6,0,0,0,96.2,414.376Z" transform="translate(-65.174 -375.889)"/></g><g transform="translate(84.68 49.335)"><path class="h" d="M83.083,394.068a.845.845,0,0,1,.217-.053.457.457,0,0,0-.168.034A.1.1,0,0,0,83.083,394.068Z" transform="translate(-83.083 -394.015)"/></g><g transform="translate(74.586 48.291)"><path class="i" d="M78.289,417.836a1.875,1.875,0,0,0,2.462-.994l3.385-7.992L82.8,418.914a1.863,1.863,0,0,0,1.614,2.105,1.771,1.771,0,0,0,.245.022,1.879,1.879,0,0,0,1.862-1.64l1.307-9.846,1.317,9.846a1.872,1.872,0,0,0,1.86,1.64,1.726,1.726,0,0,0,.245-.022,1.863,1.863,0,0,0,1.614-2.105l-1.334-10.065,3.386,7.992a1.878,1.878,0,0,0,3.458-1.468l-8.808-20.832a.8.8,0,0,0-.075-.139,1.689,1.689,0,0,0-.16-.253,1.432,1.432,0,0,0-.206-.224.94.94,0,0,0-.219-.18,1.453,1.453,0,0,0-.535-.26.61.61,0,0,0-.2-.049,1.723,1.723,0,0,0-.685,0,.624.624,0,0,0-.2.049,1.437,1.437,0,0,0-.545.268,1.358,1.358,0,0,0-.217.172,2.143,2.143,0,0,0-.2.224,1.08,1.08,0,0,0-.16.253.805.805,0,0,0-.075.139l-8.808,20.832A1.873,1.873,0,0,0,78.289,417.836Z" transform="translate(-77.142 -393.401)"/><path class="h" d="M83.786,393.45a.4.4,0,0,0-.151-.029.61.61,0,0,1,.2.049C83.813,393.458,83.807,393.45,83.786,393.45Z" transform="translate(-72.603 -393.387)"/></g><g transform="translate(78.903 48.288)"><path class="j" d="M79.683,399.774a6.374,6.374,0,1,0,6.375-6.375A6.374,6.374,0,0,0,79.683,399.774Z" transform="translate(-79.683 -393.399)"/></g></g><path class="k" d="M138.723,429.928l-41.3,41.287a82.747,82.747,0,0,1-78.89-70.393l24.993-25.012v4.351l15.648,7.391v17.263c0,11.112,17.723,20.117,39.59,20.117.357,0,.714,0,1.053-.017.527,0,1.035-.017,1.563-.034a67.889,67.889,0,0,0,19.471-3.364l-2.6,6.151a1.893,1.893,0,0,0,1,2.464,1.874,1.874,0,0,0,2.465-.986l3.381-8-1.325,10.076a1.861,1.861,0,0,0,1.614,2.107c.085,0,.153.017.236.017a1.9,1.9,0,0,0,1.871-1.648l1.308-9.838,1.307,9.838a1.888,1.888,0,0,0,1.871,1.648c.085,0,.153-.017.236-.017a1.875,1.875,0,0,0,1.616-2.107L132.5,421.144l3.383,8a1.905,1.905,0,0,0,2.836.782Z" transform="translate(0.371 28.818)"/><path class="l" d="M107.929,378.372,89.052,397.266v-9.974Z" transform="translate(49.67 30.608)"/></g></svg>