<svg xmlns="http://www.w3.org/2000/svg" width="108.277" height="81.095" viewBox="0 0 108.277 81.095"><defs><style>.a{fill:#301b00;}.a,.b,.c,.d,.e,.f,.g,.h,.i,.j,.k{fill-rule:evenodd;}.b{fill:#c7c9cb;}.c{fill:#e2a25e;}.d{fill:#231000;}.e{fill:#aeb0b3;}.f{fill:#c28648;}.g{fill:#f5b976;}.h{fill:#412e29;}.i{fill:#301e1a;}.j{fill:#92450b;}.k{fill:#6b3200;}</style></defs><g transform="translate(-261.029 -66.388)"><g transform="translate(310.709 66.388)"><path class="a" d="M374.666,66.962c4.428-.765,6.8.019,9.685,1.974,6.293,4.271,7.844,12.766,6.076,22.219-.585,3.123-1.117,13.8.393,16.707,1.446,2.786-2.4,2.906-3.742,3.026h-27.19c-1.156,0-3.853.177-4.328-1.23-.338-1,.546-2.312,1.006-4.1.735-2.859-.129-13.66-.376-16.6-.682-8.14.454-15.183,5.236-19.243A14.069,14.069,0,0,1,374.666,66.962Z" transform="translate(-344.201 -66.388)"/><path class="b" d="M361.186,118.638c-1.035,2.508-.612,3.009-3.06,4.016-5.986,2.462-16.663,5.762-17.571,11.161L338,149h58.6l-2.553-15.186c-.908-5.4-11.585-8.7-17.571-11.161-2.448-1.007-2.025-1.508-3.06-4.016Z" transform="translate(-338.002 -84.915)"/><path class="c" d="M372.72,118.638c-.89,2.158-.7,2.83-2.191,3.617a22.819,22.819,0,0,0,3.2,2.3c3.809,2.3,6.006,2.306,9.821.011a22.79,22.79,0,0,0,3.372-2.433c-1.259-.74-1.132-1.45-1.977-3.5Z" transform="translate(-349.535 -84.915)"/><path class="d" d="M384.564,67.118c4.428-.765,6.8.019,9.684,1.975,6.293,4.271,7.844,12.766,6.076,22.219-.585,3.122-1.117,13.8.393,16.706,1.446,2.786-2.4,2.906-3.742,3.026H383.4V66.853Q383.979,66.966,384.564,67.118Z" transform="translate(-354.098 -66.544)"/><path class="e" d="M383.4,149h29.3l-2.553-15.186c-.908-5.4-11.585-8.7-17.571-11.161-2.448-1.007-2.025-1.508-3.06-4.016H383.4Z" transform="translate(-354.098 -84.915)"/><path class="f" d="M383.4,126.282a9.834,9.834,0,0,0,4.719-1.713,22.791,22.791,0,0,0,3.372-2.433,2.52,2.52,0,0,1-1.144-1.258c-.312-.727-.531-1.5-.833-2.24H383.4Z" transform="translate(-354.098 -84.915)"/><path class="c" d="M366.515,92.826c-.123-.22-.263-.519-.407-.825-.5-1.052-1.238-.983-1.256.323a28.2,28.2,0,0,0,1.041,8.485.949.949,0,0,0,.335.465c.463.339.756.454.876,1.057.81,4.047,3.229,6.43,6.6,8.459,2.81,1.69,3.807,1.679,6.611-.01,4.186-2.523,6.354-5.483,7.232-9.832,2.119-10.5-9.189-4.862-16.319-13.076-1.075-.768-1.918-1.046-2.6.935a36.98,36.98,0,0,0-1.064,3.724C367.411,93.218,366.922,93.559,366.515,92.826Z" transform="translate(-347.522 -73.801)"/><path class="g" d="M366.515,92.826c-.123-.22-.262-.519-.407-.825-.5-1.052-1.238-.983-1.256.323a28.223,28.223,0,0,0,1.041,8.485.944.944,0,0,0,.335.465c.463.34.757.455.876,1.057.81,4.047,3.229,6.43,6.6,8.459a7.093,7.093,0,0,0,3.115,1.257V91.8a14.361,14.361,0,0,1-5.591-3.925c-1.075-.768-1.917-1.046-2.6.935a36.98,36.98,0,0,0-1.064,3.724C367.411,93.218,366.922,93.559,366.515,92.826Z" transform="translate(-347.522 -73.801)"/></g><g transform="translate(261.029 67.652)"><path class="b" d="M284,125.282l-16.212,6.091a6.7,6.7,0,0,0-4.3,5.371l-2.457,14.614h65.993l-2.456-14.614a6.7,6.7,0,0,0-4.3-5.371l-16.21-6.091Z" transform="translate(-261.029 -88.535)"/><path class="e" d="M312.2,151.357h32.966l-2.456-14.614a6.7,6.7,0,0,0-4.3-5.37l-16.21-6.091h-10Z" transform="translate(-279.174 -88.535)"/><g transform="translate(22.487 31.92)"><path class="c" d="M295.87,122.815a9.751,9.751,0,0,0,2.835-5.012h15.41a9.741,9.741,0,0,0,2.835,5.012L306.41,130.8Z" transform="translate(-295.87 -117.803)"/><path class="f" d="M312.2,117.8h7.705a9.741,9.741,0,0,0,2.835,5.012L312.2,130.8Z" transform="translate(-301.661 -117.803)"/></g><path class="g" d="M304.377,68.871c-4.064,0-8.126,1.22-10.66,3.654-2.773,2.664-2.782,6.139-2.653,9.572.04,1.066.14,2.207.319,3.578l-1.248.9a20.559,20.559,0,0,0,1.381,7.349l1.231.647.261.911c1.029,3.59,4.729,8.357,8.6,9.952a17.006,17.006,0,0,0,5.533,0c3.874-1.595,7.574-6.361,8.6-9.952l.261-.911,1.23-.647a20.574,20.574,0,0,0,1.381-7.349l-1.249-.9c.179-1.371.28-2.511.319-3.578.128-3.433.119-6.907-2.653-9.572C312.5,70.091,308.44,68.873,304.377,68.871Z" transform="translate(-271.349 -68.533)"/><path class="c" d="M312.2,105.657a16.923,16.923,0,0,0,2.766-.227c3.874-1.595,7.574-6.361,8.6-9.952l.261-.911,1.23-.647a20.575,20.575,0,0,0,1.381-7.349l-1.249-.9c.179-1.371.28-2.511.319-3.578.128-3.433.119-6.907-2.653-9.572-2.533-2.434-6.6-3.652-10.659-3.654Z" transform="translate(-279.174 -68.533)"/><path class="h" d="M318.133,85.778a27.333,27.333,0,0,0-.032-7.423,10.785,10.785,0,0,0-5.932-8.8c-2.265-.788-6.608-1.776-9.788-.8a27.361,27.361,0,0,0-2.749.052,10.506,10.506,0,0,0-6.683,4.233,11.009,11.009,0,0,0-1.694,5.655,30.923,30.923,0,0,0,.268,6.942l1.787,1.155.58,3.555.834.7c-.226-3.536-.038-11.164,3.171-8.977a9.67,9.67,0,0,0,4.231,1.392,18.218,18.218,0,0,0,5.9-.394c3.2-.957,5.407-3.148,6.347.39a43.077,43.077,0,0,1,.7,7.034l.819-.557.666-3.3Z" transform="translate(-271.709 -68.347)"/><path class="i" d="M325.6,85.778a27.333,27.333,0,0,0-.032-7.423,10.785,10.785,0,0,0-5.932-8.8,21.2,21.2,0,0,0-7.432-1.189V83.517a14.281,14.281,0,0,0,3.285-.454c3.2-.957,5.407-3.148,6.347.39a43.072,43.072,0,0,1,.7,7.034l.819-.556.666-3.3Z" transform="translate(-279.174 -68.347)"/></g><g transform="translate(305.676 101.849)"><path class="a" d="M341.543,141.02c-1.106-1.314-1.885-3.905-1.572-8.3.087-1.183.07-2.322.048-3.494a10.286,10.286,0,0,1,.294-2.38c.262-.964,1.635-1.946,2.07-2.383.151-.152.254-.207-.012-.178-.057.006-.133.017-.23.032-.11-.527,3.493-2.094,5.773-2.178,2.206-1.166,5.338-1.006,7.993.037.742.372.277.34-.019.33-.463.152,4.63,1.131,5.844,3.41a6.072,6.072,0,0,1,.392,2.842,27.733,27.733,0,0,0,.147,4.128,17.951,17.951,0,0,1,.21,4.045,6.586,6.586,0,0,1-3.081,5.278H343.13A2.681,2.681,0,0,1,341.543,141.02Z" transform="translate(-333.643 -121.331)"/><path class="d" d="M357.56,121.334a12,12,0,0,1,4.608.845c.742.372.277.34-.019.33-.463.152,4.63,1.131,5.844,3.41a6.073,6.073,0,0,1,.392,2.842,27.738,27.738,0,0,0,.146,4.128,17.953,17.953,0,0,1,.21,4.045,6.586,6.586,0,0,1-3.081,5.278h-8.1Z" transform="translate(-339.905 -121.331)"/><path class="c" d="M348.09,163.852a5.629,5.629,0,0,0,1.644-2.9h8.935a5.63,5.63,0,0,0,1.645,2.9l-6.111,4.617Z" transform="translate(-336.547 -135.381)"/><path class="f" d="M357.56,160.955h4.467a5.63,5.63,0,0,0,1.645,2.9l-6.111,4.617Z" transform="translate(-339.905 -135.381)"/><g transform="translate(0 27.849)"><path class="b" d="M330.2,176.227l1.765-7.115a5.409,5.409,0,0,1,4.069-3.557l5.11-1.076a8.861,8.861,0,0,0,.907.66,10.235,10.235,0,0,0,5.8,1.826v9.262Z" transform="translate(-330.205 -164.479)"/><path class="e" d="M375.215,176.227l-1.765-7.115a5.408,5.408,0,0,0-4.069-3.557l-5.11-1.076a8.932,8.932,0,0,1-.907.66,10.235,10.235,0,0,1-5.8,1.826v9.262Z" transform="translate(-339.905 -164.479)"/></g><path class="g" d="M348.414,152.52a11.669,11.669,0,0,1-5.315-7.577,2.954,2.954,0,0,1-1.463-2.768c0-1.348.717-2.275,1.6-2.071.915.211,1.131,1.164,1.217,1.975.376.11.69-.037.633-.454-.167-1.791,3.542-4.1,2.3-2.2.99.722,4.222-1.348,4.464-1.321.119.014-.366.756-2.636,1.785a4.528,4.528,0,0,0,1.784.093,10.719,10.719,0,0,0,5.371-2.6,3.009,3.009,0,0,0,.92-2.511c.1.03.313.4.761,1.392a9.043,9.043,0,0,1,.754,5.32c-.057.416.466.607.842.5-.042-.563.317-1.831.94-1.975.886-.2,1.6.724,1.6,2.071a2.886,2.886,0,0,1-1.538,2.793,11.638,11.638,0,0,1-5.31,7.553A6.309,6.309,0,0,1,348.414,152.52Z" transform="translate(-334.258 -126.131)"/><path class="c" d="M357.56,139.787a10.475,10.475,0,0,0,4.456-2.405,3.009,3.009,0,0,0,.92-2.511c.1.03.313.4.761,1.392a9.043,9.043,0,0,1,.754,5.32c-.057.416.466.607.842.5-.042-.563.317-1.831.94-1.975.886-.2,1.6.724,1.6,2.071a2.886,2.886,0,0,1-1.538,2.793,11.638,11.638,0,0,1-5.31,7.553,6.158,6.158,0,0,1-3.429,1.036Z" transform="translate(-339.905 -126.131)"/></g><g transform="translate(288.667 116.122)"><path class="j" d="M319.833,143.763c3.222-.34,7.419.561,8.989,5.539.81,2.566.323,4.921.209,7.708-.136,3.336-.012,5.349,1.21,7.663-1.645.675-5.361.617-7.547.331l-7.769.015c-2.244.29-6.007.31-7.562-.566,2.1-3.287,1.344-4.107,1.209-7.443-.114-2.787-.6-5.142.209-7.708C310.4,144.16,317.08,142.72,319.833,143.763Z" transform="translate(-305.096 -143.445)"/><path class="k" d="M326.117,143.8c3.222-.34,7.419.561,8.989,5.539.81,2.566.323,4.921.209,7.708-.136,3.336-.012,5.349,1.21,7.663-1.645.675-5.361.617-7.547.331l-3.893.007v-21.5A4.757,4.757,0,0,1,326.117,143.8Z" transform="translate(-311.38 -143.482)"/><path class="c" d="M317.575,176.893a5.073,5.073,0,0,0,1.3-2.536h7.087a5.069,5.069,0,0,0,1.3,2.536l-4.848,4.042Z" transform="translate(-308.717 -154.406)"/><path class="f" d="M325.085,174.357h3.543a5.069,5.069,0,0,0,1.3,2.536l-4.848,4.042Z" transform="translate(-311.38 -154.406)"/><path class="b" d="M303.851,186.917l1.1-4.9c.625-2.52,5-3.518,7.28-4.417a6.812,6.812,0,0,0,.719.524,8.115,8.115,0,0,0,4.6,1.448v7.346Z" transform="translate(-303.851 -155.555)"/><path class="e" d="M338.79,186.917l-1.1-4.9c-.625-2.52-5-3.518-7.28-4.417a6.872,6.872,0,0,1-.719.524,8.118,8.118,0,0,1-4.6,1.448v7.346Z" transform="translate(-311.38 -155.555)"/><path class="g" d="M318.145,168.662a12.427,12.427,0,0,1-3.239-2.784,8.209,8.209,0,0,1-1.617-3.521,2.123,2.123,0,0,1-1.17-2.085c0-.911.441-1.563,1.015-1.561q.014-.146.029-.292c.063-.538.41-.86,1.2-.909,3.167-.092,5.314-.1,7.142-.084.115,0,.281-.8.394-.8s.184.807.3.808l.793.007c.323,0,.654-1.685.972-1.683.258,0,.5,1.694.765,1.694.552,0,1.116,0,1.716-.007.508-.006,1.232.159,1.338.747q.032.26.056.522c.574,0,1.016.65,1.016,1.561a2.122,2.122,0,0,1-1.171,2.085,8.2,8.2,0,0,1-1.618,3.521,12.42,12.42,0,0,1-3.238,2.784C320.829,169.9,320.146,169.9,318.145,168.662Z" transform="translate(-306.782 -147.81)"/><path class="c" d="M325.085,157.422l1.02,0c.115,0,.281-.8.394-.8s.184.807.3.808l.793.007c.323,0,.654-1.685.972-1.683.258,0,.5,1.694.765,1.694.552,0,1.116,0,1.716-.007.508-.006,1.232.159,1.338.747q.032.26.056.522c.574,0,1.016.65,1.016,1.561a2.122,2.122,0,0,1-1.171,2.085,8.2,8.2,0,0,1-1.618,3.521,12.42,12.42,0,0,1-3.238,2.784,4.63,4.63,0,0,1-2.343.929Z" transform="translate(-311.38 -147.81)"/></g></g></svg>