<svg xmlns="http://www.w3.org/2000/svg" width="200" height="200" viewBox="0 0 200 200"><defs><style>.a{fill:#fece66;}.b{fill:#f5b540;}.c{fill:#343b43;}.d{fill:#495057;}.e{fill:#fff;}</style></defs><g transform="translate(-404.744 -572.208)"><path class="a" d="M604.744,672.213a100,100,0,1,1-100-100.005A100,100,0,0,1,604.744,672.213Z" transform="translate(0 0)"/><path class="b" d="M406.622,672.476c.351.716.723,1.411,1.085,2.105a100.147,100.147,0,0,0,89.14,54.066c55.258,0,100.048-44.328,100.048-99a97.736,97.736,0,0,0-9.792-42.77l-4.973-4.911h-3.548a12.437,12.437,0,0,0-8.782,3.6,12.186,12.186,0,0,0-3.622,8.7V619.8a7.3,7.3,0,0,1-2.2,5.226,7.394,7.394,0,0,1-1.989,1.379l-8.239-8.148a10.533,10.533,0,0,1-7.563-3.2l-.037-.042c-.181-.216-.378-.447-.6-.679l-.037-.031a20.192,20.192,0,0,0-2.351-2.211c-.229-.195-.479-.39-.734-.579-.069-.053-.122-.1-.181-.137-.271-.205-.558-.395-.851-.589-.261-.184-.521-.348-.782-.5a1.645,1.645,0,0,0-.3-.174c-.165-.105-.346-.21-.527-.31a7.774,7.774,0,0,0-.723-.384.063.063,0,0,0-.053-.026,9.628,9.628,0,0,0-.9-.432,1.042,1.042,0,0,0-.218-.105c-.33-.137-.654-.279-1.005-.411s-.708-.269-1.069-.39a.267.267,0,0,1-.09-.031,20.846,20.846,0,0,0-3.473-.826c-.4-.068-.809-.121-1.218-.169a22.769,22.769,0,0,0-2.484-.137h-9.063l-4.393-4.347a4.631,4.631,0,0,0-6.489,0,4.524,4.524,0,0,0-1.346,3.206V619.71l-5.914-5.853a3.865,3.865,0,0,0-.484-.395c-.08-.047-.16-.079-.24-.126a2.435,2.435,0,0,0-.308-.158,2.557,2.557,0,0,0-.288-.09,2.845,2.845,0,0,0-.3-.095c-.085-.016-.176-.016-.255-.026a3.1,3.1,0,0,0-.308-.042l.01.011-.1-.011h-3.516l-10.478-10.374a4.637,4.637,0,0,0-6.494,0,4.491,4.491,0,0,0-1.356,3.206V606.9h-12.1a23.006,23.006,0,0,0-2.351.116c-.154.011-.293.037-.452.053-.293.031-.606.068-.9.121-.4.069-.8.142-1.186.231s-.761.169-1.138.274a.876.876,0,0,0-.138.037c-.335.084-.67.189-.995.3l-.128.042c-.314.1-.612.205-.9.316-.117.042-.234.095-.34.132-.3.126-.6.253-.9.384-.362.163-.713.331-1.059.51-.675.342-1.319.716-1.952,1.111-.053.037-.117.073-.176.116-.628.405-1.218.842-1.8,1.3-.314.232-.606.489-.894.742s-.569.527-.851.79-.543.552-.8.837l-.037.031a2.564,2.564,0,0,0-.3.353c-.106.111-.2.227-.3.326a10.459,10.459,0,0,1-7.6,3.242v5.485h-1.984a2.962,2.962,0,0,0-2.1.858,2.919,2.919,0,0,0-.878,2.084v.495a12.445,12.445,0,0,0-8.782,3.585c-.266.274-.521.558-.766.847-.08.089-.144.184-.218.274-.159.205-.324.416-.473.632-.075.1-.138.21-.208.316-.144.221-.282.447-.41.679-.053.095-.106.2-.159.289-.138.263-.266.537-.388.811-.026.073-.053.131-.085.2a11.549,11.549,0,0,0-.665,2.185c-.021.084-.026.163-.042.242-.043.205-.08.411-.112.621l.016.01a13.333,13.333,0,0,0-.117,1.6v25.538a7.3,7.3,0,0,1-2.191,5.221,7.392,7.392,0,0,1-5.255,2.163h-8.531Z" transform="translate(7.849 43.561)"/><g transform="translate(414.429 624.532)"><g transform="translate(0 19.264)"><path class="c" d="M441.08,593.011a2.462,2.462,0,0,1-2.468,2.442H434.68a7.386,7.386,0,0,0-7.374,7.39v25.538a12.274,12.274,0,0,1-12.274,12.3h-5.906c-.895-1.611-1.737-3.242-2.542-4.916h8.448a7.4,7.4,0,0,0,7.369-7.385V602.843a12.247,12.247,0,0,1,12.28-12.29h3.932a2.477,2.477,0,0,1,2.468,2.458Z" transform="translate(-406.584 -564.594)"/><path class="d" d="M411.923,598.747a2.935,2.935,0,0,0,.863,2.089,2.98,2.98,0,0,0,2.084.853h1.958V589.9h-1.958a2.962,2.962,0,0,0-2.084.858,2.927,2.927,0,0,0-.863,2.089Z" transform="translate(-383.822 -567.382)"/><path class="d" d="M424.415,642.439a4.529,4.529,0,0,0,4.548-4.532V590.153a4.529,4.529,0,0,0-4.548-4.532h0a4.547,4.547,0,0,0-4.547,4.532v47.755a4.546,4.546,0,0,0,4.547,4.532Z" transform="translate(-349.949 -585.621)"/><g transform="translate(79.014 11.701)"><path class="e" d="M436.365,593.281a3.185,3.185,0,0,0-2.248-5.437H421.6v6.363h12.522A3.172,3.172,0,0,0,436.365,593.281Z" transform="translate(-421.596 -587.844)"/><path class="e" d="M436.365,598.416a3.179,3.179,0,0,0-2.248-5.432H421.6v6.363h12.522A3.156,3.156,0,0,0,436.365,598.416Z" transform="translate(-421.596 -565.93)"/></g><path class="c" d="M436.016,586.7a22.735,22.735,0,1,0,0,45.471h11.969V586.7Z" transform="translate(-378.066 -581.025)"/><path class="c" d="M437.8,586.7a22.687,22.687,0,0,0-16.79,7.416l-.037.037c-.21.232-.405.463-.595.679a10.321,10.321,0,0,1-7.521,3.232v22.764a10.321,10.321,0,0,1,7.521,3.232c.19.21.384.442.595.674l.037.037a22.659,22.659,0,0,0,16.79,7.405h11.969V586.7Z" transform="translate(-379.848 -581.029)"/><path class="d" d="M416.974,609.191a2.951,2.951,0,0,1-2.953-2.948,18.823,18.823,0,0,1,18.806-18.8,2.947,2.947,0,0,1,0,5.895,12.915,12.915,0,0,0-12.9,12.9A2.951,2.951,0,0,1,416.974,609.191Z" transform="translate(-374.877 -577.832)"/></g><g transform="translate(101.627)"><path class="c" d="M468.459,586.877h-8.437a7.395,7.395,0,0,0-7.374,7.384V619.8a12.247,12.247,0,0,1-12.279,12.285h-3.932a2.491,2.491,0,0,1-.984-.2,2.447,2.447,0,0,1,0-4.495,2.5,2.5,0,0,1,.984-.205h3.932a7.394,7.394,0,0,0,7.379-7.384V594.262a12.265,12.265,0,0,1,12.274-12.3h5.9C466.817,583.572,467.659,585.2,468.459,586.877Z" transform="translate(-389.455 -581.961)"/><path class="d" d="M439.17,592.842a2.93,2.93,0,0,0-.868-2.084,2.963,2.963,0,0,0-2.084-.858h-1.963v11.785h1.963a2.938,2.938,0,0,0,2.953-2.942Z" transform="translate(-388.258 -548.118)"/><path class="d" d="M430.057,585.621a4.528,4.528,0,0,0-4.542,4.532v47.755a4.528,4.528,0,0,0,4.542,4.532h0a4.537,4.537,0,0,0,4.542-4.532V590.153a4.538,4.538,0,0,0-4.542-4.532Z" transform="translate(-425.515 -566.357)"/><path class="c" d="M439.22,632.175a22.738,22.738,0,0,0,0-45.476H427.241v45.476Z" transform="translate(-418.156 -561.761)"/><path class="c" d="M439.211,632.18A22.668,22.668,0,0,0,456,624.764l.037-.037c.21-.232.405-.468.59-.679a10.352,10.352,0,0,1,7.521-3.237V598.058a10.352,10.352,0,0,1-7.521-3.237c-.184-.216-.379-.442-.59-.679L456,594.11a22.644,22.644,0,0,0-16.79-7.411H427.242V632.18Z" transform="translate(-418.152 -561.761)"/></g></g></g></svg>