<svg xmlns="http://www.w3.org/2000/svg" width="164.957" height="164.957" viewBox="0 0 164.957 164.957"><defs><style>.a,.x{fill:#1bb4bb;}.b{fill:#665c7a;}.c{fill:#f74f17;}.d{fill:#ccc;}.e{fill:#dbdbdb;}.f{fill:#f0f0f0;}.g{fill:#74aabe;}.h,.l,.u,.w{fill:#bec7c7;}.h,.l,.u,.w,.x,.y{mix-blend-mode:multiply;isolation:isolate;}.i{fill:#dedede;}.j{fill:#f2f2f2;}.k{fill:#d9dada;}.l{opacity:0.27;}.m{fill:#f7e83e;}.n{fill:#534b64;}.o{fill:#e5e5e5;}.p,.v{fill:#fff;}.q{fill:#62bdc7;}.r{fill:#4d4d4d;}.s{fill:#f17931;}.t{fill:#e9e8e8;}.u{opacity:0.58;}.v{opacity:0.26;}.w{opacity:0.53;}.x,.y{opacity:0.3;}.y{fill:#ffaf05;}</style></defs><g transform="translate(-18 -229.059)"><path class="a" d="M182.957,311.538a82.478,82.478,0,1,1-82.478-82.479A82.479,82.479,0,0,1,182.957,311.538Z" transform="translate(0 0)"/><g transform="translate(42.023 269.724)"><g transform="translate(58.692)"><rect class="b" width="0.804" height="16.308"/><rect class="c" width="7.951" height="5.103" transform="translate(0.804 0.561)"/></g><rect class="d" width="112.005" height="4.464" transform="translate(3.101 71.105)"/><rect class="e" width="115.912" height="38.384" transform="translate(1.149 32.727)"/><rect class="f" width="7.873" height="10.786" transform="translate(89.122 39.453)"/><rect class="g" width="5.853" height="8.762" transform="translate(90.13 40.464)"/><rect class="f" width="7.876" height="10.786" transform="translate(103.403 39.453)"/><rect class="g" width="5.852" height="8.762" transform="translate(104.416 40.464)"/><rect class="f" width="7.873" height="10.786" transform="translate(89.122 56.554)"/><rect class="g" width="5.853" height="8.766" transform="translate(90.13 57.563)"/><rect class="f" width="7.876" height="10.786" transform="translate(103.403 56.554)"/><rect class="g" width="5.852" height="8.766" transform="translate(104.416 57.563)"/><path class="h" d="M101.065,276.38v2.277H95.678v8.509H93.189V276.38Z" transform="translate(10.214 -236.927)"/><path class="h" d="M92.661,276.38v2.277H87.271v8.509H84.784V276.38Z" transform="translate(4.339 -236.927)"/><path class="h" d="M101.065,286.506v2.279H95.678v8.507H93.189V286.506Z" transform="translate(10.214 -229.952)"/><path class="h" d="M92.661,286.506v2.279H87.271v8.507H84.784V286.506Z" transform="translate(4.339 -229.952)"/><rect class="f" width="7.876" height="10.786" transform="translate(6.682 39.453)"/><rect class="i" width="45.178" height="4.494" transform="translate(36.641 71.076)"/><rect class="g" width="5.859" height="8.762" transform="translate(7.689 40.464)"/><rect class="f" width="7.874" height="10.786" transform="translate(20.963 39.453)"/><rect class="g" width="5.852" height="8.762" transform="translate(21.976 40.464)"/><rect class="f" width="7.876" height="10.786" transform="translate(6.682 56.554)"/><rect class="g" width="5.859" height="8.766" transform="translate(7.689 57.563)"/><rect class="f" width="7.874" height="10.786" transform="translate(20.963 56.554)"/><rect class="g" width="5.852" height="8.766" transform="translate(21.976 57.563)"/><path class="h" d="M52.462,276.38v2.277H47.075v8.509H44.587V276.38Z" transform="translate(-23.624 -236.927)"/><path class="h" d="M44.057,276.38v2.277H38.668v8.509H36.181V276.38Z" transform="translate(-29.499 -236.927)"/><path class="h" d="M52.462,286.506v2.279H47.075v8.507H44.587V286.506Z" transform="translate(-23.624 -229.952)"/><path class="h" d="M44.057,286.506v2.279H38.668v8.507H36.181V286.506Z" transform="translate(-29.499 -229.952)"/><path class="j" d="M100.552,276.224v43.007H53.017V276.224H59l17.775-16.093,17.786,16.093Z" transform="translate(-17.68 -248.119)"/><path class="k" d="M92.761,278.737v37.479H56.292V278.737h2.584L74.52,264.573l15.656,14.164Z" transform="translate(-15.424 -245.06)"/><path class="l" d="M85.969,278.737v37.479H84.475V280.241H81.89L66.234,266.082,66.151,266l1.577-1.427,15.656,14.164Z" transform="translate(-8.595 -245.06)"/><rect class="m" width="17.924" height="6.566" transform="translate(50.142 38.566)"/><g transform="translate(51.202 39.588)"><path class="b" d="M64.682,279.942a1.277,1.277,0,0,1-.247.816.881.881,0,0,1-.471.321,1.246,1.246,0,0,1-.382.056,1.073,1.073,0,0,1-.67-.2,1.11,1.11,0,0,1-.35-.446,1.775,1.775,0,0,1-.152-.645l.655-.047a1.012,1.012,0,0,0,.209.578.35.35,0,0,0,.285.128.424.424,0,0,0,.36-.221.56.56,0,0,0,.069-.3.832.832,0,0,0-.26-.564c-.135-.13-.339-.323-.61-.581a2.6,2.6,0,0,1-.485-.593,1.391,1.391,0,0,1-.152-.64,1.114,1.114,0,0,1,.419-.944,1.024,1.024,0,0,1,.64-.194,1.163,1.163,0,0,1,.63.166.949.949,0,0,1,.328.355,1.286,1.286,0,0,1,.15.529l-.657.12a.792.792,0,0,0-.16-.436.337.337,0,0,0-.272-.113.315.315,0,0,0-.289.167.649.649,0,0,0-.078.334.991.991,0,0,0,.267.635,2.107,2.107,0,0,0,.307.294c.159.132.263.228.316.279a2.293,2.293,0,0,1,.392.5,1.94,1.94,0,0,1,.106.216A1.189,1.189,0,0,1,64.682,279.942Z" transform="translate(-62.411 -276.46)"/><path class="b" d="M65.182,281.131a1.084,1.084,0,0,1-1.094-1.086v-2.489a1.052,1.052,0,0,1,.321-.773,1.066,1.066,0,0,1,.773-.318,1.05,1.05,0,0,1,.77.319,1.073,1.073,0,0,1,.316.772v.52h-.713v-.535a.363.363,0,0,0-.118-.277.392.392,0,0,0-.67.277v2.5a.377.377,0,0,0,.113.277.391.391,0,0,0,.557,0,.363.363,0,0,0,.118-.277v-.63h.713v.637a1.087,1.087,0,0,1-1.086,1.086Z" transform="translate(-61.256 -276.457)"/><path class="b" d="M66.4,279.124v1.929h-.687V276.5H66.4v1.935h.828V276.5h.689v4.556h-.689v-1.929Z" transform="translate(-60.137 -276.435)"/><path class="b" d="M68.464,276.46a1.063,1.063,0,0,1,.777.319,1.074,1.074,0,0,1,.316.772v2.491a1.089,1.089,0,1,1-2.179,0v-2.491a1.087,1.087,0,0,1,1.086-1.091Zm.377,1.079a.389.389,0,0,0-.393-.393.376.376,0,0,0-.277.113.371.371,0,0,0-.122.28v2.494a.367.367,0,0,0,.122.279.377.377,0,0,0,.277.115.387.387,0,0,0,.279-.115.38.38,0,0,0,.115-.279Z" transform="translate(-58.99 -276.46)"/><path class="b" d="M70.106,276.46a1.062,1.062,0,0,1,.775.319,1.074,1.074,0,0,1,.316.772v2.491a1.088,1.088,0,1,1-2.177,0v-2.491a1.084,1.084,0,0,1,1.086-1.091Zm.373,1.079a.387.387,0,0,0-.392-.393.392.392,0,0,0-.28.113.385.385,0,0,0-.117.28v2.494a.381.381,0,0,0,.117.279.393.393,0,0,0,.28.115.387.387,0,0,0,.279-.115.378.378,0,0,0,.113-.279Z" transform="translate(-57.859 -276.46)"/><path class="b" d="M72.542,281.052H70.669V276.5h.687v3.872h1.186Z" transform="translate(-56.723 -276.435)"/></g><rect class="b" width="17.717" height="16.459" transform="translate(50.245 54.697)"/><rect class="n" width="6.889" height="15.016" transform="translate(51.549 56.089)"/><rect class="n" width="6.89" height="15.016" transform="translate(59.766 56.089)"/><rect class="o" width="22.695" height="1.491" transform="translate(47.754 71.105)"/><rect class="j" width="25.881" height="1.486" transform="translate(46.162 72.596)"/><rect class="p" width="29.032" height="1.488" transform="translate(44.588 74.082)"/><g transform="translate(54.134 24.777)"><path class="q" d="M69.116,277.627a4.968,4.968,0,1,1,4.97-4.969A4.974,4.974,0,0,1,69.116,277.627Z" transform="translate(-64.147 -267.69)"/><path class="p" d="M72.83,272.295a4.078,4.078,0,1,1-4.078-4.077A4.073,4.073,0,0,1,72.83,272.295Z" transform="translate(-63.783 -267.326)"/><path class="r" d="M67.4,272.023a.305.305,0,0,1-.422,0h0a.3.3,0,0,1,0-.421l2.38-2.376a.292.292,0,0,1,.419,0h0a.3.3,0,0,1,0,.422Z" transform="translate(-62.257 -266.693)"/><path class="r" d="M68.009,270.989a.294.294,0,0,1,.106.4h0a.294.294,0,0,1-.4.111l-1.672-.968a.3.3,0,0,1-.111-.405h0a.292.292,0,0,1,.405-.106Z" transform="translate(-62.946 -266.111)"/><g transform="translate(4.698 4.847)"><path class="s" d="M69.658,273.3l-.147.139-2.275-2.417a.236.236,0,1,1,.164-.225.234.234,0,0,1-.015.084Z" transform="translate(-66.929 -270.56)"/></g></g><rect class="t" width="35.115" height="1.664" transform="translate(0 31.063)"/><rect class="t" width="35.114" height="1.664" transform="translate(83.095 31.063)"/><rect class="u" width="33.966" height="1.987" transform="translate(1.149 32.727)"/><rect class="u" width="33.967" height="1.987" transform="translate(83.095 32.727)"/><path class="v" d="M79.669,275.844l-17.935,6.572v-6.572Z" transform="translate(-11.676 -237.296)"/><path class="w" d="M68.168,311.468l0,4.453-33.315-.015v-4.455l-1.95,0,0-9.043,5.533-5.517,6.3-6.3,1.579-1.577,6.322-6.317,1.01-1.009.871-.872,1.009-1.006,4.747-4.745,1.992-1.989,1.659-1.659,2.959,0-.017,40.05Z" transform="translate(-31.758 -240.347)"/></g><path class="x" d="M156.3,315.929l-48.045,48.047a80.909,80.909,0,0,1-8.378.422,82.276,82.276,0,0,1-81.332-69.883l23.1-23.1v1.672h1.147v38.387h1.944v4.459Z" transform="translate(0.373 29.617)"/><path class="y" d="M79.507,253.021v12.4L62.162,281.124H56.167v2.955H48.432Z" transform="translate(21.133 16.64)"/></g></svg>