<svg xmlns="http://www.w3.org/2000/svg" width="166.09" height="166.075" viewBox="0 0 166.09 166.075"><defs><style>.a{fill:#fc6171;}.b{fill:#f9ce83;}.c{fill:#379c9b;}.d{fill:#f9e398;}.e{fill:#f2f2f2;}.f,.j,.k{fill:#b3b3b3;}.f{opacity:0.52;}.f,.i,.k,.s,.u,.v{mix-blend-mode:multiply;isolation:isolate;}.g{fill:#87cdde;}.h{fill:#7b7982;}.i{opacity:0.26;}.l{fill:#f88011;}.m{fill:#fff;}.n{fill:#e7c5a7;}.o{fill:#efd2b2;}.p{fill:#9b6138;}.q{opacity:0.13;}.r{fill:#4d4d4d;}.s{opacity:0.48;}.t{fill:#8bacb2;}.u{fill:#cdbab2;}.v{fill:#dbdbdb;opacity:0.79;}</style></defs><g transform="translate(-25.201 -25.216)"><circle class="a" cx="83.038" cy="83.038" r="83.038" transform="translate(25.216 25.216)"/><g transform="translate(52.134 74.218)"><rect class="b" width="93.107" height="67.917" transform="translate(2.528 0)"/><rect class="c" width="82.082" height="56.892" transform="translate(8.042 5.513)"/><path d="M120.585,49.975s-1.037,41.333,0,56.893c-20.594,1.665-82.079,0-82.079,0V49.975Z" transform="translate(-30.463 -44.463)"/><rect class="d" width="98.163" height="2.833" transform="translate(0 65.084)"/><path class="e" d="M56.422,84.632A1.43,1.43,0,0,1,55.1,86.153H46.832a1.432,1.432,0,0,1-1.321-1.521h0a1.434,1.434,0,0,1,1.321-1.522H55.1a1.432,1.432,0,0,1,1.321,1.522Z" transform="translate(-25.526 -21.107)"/><path class="f" d="M120.583,49.974v2.757H41.417v54.137H38.505V49.974Z" transform="translate(-30.464 -44.464)"/><g transform="translate(33.922 58.5)"><rect class="g" width="12.864" height="5.341"/><rect class="h" width="12.864" height="1.205" transform="translate(0 5.341)"/></g><g class="i" transform="translate(52.047 18.521)"><path class="j" d="M75.992,77.487V77.5l-2.683.992Z" transform="translate(-57.979 -43.592)"/><path class="j" d="M88.536,77.551c-.044.109-.09.239-.136.349.046-.119.092-.24.128-.358Z" transform="translate(-47.342 -43.554)"/><path class="k" d="M107.906,67.5a21.579,21.579,0,0,0-2.9-4.283,15.71,15.71,0,0,0-2.608-2.535,14.718,14.718,0,0,0-9.1-3.077c-4.042,0-8.214,2.435-10.739,5.788-2.39,3.169-4.613,7.561-5.111,11.31-.973,6.946,2.932,16.87,9.465,13.37V90.5l-4.586,1.009-2.682.994-.515.193-4.944,1.838L72.891,95c-.01,0-.01.027-.027.027l-.048.009H72.8a11.867,11.867,0,0,0-7.067,6.451A18.486,18.486,0,0,0,64.317,107h43.589V92.447l-2.4-.846H105.5l-3.106-.716-1.7-.385V87.844a5.293,5.293,0,0,0,1.7.488c2.361.22,4.226-1.553,5.512-3.519Z" transform="translate(-64.317 -57.606)"/></g><g transform="translate(59.269 16.138)"><path class="l" d="M128.132,98.253h.032v4.3H68.587v-4.3c0-4.286-1.06-15.114,8.637-18.627h.015l.041-.009c.017,0,.017-.026.032-.026l1.3-.467,4.942-1.846h.007l3.2-1.183a5.016,5.016,0,0,0,.2.542c1.553,3.6,6.059,6.182,11.4,6.182a.9.9,0,0,0,.007.14.456.456,0,0,0,.019.114,2.525,2.525,0,0,1-.009-.254c5.195-.009,9.605-2.464,11.256-5.919.107-.23.213-.476.3-.714l3.234,1.151h0l.009-.01,6.335,2.25v.049C129.2,83.14,128.132,93.967,128.132,98.253Z" transform="translate(-68.553 -42.19)"/><path class="m" d="M92.159,82.823c0,7.126-13.736,7.624-14.81-5.543l3.2-1.187a5.8,5.8,0,0,0,.211.546C82.31,80.23,86.82,82.823,92.159,82.823Z" transform="translate(-62.353 -42.191)"/><path class="m" d="M100.836,77.3c-1.1,13.114-14.8,12.606-14.8,5.49,5.2,0,9.621-2.467,11.267-5.926.106-.23.215-.471.3-.713Z" transform="translate(-56.23 -42.154)"/><path class="n" d="M102.016,79.8c-1.647,3.459-6.068,5.926-11.268,5.926-5.34,0-9.849-2.593-11.4-6.184l4.375-1.548V71.979H97.5v6.013Z" transform="translate(-60.942 -45.091)"/><g transform="translate(17.559 7.953)"><path class="o" d="M103.061,70.816A17.59,17.59,0,0,1,102.9,73.2a16.111,16.111,0,0,1-.409,2.1,14.749,14.749,0,0,1-4.847,7.75,10.37,10.37,0,0,1-13.2.131,14.688,14.688,0,0,1-5.014-7.9,15.387,15.387,0,0,1-.411-2.092c-.066-.46-.116-.929-.14-1.4-.017-.327-.026-.639-.026-.968s.009-.673.031-1c3.59-.017,8.574-1.979,10.708-2.915a14.743,14.743,0,0,0,7.215-6.027c1.207,2.3,3.391,5.075,5.781,5.87.032.133.063.273.1.411s.048.271.073.4v.009A17.483,17.483,0,0,1,103.061,70.816Z" transform="translate(-78.852 -60.873)"/></g><g transform="translate(13.168)"><path class="p" d="M86.258,86.464a15.416,15.416,0,0,1-5.563-11.394c-.02-.324-.027-.643-.027-.968s.007-.672.031-1c3.587-.017,8.572-1.984,10.7-2.917a14.75,14.75,0,0,0,7.225-6.028c1.2,2.3,3.384,5.077,5.776,5.872.061.274.123.547.174.82a17.262,17.262,0,0,1,.3,3.251A15.669,15.669,0,0,1,99.457,86.34c4.717,2.477,7.907-3.11,9.015-6.066,1.129-3,1.057-5.827,0-10.222a21.694,21.694,0,0,0-4.5-8.224,14.864,14.864,0,0,0-11.7-5.619c-4.051,0-8.206,2.44-10.737,5.791-2.383,3.171-4.61,7.565-5.111,11.31C75.435,80.38,79.5,90.558,86.258,86.464Z" transform="translate(-76.277 -56.208)"/></g><g class="q" transform="translate(17.559 7.953)"><path class="r" d="M78.852,70.818c0,.326.01.641.027.965a25.537,25.537,0,0,0,9.506-3.192c3.589-1.974,6.779-4.659,8.3-7.467.043-.084.09-.165.133-.251A14.737,14.737,0,0,1,89.588,66.9c-2.133.933-7.116,2.9-10.7,2.917C78.862,70.142,78.852,70.482,78.852,70.818Z" transform="translate(-78.852 -60.873)"/></g><g class="s" transform="translate(35.521 7.953)"><path class="t" d="M89.388,60.873a9.769,9.769,0,0,0,5.948,6.692c-.048-.274-.113-.547-.17-.822C92.77,65.948,90.585,63.176,89.388,60.873Z" transform="translate(-89.388 -60.873)"/></g><path class="u" d="M73.894,95.665V85.874l1.914,8.346,5.609,1.445Z" transform="translate(-64.788 -35.297)"/><path class="u" d="M101.484,95.665V85.874L99.57,94.22l-5.612,1.445Z" transform="translate(-50.646 -35.297)"/><path class="e" d="M79.774,70.189a.92.92,0,0,1-.338.058,1.08,1.08,0,0,1-1.076-1.083,1.068,1.068,0,0,1,1-1.067A15.386,15.386,0,0,0,79.774,70.189Z" transform="translate(-61.64 -47.828)"/><path class="e" d="M94.071,69.161a1.082,1.082,0,0,1-1.084,1.083.884.884,0,0,1-.269-.041,16.11,16.11,0,0,0,.409-2.1A1.065,1.065,0,0,1,94.071,69.161Z" transform="translate(-51.52 -47.824)"/></g></g><path class="v" d="M163.793,123.257l-36.229,36.229a83.1,83.1,0,0,1-109.574-78.7c0-1.586.051-3.154.136-4.723L47.451,46.742v65.092h-2.54v2.83h59.3c-.051,1.7.017,3.205.017,4.279v4.313Z" transform="translate(7.21 27.476)"/></g></svg>