<svg xmlns="http://www.w3.org/2000/svg" width="52" height="52" viewBox="0 0 52 52"><defs><style>.a{fill:#1bb4bb;}.b,.d{fill:none;}.b{stroke:#1bb4bb;}.c{stroke:none;}</style></defs><g transform="translate(-1817.812 -29)"><path class="a" d="M21.4,3a18.4,18.4,0,1,0,18.4,18.4A18.411,18.411,0,0,0,21.4,3Zm0,5.521a5.521,5.521,0,1,1-5.521,5.521A5.514,5.514,0,0,1,21.4,8.521Zm0,26.134A13.252,13.252,0,0,1,10.362,28.73c.055-3.662,7.362-5.669,11.043-5.669,3.662,0,10.988,2.006,11.043,5.669A13.252,13.252,0,0,1,21.4,34.656Z" transform="translate(1822.529 33.529)"/><g class="b" transform="translate(1817.812 29)"><circle class="c" cx="26" cy="26" r="26"/><circle class="d" cx="26" cy="26" r="25.5"/></g></g></svg>