<svg xmlns="http://www.w3.org/2000/svg" width="90" height="90" viewBox="0 0 90 90"><defs><style>.a{fill:#fc6171;}.b{fill:#005473;}.c{fill:#fff;}.d{fill:#fa5263;}</style></defs><path class="a" d="M486.128,378.131a45,45,0,1,1-45-45A45,45,0,0,1,486.128,378.131Z" transform="translate(-396.128 -333.133)"/><g transform="translate(20.634 21.95)"><g transform="translate(0 7.168)"><path class="b" d="M455.51,376.732a4.968,4.968,0,0,1-4.964,4.97H411.731a4.963,4.963,0,0,1-4.959-4.97v-23.32a4.959,4.959,0,0,1,4.959-4.966h38.815a4.963,4.963,0,0,1,4.964,4.966Z" transform="translate(-406.772 -348.446)"/><path class="c" d="M420.985,364.507a2.565,2.565,0,0,1,.107-2.21,5.441,5.441,0,0,0,1.5-2.433.334.334,0,0,0,.265.164c.295,0,.54-.571.54-1.295s-.245-1.291-.54-1.291h-.018c-.14-2.654-1.269-4.714-4.382-4.714-3.19,0-4.244,2.059-4.377,4.714h-.018c-.3,0-.547.578-.547,1.291s.249,1.295.547,1.295a.344.344,0,0,0,.265-.164,5.428,5.428,0,0,0,1.49,2.433,2.534,2.534,0,0,1,.118,2.21s-6.9,2.509-6.9,5.4h18.857C427.885,367.016,420.985,364.507,420.985,364.507Z" transform="translate(-404.872 -344.841)"/><rect class="c" width="9.728" height="1.587" transform="translate(26.088 7.886)"/><rect class="c" width="5.699" height="1.587" transform="translate(37.878 7.886)"/><rect class="c" width="17.488" height="0.707" transform="translate(26.088 15.763)"/><rect class="c" width="17.488" height="0.703" transform="translate(26.088 17.913)"/><rect class="c" width="17.488" height="0.708" transform="translate(26.088 20.06)"/><rect class="c" width="17.488" height="0.709" transform="translate(26.088 22.208)"/><rect class="c" width="12.578" height="0.707" transform="translate(26.088 24.355)"/></g><path class="c" d="M.426,0H20.2a.428.428,0,0,1,.428.428V5.173A.428.428,0,0,1,20.2,5.6H.426A.426.426,0,0,1,0,5.176V.426A.426.426,0,0,1,.426,0Z" transform="translate(14.054 4.364)"/><rect class="c" width="8.16" height="8.732" rx="0.621" transform="translate(20.292)"/></g><path class="d" d="M473.443,363.346c0-.63-.022-1.256-.046-1.877l-20.651-12a4.934,4.934,0,0,1,1.1,3.08v23.32a4.968,4.968,0,0,1-4.964,4.97H410.063a4.794,4.794,0,0,1-1.31-.2l40.125,21.82C464.018,395.511,473.443,381.1,473.443,363.346Z" transform="translate(-383.443 -317.319)"/></svg>