<svg xmlns="http://www.w3.org/2000/svg" width="100.066" height="100.066" viewBox="0 0 100.066 100.066">
  <g id="Group_1473" data-name="Group 1473" transform="translate(-514.044 142.71) rotate(-45)">
    <g id="Group_1464" data-name="Group 1464" transform="translate(436.588 290.38)">
      <path id="Path_3620" data-name="Path 3620" d="M448.213,329.2a1.418,1.418,0,0,1-1.419-1.419V314.066a1.419,1.419,0,1,1,2.837,0V327.78A1.418,1.418,0,0,1,448.213,329.2Z" transform="translate(-416.14 -259.695)" fill="#043b6f"/>
      <path id="Path_3621" data-name="Path 3621" d="M443.742,329.02a1.418,1.418,0,0,1-1.419-1.419V314a1.419,1.419,0,0,1,2.837,0v13.6A1.418,1.418,0,0,1,443.742,329.02Z" transform="translate(-420.125 -259.735)" fill="#043b6f"/>
      <path id="Path_3622" data-name="Path 3622" d="M449.518,357.764a8.835,8.835,0,0,1-8.973-8.67V321.3a1.419,1.419,0,0,1,1.419-1.419H457.07a1.419,1.419,0,0,1,1.419,1.419v27.8A8.834,8.834,0,0,1,449.518,357.764Zm-6.136-35.047v26.377a6.143,6.143,0,0,0,12.269,0V322.716Z" transform="translate(-421.71 -253.028)" fill="#043b6f"/>
      <path id="Path_3623" data-name="Path 3623" d="M458.387,340.145a27.806,27.806,0,0,1-.2-55.611h.217a27.806,27.806,0,0,1,.2,55.611Zm-.182-52.773a24.969,24.969,0,0,0,.184,49.936h.193a24.969,24.969,0,0,0-.18-49.936Zm-.009-1.419h0Z" transform="translate(-430.587 -284.534)" fill="#043b6f"/>
      <path id="Path_3624" data-name="Path 3624" d="M455.186,330.129a21,21,0,1,1,21-21A21.024,21.024,0,0,1,455.186,330.129Zm0-39.159a18.161,18.161,0,1,0,18.161,18.161A18.182,18.182,0,0,0,455.186,290.97Z" transform="translate(-427.378 -281.326)" fill="#043b6f"/>
      <path id="Path_3625" data-name="Path 3625" d="M457.359,318.8H441.848a1.419,1.419,0,1,1,0-2.837h15.511a1.419,1.419,0,0,1,0,2.837Z" transform="translate(-421.813 -256.601)" fill="#043b6f"/>
    </g>
  </g>
</svg>
