<svg xmlns="http://www.w3.org/2000/svg" width="94.045" height="94.048" viewBox="0 0 94.045 94.048"><defs><style>.a{fill:#fc6171;}.b{fill:#fff;}.c{fill:#a9e1e9;}.d{fill:#fa5263;}.e{fill:none;stroke:#707070;opacity:0.36;}.f{fill:#1bb4bb;font-size:15px;font-family:HelveticaLTStd-Roman, Helvetica LT Std;}</style></defs><g transform="translate(0 0)"><path class="a" d="M320.068,99.778a47.022,47.022,0,1,1-47.025-47.024A47.023,47.023,0,0,1,320.068,99.778Z" transform="translate(-226.023 -52.754)"/><g transform="translate(25.748 18.503)"><path class="b" d="M247.2,62.173l-8.057,8.062v47.457h40.63V62.173Z" transform="translate(-239.146 -62.173)"/><path class="c" d="M247.2,70.236V62.173l-8.057,8.062Z" transform="translate(-239.146 -62.173)"/></g><path class="d" d="M307.3,90.467a46.807,46.807,0,0,0-1.868-13.1L279.708,62.411v44.225l1.741,1.737a5.181,5.181,0,0,1,.219,7.321l-1.69,1.69a5.127,5.127,0,0,1-6.953.082H239.216l32.09,18.652A46.951,46.951,0,0,0,307.3,90.467Z" transform="translate(-213.259 -43.366)"/></g><path class="e" d="M-19557.9-22367.621h12.332" transform="translate(19589.352 22400.41)"/><path class="e" d="M-19557.9-22367.621h29.557" transform="translate(19589.352 22406.68)"/><path class="e" d="M-19557.9-22367.621h21.674" transform="translate(19589.352 22419.219)"/><path class="e" d="M-19557.9-22367.621h25.721" transform="translate(19589.352 22412.949)"/><text class="f" transform="translate(52.708 67.293)"><tspan x="-9.382" y="0">A+</tspan></text></svg>