<svg xmlns="http://www.w3.org/2000/svg" width="98" height="107.492" viewBox="0 0 98 107.492">
  <g id="Group_1645" data-name="Group 1645" transform="translate(-283.793 -373.886)">
    <g id="Group_1638" data-name="Group 1638" transform="translate(283.793 399.67)">
      <g id="Group_1636" data-name="Group 1636" transform="translate(0 0.024)">
        <path id="Path_3679" data-name="Path 3679" d="M300.073,404.648H285.636a1.027,1.027,0,0,1-.9-.53,7.656,7.656,0,0,1,6.711-11.339h7.021a1.024,1.024,0,1,1,0,2.049h-7.021a5.607,5.607,0,0,0-5.172,7.771h13.8a1.025,1.025,0,1,1,0,2.049Z" transform="translate(-283.793 -392.779)" fill="#171716"/>
      </g>
      <path id="Path_3680" data-name="Path 3680" d="M337.863,452.617a1.025,1.025,0,0,1-1.024-1.024v-27.78a1.024,1.024,0,0,1,2.049,0v27.78A1.025,1.025,0,0,1,337.863,452.617Z" transform="translate(-264.38 -381.773)" fill="#171716"/>
      <path id="Path_3681" data-name="Path 3681" d="M305.663,474.469a8.748,8.748,0,0,1-5.737-2c-1.817-1.6-2.739-4.035-2.739-7.226V404.015c0-3.613-.873-6.214-2.593-7.731a6.028,6.028,0,0,0-3.448-1.449h-1.1a1.024,1.024,0,0,1-.126-2.041,6.779,6.779,0,0,1,1.262-.008h44.059a1.024,1.024,0,1,1,0,2.049h-39.2c2.116,1.93,3.188,5.019,3.188,9.181v61.231c0,2.569.684,4.479,2.033,5.678a7.108,7.108,0,0,0,4.983,1.47,1.024,1.024,0,0,1,.25,2.033A7.145,7.145,0,0,1,305.663,474.469Z" transform="translate(-281.879 -392.762)" fill="#171716"/>
      <g id="Group_1637" data-name="Group 1637" transform="translate(22.071 69.837)">
        <path id="Path_3682" data-name="Path 3682" d="M358.378,455.76h-57.4a1.024,1.024,0,0,1,0-2.049,5.615,5.615,0,0,0,4.919-8.307,1.023,1.023,0,0,1,.9-1.516h57.4a1.027,1.027,0,0,1,.9.529,7.661,7.661,0,0,1-6.712,11.343Zm-52.2-2.049h52.2a5.613,5.613,0,0,0,5.606-5.607,5.536,5.536,0,0,0-.432-2.166H308.319a7.657,7.657,0,0,1-2.136,7.774Z" transform="translate(-299.951 -443.888)" fill="#171716"/>
      </g>
    </g>
    <g id="Group_1639" data-name="Group 1639" transform="translate(306.273 423.444)">
      <path id="Path_3683" data-name="Path 3683" d="M333.1,414.628H311.024a1.024,1.024,0,1,1,0-2.049H333.1a1.024,1.024,0,0,1,0,2.049Z" transform="translate(-296.682 -409.283)" fill="#171716"/>
      <path id="Path_3684" data-name="Path 3684" d="M305.144,418.135a1.018,1.018,0,0,1-.735-.311l-3.87-3.985a1.024,1.024,0,1,1,1.47-1.427l2.99,3.08,3.28-4.872a1.024,1.024,0,1,1,1.7,1.145l-3.985,5.919a1.025,1.025,0,0,1-.759.448C305.206,418.134,305.174,418.135,305.144,418.135Z" transform="translate(-300.25 -410.166)" fill="#171716"/>
    </g>
    <g id="Group_1640" data-name="Group 1640" transform="translate(306.273 439.266)">
      <path id="Path_3685" data-name="Path 3685" d="M338.565,426.295H311.024a1.024,1.024,0,0,1,0-2.049h27.541a1.024,1.024,0,1,1,0,2.049Z" transform="translate(-296.682 -420.836)" fill="#171716"/>
      <path id="Path_3686" data-name="Path 3686" d="M305.144,429.718a1.018,1.018,0,0,1-.735-.311l-3.87-3.982a1.024,1.024,0,1,1,1.47-1.427l2.99,3.076,3.28-4.871a1.024,1.024,0,1,1,1.7,1.145l-3.985,5.919a1.02,1.02,0,0,1-.759.448C305.206,429.717,305.174,429.718,305.144,429.718Z" transform="translate(-300.25 -421.749)" fill="#171716"/>
    </g>
    <g id="Group_1641" data-name="Group 1641" transform="translate(306.273 455.088)">
      <path id="Path_3687" data-name="Path 3687" d="M338.565,438.128H311.024a1.025,1.025,0,0,1,0-2.049h27.541a1.025,1.025,0,0,1,0,2.049Z" transform="translate(-296.682 -432.327)" fill="#171716"/>
      <path id="Path_3688" data-name="Path 3688" d="M305.144,441.3a1.022,1.022,0,0,1-.735-.31l-3.87-3.986a1.024,1.024,0,1,1,1.47-1.426l2.99,3.078,3.28-4.872a1.024,1.024,0,1,1,1.7,1.145l-3.985,5.92a1.025,1.025,0,0,1-.759.448C305.206,441.3,305.174,441.3,305.144,441.3Z" transform="translate(-300.25 -433.332)" fill="#171716"/>
    </g>
    <g id="Group_1644" data-name="Group 1644" transform="translate(332.765 373.886)">
      <g id="Group_1642" data-name="Group 1642" transform="translate(7.584 14.747)">
        <path id="Path_3689" data-name="Path 3689" d="M349.686,422.8H334.568a1.025,1.025,0,0,1-1.024-1.024v-5.357a7.775,7.775,0,0,0-1.228-1,16.709,16.709,0,0,1-7.119-13.8,16.931,16.931,0,0,1,33.862,0,16.431,16.431,0,0,1-7.27,13.907,2.427,2.427,0,0,0-1.082,2.074l0,4.179A1.025,1.025,0,0,1,349.686,422.8Zm-14.094-2.049h13.07v-3.071a4.451,4.451,0,0,1,2.031-3.889,14.366,14.366,0,0,0,6.316-12.175,14.882,14.882,0,0,0-29.765,0,14.655,14.655,0,0,0,6.236,12.112c1.49,1.03,1.916,1.694,2.038,2a1.047,1.047,0,0,1,.074.382Z" transform="translate(-325.196 -384.682)" fill="#1bb4bb"/>
        <path id="Path_3690" data-name="Path 3690" d="M347.294,416.384H332.314a1.024,1.024,0,0,1,0-2.049h14.979a1.024,1.024,0,0,1,0,2.049Z" transform="translate(-322.966 -373.83)" fill="#1bb4bb"/>
        <path id="Path_3691" data-name="Path 3691" d="M343.78,419.633h-9.436a1.024,1.024,0,1,1,0-2.049h9.436a1.024,1.024,0,0,1,0,2.049Z" transform="translate(-322.223 -372.641)" fill="#1bb4bb"/>
      </g>
      <g id="Group_1643" data-name="Group 1643">
        <path id="Path_3692" data-name="Path 3692" d="M337.583,385.767a1.024,1.024,0,0,1-1.024-1.024V374.91a1.024,1.024,0,0,1,2.049,0v9.832A1.025,1.025,0,0,1,337.583,385.767Z" transform="translate(-313.454 -373.886)" fill="#1bb4bb"/>
        <path id="Path_3693" data-name="Path 3693" d="M327.62,389.056a1.025,1.025,0,0,1-.724-.3l-6.951-6.951a1.025,1.025,0,1,1,1.449-1.449l6.951,6.951a1.025,1.025,0,0,1-.725,1.75Z" transform="translate(-319.644 -371.629)" fill="#1bb4bb"/>
        <path id="Path_3694" data-name="Path 3694" d="M349.971,389.056a1.025,1.025,0,0,1-.724-1.75l6.953-6.951a1.024,1.024,0,0,1,1.448,1.449l-6.953,6.951A1.02,1.02,0,0,1,349.971,389.056Z" transform="translate(-308.92 -371.629)" fill="#1bb4bb"/>
      </g>
    </g>
  </g>
</svg>
