<svg xmlns="http://www.w3.org/2000/svg" xmlns:xlink="http://www.w3.org/1999/xlink" width="98" height="98" viewBox="0 0 98 98">
  <defs>
    <filter id="Ellipse_249" x="0" y="0" width="98" height="98" filterUnits="userSpaceOnUse">
      <feOffset dy="3" input="SourceAlpha"/>
      <feGaussianBlur stdDeviation="3" result="blur"/>
      <feFlood flood-opacity="0.161"/>
      <feComposite operator="in" in2="blur"/>
      <feComposite in="SourceGraphic"/>
    </filter>
  </defs>
  <g id="Group_2277" data-name="Group 2277" transform="translate(-177 -826)">
    <g transform="matrix(1, 0, 0, 1, 177, 826)" filter="url(#Ellipse_249)">
      <circle id="Ellipse_249-2" data-name="Ellipse 249" cx="40" cy="40" r="40" transform="translate(9 6)" fill="#f0f0f0"/>
    </g>
    <g id="Path_3782" data-name="Path 3782" transform="translate(190 836)" fill="#fff">
      <path d="M 36 70.5 C 31.34186744689941 70.5 26.82387733459473 69.58803558349609 22.57151031494141 67.78943634033203 C 18.46344375610352 66.05186462402344 14.77372264862061 63.56409072875977 11.60482215881348 60.39517593383789 C 8.435911178588867 57.22627639770508 5.94813346862793 53.53655624389648 4.210566520690918 49.42848968505859 C 2.411966562271118 45.17612075805664 1.5 40.65813446044922 1.5 36 C 1.5 31.34186744689941 2.411966562271118 26.82387733459473 4.210566520690918 22.57151031494141 C 5.94813346862793 18.46344375610352 8.435911178588867 14.77372264862061 11.60482215881348 11.60482215881348 C 14.77372264862061 8.435911178588867 18.46344375610352 5.94813346862793 22.57151031494141 4.210566520690918 C 26.82387733459473 2.411966562271118 31.34186744689941 1.5 36 1.5 C 40.65813446044922 1.5 45.17612075805664 2.411966562271118 49.42848968505859 4.210566520690918 C 53.53655624389648 5.94813346862793 57.22627639770508 8.435911178588867 60.39517593383789 11.60482215881348 C 63.56409072875977 14.77372264862061 66.05186462402344 18.46344375610352 67.78943634033203 22.57151031494141 C 69.58803558349609 26.82387733459473 70.5 31.34186744689941 70.5 36 C 70.5 40.65813446044922 69.58803558349609 45.17612075805664 67.78943634033203 49.42848968505859 C 66.05186462402344 53.53655624389648 63.56409072875977 57.22627639770508 60.39517593383789 60.39517593383789 C 57.22627639770508 63.56409072875977 53.53655624389648 66.05186462402344 49.42848968505859 67.78943634033203 C 45.17612075805664 69.58803558349609 40.65813446044922 70.5 36 70.5 Z" stroke="none"/>
      <path d="M 36 3 C 31.54370498657227 3 27.22230529785156 3.872093200683594 23.15583419799805 5.592071533203125 C 19.22657775878906 7.254013061523438 15.69710540771484 9.633846282958984 12.66548156738281 12.66548156738281 C 9.633846282958984 15.69710540771484 7.254013061523438 19.22657775878906 5.592071533203125 23.15583419799805 C 3.872093200683594 27.22230529785156 3 31.54370498657227 3 36 C 3 40.45629501342773 3.872093200683594 44.77769470214844 5.592071533203125 48.84416198730469 C 7.254013061523438 52.77342224121094 9.633846282958984 56.30289459228516 12.66548156738281 59.33451843261719 C 15.69710540771484 62.36615371704102 19.22657775878906 64.74598693847656 23.15583419799805 66.40792846679688 C 27.22230529785156 68.12790679931641 31.54370498657227 69 36 69 C 40.45629501342773 69 44.77769470214844 68.12790679931641 48.84416198730469 66.40792846679688 C 52.77342224121094 64.74598693847656 56.30289459228516 62.36615371704102 59.33451843261719 59.33451843261719 C 62.36615371704102 56.30289459228516 64.74598693847656 52.77342224121094 66.40792846679688 48.84416198730469 C 68.12790679931641 44.77769470214844 69 40.45629501342773 69 36 C 69 31.54370498657227 68.12790679931641 27.22230529785156 66.40792846679688 23.15583419799805 C 64.74598693847656 19.22657775878906 62.36615371704102 15.69710540771484 59.33451843261719 12.66548156738281 C 56.30289459228516 9.633846282958984 52.77342224121094 7.254013061523438 48.84416198730469 5.592071533203125 C 44.77769470214844 3.872093200683594 40.45629501342773 3 36 3 M 36 0 C 55.88224792480469 0 72 16.11775207519531 72 36 C 72 55.88224792480469 55.88224792480469 72 36 72 C 16.11775207519531 72 0 55.88224792480469 0 36 C 0 16.11775207519531 16.11775207519531 0 36 0 Z" stroke="none" fill="#043b6f"/>
    </g>
    <g id="Group_2275" data-name="Group 2275" transform="translate(-0.5)">
      <line id="Line_60" data-name="Line 60" x2="39" transform="translate(207.5 886.5)" fill="none" stroke="#043b6f" stroke-linecap="square" stroke-width="3"/>
      <g id="Group_2274" data-name="Group 2274" transform="translate(1.5 -1)">
        <line id="Line_61" data-name="Line 61" y2="12" transform="translate(214.5 871.5)" fill="none" stroke="#1bb4bb" stroke-width="6"/>
        <line id="Line_62" data-name="Line 62" y2="19" transform="translate(225.5 864.5)" fill="none" stroke="#1bb4bb" stroke-width="6"/>
        <line id="Line_63" data-name="Line 63" y2="26" transform="translate(236.5 857.5)" fill="none" stroke="#1bb4bb" stroke-width="6"/>
      </g>
    </g>
  </g>
</svg>
