<svg xmlns="http://www.w3.org/2000/svg" width="309.387" height="309.387" viewBox="0 0 309.387 309.387"><defs><style>.a,.b,.c,.d{fill:none;}.a{stroke:#0be9f3;stroke-width:2px;opacity:0.39;}.a,.b,.c{stroke-miterlimit:10;}.b{stroke:#15c8d1;stroke-width:5px;}.c,.d{stroke:#1bb4bb;}.c{stroke-width:8px;}.d{stroke-linecap:round;stroke-linejoin:round;stroke-width:10px;}</style></defs><g transform="translate(-169.67 -75.782)"><path class="a" d="M478.057,230.475a153.693,153.693,0,1,1-153.7-153.693A153.7,153.7,0,0,1,478.057,230.475Z" transform="translate(0 0)"/><path class="b" d="M437.2,212.191A131.122,131.122,0,1,1,306.074,81.069,131.127,131.127,0,0,1,437.2,212.191Z" transform="translate(18.284 18.285)"/><path class="c" d="M385.318,188.972A102.459,102.459,0,1,1,282.859,86.513,102.455,102.455,0,0,1,385.318,188.972Z" transform="translate(41.499 41.504)"/><path class="d" d="M191.259,144.985l37.974,37.974,59.058-84.1" transform="translate(87.815 94.148)"/></g></svg>