<svg xmlns="http://www.w3.org/2000/svg" width="101.36" height="101.36" viewBox="0 0 101.36 101.36"><defs><style>.a{fill:#74aced;}.b{fill:#00658a;}.c{fill:#fff;}.d{fill:#005473;}.e{fill:#6a9edb;}</style></defs><path class="a" d="M157.528,552.041a50.68,50.68,0,1,1-50.679-50.677A50.682,50.682,0,0,1,157.528,552.041Z" transform="translate(-56.168 -501.364)"/><g transform="translate(25.563 25.561)"><path class="b" d="M93.2,535.444l11.75-17.814-5.088,1.041,2.431-3.688.013,0a25.128,25.128,0,0,0-32.47,32.668l12.839-19.106Z" transform="translate(-68.074 -513.269)"/><path class="b" d="M113.949,524.031a25.352,25.352,0,0,0-3.3-5.01c-.447-.529-.911-1.035-1.4-1.524l.013.052-2.437,3.694-1.045-5.09L92.34,536.535l-10.53-6.926L69.651,547.686a25.12,25.12,0,0,0,44.3-23.655Z" transform="translate(-66.341 -510.099)"/><path class="c" d="M110.061,520.545l-1.476-7.164-7.2,1.478-.013,0-2.431,3.688,5.088-1.041-11.75,17.814-10.526-6.9L68.914,547.526a24.263,24.263,0,0,0,1.547,3.207L82.62,532.655l10.53,6.926L106.592,519.2l1.045,5.09,2.437-3.694Z" transform="translate(-67.151 -513.146)"/><path class="d" d="M112.04,522.53h.006c-.023-.042-.046-.084-.067-.117-.061-.139-.128-.26-.2-.395-.055-.1-.111-.206-.166-.309-.073-.13-.143-.252-.212-.382-.061-.1-.115-.206-.176-.311-.046-.073-.09-.149-.141-.227h0a24.952,24.952,0,0,0-2.338-3.27l-7.695,11.815-8.985,13.622L81.495,536,71.382,551.046A25.113,25.113,0,0,0,112.04,522.53Z" transform="translate(-64.439 -508.597)"/></g><path class="e" d="M134.96,538.041c0-1.694-.088-3.369-.254-5.023l-33.446-19.436,1.387,6.742c.487.489.951.995,1.4,1.524.279.332.552.68.812,1.026.08.1.157.208.235.313.216.29.422.581.625.888.073.109.151.225.222.338.149.233.3.47.443.705h0c.05.078.094.153.141.227.021.036.038.069.055.105s.061.1.09.145l.031.061c.069.13.139.252.212.382.055.1.111.206.166.309.071.134.139.256.2.395.021.034.044.076.067.117a25.128,25.128,0,0,1-22.5,36.3c-.393,0-.793-.015-1.18-.032-.1,0-.191-.01-.283-.01-.388-.025-.777-.057-1.159-.1a.552.552,0,0,1-.1-.015c-.363-.04-.709-.082-1.066-.136-.088-.01-.176-.029-.264-.042-.376-.057-.749-.128-1.115-.2-.055-.017-.1-.029-.16-.042-.332-.069-.659-.149-.984-.229-.082-.021-.164-.042-.248-.067-.357-.1-.712-.2-1.07-.311l-.187-.063c-.313-.1-.617-.208-.921-.327-.073-.023-.149-.05-.22-.075s-.151-.063-.229-.1l34.349,19.963A50.073,50.073,0,0,0,134.96,538.041Z" transform="translate(-33.599 -486.79)"/></svg>