<svg xmlns="http://www.w3.org/2000/svg" width="79.678" height="86.89" viewBox="0 0 79.678 86.89">
  <g id="Group_1676" data-name="Group 1676" transform="translate(8935.001 151.415)">
    <path id="Icon_metro-file-pdf" data-name="Icon metro-file-pdf" d="M33.067,38.738a25.955,25.955,0,0,0,2.865,1.91,33.85,33.85,0,0,1,3.991-.239q5.014,0,6.038,1.672a1.649,1.649,0,0,1,.068,1.774.1.1,0,0,1-.034.068l-.068.068v.034q-.2,1.3-2.422,1.3a14.072,14.072,0,0,1-3.923-.682,24.873,24.873,0,0,1-4.435-1.808,61.424,61.424,0,0,0-13.372,2.831Q16.557,54.6,13.521,54.6a1.984,1.984,0,0,1-.955-.239l-.819-.409q-.034-.034-.2-.171a1.41,1.41,0,0,1-.2-1.228,7.408,7.408,0,0,1,1.91-3.121,16.486,16.486,0,0,1,4.5-3.292.5.5,0,0,1,.785.2.2.2,0,0,1,.068.136q1.774-2.9,3.65-6.72A52.065,52.065,0,0,0,25.8,30.824a27.575,27.575,0,0,1-1.041-5.441,13.264,13.264,0,0,1,.222-4.349q.375-1.364,1.433-1.364h.75a1.438,1.438,0,0,1,1.194.512,2.725,2.725,0,0,1,.307,2.32.74.74,0,0,1-.136.273.888.888,0,0,1,.034.273v1.023a44.67,44.67,0,0,1-.478,6.55q1.876,5.594,4.98,8.119ZM13.418,52.758q1.774-.819,4.673-5.39a19.446,19.446,0,0,0-2.985,2.865A11.338,11.338,0,0,0,13.418,52.758ZM27,21.375a10.143,10.143,0,0,0-.068,4.5q.034-.239.239-1.5,0-.1.239-1.467a.767.767,0,0,1,.136-.273.1.1,0,0,1-.034-.068.069.069,0,0,0-.017-.051.069.069,0,0,1-.017-.051,1.963,1.963,0,0,0-.443-1.228.1.1,0,0,1-.034.068v.068Zm-4.23,22.548a50.035,50.035,0,0,1,9.688-2.763,5.147,5.147,0,0,1-.443-.324,6.11,6.11,0,0,1-.546-.46,18.069,18.069,0,0,1-4.332-6,45.584,45.584,0,0,1-2.831,6.72Q23.277,43,22.765,43.923ZM44.8,43.377q-.819-.819-4.776-.819a12.9,12.9,0,0,0,4.23.955,3.309,3.309,0,0,0,.614-.034q0-.034-.068-.1Z" transform="translate(-8928.279 -139.471)" fill="#043b6f"/>
    <g id="Rectangle_725" data-name="Rectangle 725" transform="translate(-8935.001 -140)" fill="none" stroke="#043b6f" stroke-width="2">
      <rect width="68.709" height="75.475" rx="7" stroke="none"/>
      <rect x="1" y="1" width="66.709" height="73.475" rx="6" fill="none"/>
    </g>
    <path id="Icon_awesome-play" data-name="Icon awesome-play" d="M24.351,12.319,4.154.379A2.739,2.739,0,0,0,0,2.749V26.624a2.752,2.752,0,0,0,4.154,2.37l20.2-11.935A2.751,2.751,0,0,0,24.351,12.319Z" transform="translate(-8882.027 -150.381)" fill="#043b6f" stroke="#fff" stroke-width="2"/>
  </g>
</svg>
