<svg xmlns="http://www.w3.org/2000/svg" width="69.093" height="80.609" viewBox="0 0 69.093 80.609">
  <path id="Icon_metro-file-pdf" data-name="Icon metro-file-pdf" d="M68.605,19.3a10.467,10.467,0,0,1,2.159,3.419,10.381,10.381,0,0,1,.9,3.958v51.82a4.3,4.3,0,0,1-4.318,4.318H6.889a4.164,4.164,0,0,1-3.059-1.26,4.164,4.164,0,0,1-1.26-3.059V6.522A4.164,4.164,0,0,1,3.83,3.463,4.164,4.164,0,0,1,6.889,2.2h40.3a10.384,10.384,0,0,1,3.958.9,10.467,10.467,0,0,1,3.419,2.159ZM48.633,8.321V25.235H65.546a4.915,4.915,0,0,0-.99-1.844L50.477,9.311a4.913,4.913,0,0,0-1.844-.99ZM65.906,77.055V30.992H47.193a4.3,4.3,0,0,1-4.318-4.318V7.961H8.328V77.055H65.906ZM42.785,50.38A34.225,34.225,0,0,0,46.564,52.9a44.638,44.638,0,0,1,5.263-.315q6.612,0,7.962,2.2a2.174,2.174,0,0,1,.09,2.339.13.13,0,0,1-.045.09l-.09.09v.045q-.27,1.709-3.194,1.709a18.556,18.556,0,0,1-5.173-.9,32.8,32.8,0,0,1-5.848-2.384A81,81,0,0,0,27.9,59.511Q21.014,71.3,17.01,71.3a2.616,2.616,0,0,1-1.26-.315l-1.08-.54q-.045-.045-.27-.225a1.859,1.859,0,0,1-.27-1.619,9.769,9.769,0,0,1,2.519-4.116,21.739,21.739,0,0,1,5.938-4.341.656.656,0,0,1,1.035.27.259.259,0,0,1,.09.18q2.339-3.823,4.813-8.862A68.655,68.655,0,0,0,33.2,39.944a36.362,36.362,0,0,1-1.372-7.175,17.49,17.49,0,0,1,.292-5.735q.495-1.8,1.889-1.8H35a1.9,1.9,0,0,1,1.574.675,3.593,3.593,0,0,1,.4,3.059.976.976,0,0,1-.18.36,1.171,1.171,0,0,1,.045.36v1.349a58.9,58.9,0,0,1-.63,8.637q2.474,7.377,6.568,10.706ZM16.875,68.868q2.339-1.08,6.163-7.107A25.642,25.642,0,0,0,19.1,65.539,14.951,14.951,0,0,0,16.875,68.868Zm17.9-41.384a13.375,13.375,0,0,0-.09,5.938q.045-.315.315-1.979,0-.135.315-1.934a1.012,1.012,0,0,1,.18-.36.13.13,0,0,1-.045-.09.091.091,0,0,0-.023-.067.091.091,0,0,1-.023-.067,2.589,2.589,0,0,0-.585-1.619.13.13,0,0,1-.045.09v.09ZM29.2,57.217a65.979,65.979,0,0,1,12.775-3.644,6.785,6.785,0,0,1-.585-.427,8.057,8.057,0,0,1-.72-.607,23.827,23.827,0,0,1-5.713-7.917,60.111,60.111,0,0,1-3.734,8.862Q29.875,56,29.2,57.217Zm29.059-.72q-1.08-1.08-6.3-1.08a17.015,17.015,0,0,0,5.578,1.26,4.363,4.363,0,0,0,.81-.045q0-.045-.09-.135Z" transform="translate(-2.571 -2.204)" fill="#1bb4bb"/>
</svg>
