<svg xmlns="http://www.w3.org/2000/svg" width="61.17" height="78.09" viewBox="0 0 61.17 78.09"><defs><style>.a,.b{fill:#fff;}.b{stroke:#ffc107;stroke-width:2px;}</style></defs><g transform="translate(-174.634 -631.277)"><g transform="translate(174.634 631.277)"><path class="a" d="M38.709,22.6H21.545a.934.934,0,0,1-.943-.943h0a5.582,5.582,0,0,1,2.018-4.319l14.392-12a6.058,6.058,0,0,1,3.886-1.4h0a1.393,1.393,0,0,1,1.4,1.4V19.015A3.582,3.582,0,0,1,38.709,22.6Z" transform="translate(-20.602 -3.926)"/><path class="a" d="M33.908,19.027V3.937H58.617a6.054,6.054,0,0,1,6.036,6.036V73.35a6.054,6.054,0,0,1-6.036,6.036H13.348A6.054,6.054,0,0,1,7.313,73.35V27.515H25.42A8.5,8.5,0,0,0,33.908,19.027Z" transform="translate(-7.313 -3.937)"/></g><path class="b" d="M7.734,7.858A3.624,3.624,0,0,0,5.282,10.2L0,26.044l.832.832,8.5-8.5a2.743,2.743,0,1,1,1.281,1.281l-8.5,8.5.832.832,15.845-5.282a3.624,3.624,0,0,0,2.341-2.452l2.423-8.572L16.306,5.435ZM28.192,4.2,24.789.8a2.719,2.719,0,0,0-3.845,0L17.742,4l7.248,7.248,3.2-3.2a2.719,2.719,0,0,0,0-3.845Z" transform="matrix(-0.087, 0.996, -0.996, -0.087, 234.708, 679.18)"/></g></svg>