<svg xmlns="http://www.w3.org/2000/svg" width="73.825" height="72.478" viewBox="0 0 73.825 72.478"><defs><style>.a{fill:#fff;}</style></defs><path class="a" d="M72.45,9.2H47.719v4.577h7.29v7.241h-7.29v2.307h7.29v7.25h-7.29v2.372h7.29V39.8h-7.29v2.747h7.29v6.872h-7.29v2.747h7.29v6.912h-7.29V64.12H72.45c.391-.117.717-.578.978-1.378a6.745,6.745,0,0,0,.4-1.956V10.033c0-.394-.135-.631-.4-.714A3.384,3.384,0,0,0,72.45,9.2ZM69.242,59.072H57.378V52.166H69.242v6.906Zm0-9.653H57.378V42.544H69.242Zm0-9.622H57.378V32.972H69.242V39.8Zm0-9.228H57.378V23.328H69.242v7.241Zm0-9.594H57.378v-7.2H69.242v7.2ZM0,8.056V65.273l43.557,7.533V.328L0,8.08ZM25.817,51.339q-.249-.674-2.332-5.731c-1.381-3.371-2.215-5.334-2.458-5.894h-.077l-4.673,11.12-6.244-.421,7.407-13.842L10.659,22.728l6.367-.335,4.208,10.831h.083L26.07,21.9l6.58-.415-7.835,14.98,8.075,15.282-7.072-.415Z" transform="translate(0 -0.328)"/></svg>